<?xml version="1.0" encoding="utf-8"?>
<!-- Generator: Adobe Illustrator 27.0.0, SVG Export Plug-In . SVG Version: 6.00 Build 0)  -->
<svg version="1.1" id="图层_1" xmlns="http://www.w3.org/2000/svg" xmlns:xlink="http://www.w3.org/1999/xlink" x="0px" y="0px"
	 viewBox="0 0 476.6 130.4" style="enable-background:new 0 0 476.6 130.4;" xml:space="preserve">
<style type="text/css">
	.st0{font-family:'ArialMT';}
	.st1{font-size:12.3379px;}
	.st2{font-size:7.5925px;}
	.st3{fill:#0000FF;}
	.st4{fill:none;stroke:#000000;stroke-width:1.1792;}
	.st5{font-family:'TimesNewRomanPSMT';}
	.st6{font-size:12px;}
	.st7{font-family:'SimSun';}
</style>
<text transform="matrix(1 0 0 1 44.6275 13.5962)" class="st0 st1">C</text>
<text transform="matrix(1 0 0 1 53.5377 13.5962)" class="st0 st1">O</text>
<text transform="matrix(1 0 0 1 63.1344 13.5962)" class="st0 st1">O</text>
<text transform="matrix(1 0 0 1 72.7315 7.9018)" class="st0 st2">-</text>
<text transform="matrix(1 0 0 1 16.6485 41.3393)" class="st0 st1">C</text>
<text transform="matrix(1 0 0 1 25.5587 41.3393)" class="st0 st1">H</text>
<text transform="matrix(1 0 0 1 34.4688 43.2373)" class="st0 st2">2</text>
<text transform="matrix(1 0 0 1 16.649 70.9072)" class="st0 st1">C</text>
<text transform="matrix(1 0 0 1 44.6275 71.5537)" class="st3 st0 st1">C</text>
<text transform="matrix(1 0 0 1 53.5377 71.5537)" class="st3 st0 st1">O</text>
<text transform="matrix(1 0 0 1 63.1344 71.5537)" class="st3 st0 st1">O</text>
<text transform="matrix(1 0 0 1 72.7315 65.8593)" class="st3 st0 st2">-</text>
<text transform="matrix(1 0 0 1 16.3038 98.8862)" class="st0 st1">O</text>
<text transform="matrix(1 0 0 1 16.6485 13.3603)" class="st0 st1">C</text>
<text transform="matrix(1 0 0 1 25.5587 13.3603)" class="st0 st1">H</text>
<text transform="matrix(1 0 0 1 34.4688 15.2583)" class="st0 st2">2</text>
<polygon points="39.7,9.4 43.5,9.4 43.5,10 43.5,10.5 39.7,10.5 39.7,10 "/>
<polygon points="21.7,16.2 21.7,31.7 21.1,31.7 20.5,31.7 20.5,16.2 21.1,16.2 "/>
<polygon points="21.7,44.2 21.7,59.7 21.1,59.7 20.5,59.7 20.5,44.2 21.1,44.2 "/>
<polygon points="26.7,65.4 43.5,65.4 43.5,65.9 43.5,66.5 26.7,66.5 26.7,65.9 "/>
<polygon points="23.3,72.1 23.3,87.7 22.8,87.7 22.2,87.7 22.2,72.1 22.8,72.1 "/>
<polygon points="20,72.1 20,87.7 19.4,87.7 18.9,87.7 18.9,72.1 19.4,72.1 "/>
<line class="st4" x1="91.2" y1="53.6" x2="281.5" y2="53.6"/>
<polygon points="291.1,53.6 279.9,50.8 281.5,53.6 279.9,56.4 "/>
<path class="st4" d="M138.3,52.3c-14.6-4.2-24.6-17.5-24.6-32.7"/>
<polygon points="147.7,53.6 137.2,49 138.3,52.3 136.3,54.5 "/>
<text transform="matrix(1 0 0 1 95.8946 15.5996)" class="st0 st1">C</text>
<text transform="matrix(1 0 0 1 104.8048 15.5996)" class="st0 st1">o</text>
<text transform="matrix(1 0 0 1 111.6661 15.5996)" class="st0 st1">A</text>
<text transform="matrix(1 0 0 1 119.8956 15.5996)" class="st0 st1">-</text>
<text transform="matrix(1 0 0 1 124.004 15.5996)" class="st0 st1">S</text>
<text transform="matrix(1 0 0 1 132.2335 15.5996)" class="st0 st1">H</text>
<path class="st4" d="M249.5,27.9c-5.2,18.3-24.2,28.9-42.5,23.8c-14.8-4.2-25.1-17.7-25.1-33.1"/>
<polygon points="250.8,18.5 246.3,29 249.5,27.9 251.8,29.9 "/>
<text transform="matrix(1 0 0 1 168.6563 17.4844)" class="st0 st1">N</text>
<text transform="matrix(1 0 0 1 177.5665 17.4844)" class="st0 st1">A</text>
<text transform="matrix(1 0 0 1 185.7955 17.4844)" class="st0 st1">D</text>
<text transform="matrix(1 0 0 1 233.6651 17.1432)" class="st0 st1">N</text>
<text transform="matrix(1 0 0 1 242.5752 17.1432)" class="st0 st1">A</text>
<text transform="matrix(1 0 0 1 250.8042 17.1432)" class="st0 st1">D</text>
<text transform="matrix(1 0 0 1 259.7144 17.1432)" class="st0 st1">H</text>
<text transform="matrix(1 0 0 1 194.049 9.2363)" class="st0 st2">+</text>
<text transform="matrix(1 0 0 1 341.501 12.3305)" class="st0 st1">C</text>
<text transform="matrix(1 0 0 1 350.4112 12.3305)" class="st0 st1">O</text>
<text transform="matrix(1 0 0 1 360.0079 12.3305)" class="st0 st1">O</text>
<text transform="matrix(1 0 0 1 369.6046 6.6362)" class="st0 st2">-</text>
<text transform="matrix(1 0 0 1 313.5225 40.0737)" class="st0 st1">C</text>
<text transform="matrix(1 0 0 1 322.4327 40.0737)" class="st0 st1">H</text>
<text transform="matrix(1 0 0 1 331.3419 41.9721)" class="st0 st2">2</text>
<text transform="matrix(1 0 0 1 313.5225 69.6416)" class="st0 st1">C</text>
<text transform="matrix(1 0 0 1 313.1778 97.6206)" class="st0 st1">O</text>
<text transform="matrix(1 0 0 1 341.8409 69.6416)" class="st0 st1">S</text>
<text transform="matrix(1 0 0 1 369.4796 69.6416)" class="st0 st1">C</text>
<text transform="matrix(1 0 0 1 378.3897 69.6416)" class="st0 st1">o</text>
<text transform="matrix(1 0 0 1 385.252 69.6416)" class="st0 st1">A</text>
<text transform="matrix(1 0 0 1 313.5225 12.0952)" class="st0 st1">C</text>
<text transform="matrix(1 0 0 1 322.4327 12.0952)" class="st0 st1">H</text>
<text transform="matrix(1 0 0 1 331.3419 13.9931)" class="st0 st2">2</text>
<polygon points="336.6,8.1 340.4,8.1 340.4,8.7 340.4,9.2 336.6,9.2 336.6,8.7 "/>
<polygon points="318.5,14.9 318.5,30.4 318,30.4 317.4,30.4 317.4,14.9 318,14.9 "/>
<polygon points="318.5,42.9 318.5,58.4 318,58.4 317.4,58.4 317.4,42.9 318,42.9 "/>
<polygon points="320.2,70.9 320.2,86.4 319.7,86.4 319.1,86.4 319.1,70.9 319.7,70.9 "/>
<polygon points="316.9,70.9 316.9,86.4 316.3,86.4 315.7,86.4 315.7,70.9 316.3,70.9 "/>
<polygon points="323.6,64.1 340.7,64.1 340.7,64.6 340.7,65.2 323.6,65.2 323.6,64.6 "/>
<polygon points="351.2,64.1 368.4,64.1 368.4,64.6 368.4,65.2 351.2,65.2 351.2,64.6 "/>
<text transform="matrix(1 0 0 1 412.251 57.8569)" class="st0 st1">+</text>
<text transform="matrix(1 0 0 1 435.6358 56.4502)" class="st3 st0 st1">C</text>
<text transform="matrix(1 0 0 1 444.546 56.4502)" class="st3 st0 st1">O</text>
<text transform="matrix(1 0 0 1 454.1426 58.3481)" class="st3 st0 st2">2</text>
<text transform="matrix(1 0 0 1 124.0039 68.2012)" class="st5 st6">α-</text>
<text transform="matrix(1 0 0 1 134.3039 68.2158)" class="st7 st6">酮戊二酸脱氢酶复合物</text>
<text transform="matrix(1 0 0 1 319.6553 116.6509)" class="st7 st6">琥珀酰</text>
<text transform="matrix(1 0 0 1 355.6553 116.6363)" class="st5 st6">CoA</text>
<text transform="matrix(1 0 0 1 9.8648 116.6359)" class="st5 st6">α-</text>
<text transform="matrix(1 0 0 1 20.1648 116.6506)" class="st7 st6">酮戊二酸</text>
</svg>
