<?xml version="1.0" encoding="utf-8"?>
<!-- Generator: Adobe Illustrator 22.0.0, SVG Export Plug-In . SVG Version: 6.00 Build 0)  -->
<svg version="1.1" id="图层_1" xmlns="http://www.w3.org/2000/svg" xmlns:xlink="http://www.w3.org/1999/xlink" x="0px" y="0px"
	 viewBox="0 0 310.6 120.4" style="enable-background:new 0 0 310.6 120.4;" xml:space="preserve">
<style type="text/css">
	.st0{font-family:'ArialMT';}
	.st1{font-size:12.355px;}
	.st2{font-size:7.6031px;}
	.st3{fill:none;stroke:#000000;stroke-width:1.1792;}
	.st4{fill:#0000FF;}
	.st5{font-family:'SimSun';}
	.st6{font-size:12px;}
</style>
<text transform="matrix(1 0 0 1 20.4386 68.2661)" class="st0 st1">C</text>
<text transform="matrix(1 0 0 1 29.3614 68.2661)" class="st0 st1">H</text>
<text transform="matrix(1 0 0 1 20.4386 12.8779)" class="st0 st1">C</text>
<text transform="matrix(1 0 0 1 29.3614 12.8779)" class="st0 st1">OO</text>
<text transform="matrix(1 0 0 1 48.5811 7.1758)" class="st0 st2">-</text>
<text transform="matrix(1 0 0 1 20.4386 96.9302)" class="st0 st1">C</text>
<text transform="matrix(1 0 0 1 29.3614 96.9302)" class="st0 st1">O</text>
<text transform="matrix(1 0 0 1 38.9718 96.9302)" class="st0 st1">O</text>
<text transform="matrix(1 0 0 1 48.5811 91.228)" class="st0 st2">-</text>
<text transform="matrix(1 0 0 1 20.4386 40.2481)" class="st0 st1">C</text>
<text transform="matrix(1 0 0 1 29.3614 40.2481)" class="st0 st1">H</text>
<polygon points="24.3,29 24.3,13.5 24.9,13.5 25.5,13.5 25.5,29 24.9,29 "/>
<polygon points="25.5,69.5 25.5,85 24.9,85 24.3,85 24.3,69.5 24.9,69.5 "/>
<polygon points="27.5,41.5 27.5,57 26.9,57 26.3,57 26.3,41.5 26.9,41.5 "/>
<polygon points="24.1,41.5 24.1,57 23.5,57 23,57 23,41.5 23.5,41.5 "/>
<line class="st3" x1="76.5" y1="48.9" x2="200.2" y2="48.9"/>
<line class="st3" x1="86" y1="52.3" x2="209.8" y2="52.3"/>
<polygon points="76.5,51.7 87.7,55.1 86,51.7 "/>
<polygon points="209.8,49.5 198.6,46.1 200.2,49.5 "/>
<path class="st3" d="M115.6,47.5c-9.8-3.5-16.4-12.7-16.4-23.1"/>
<polygon points="125,48.8 114.6,44.1 115.6,47.5 113.6,49.6 "/>
<text transform="matrix(1 0 0 1 88.3829 17.9151)" class="st4 st0 st1">H</text>
<text transform="matrix(1 0 0 1 97.3058 19.8159)" class="st4 st0 st2">2</text>
<text transform="matrix(1 0 0 1 101.5343 17.9151)" class="st4 st0 st1">O</text>
<text transform="matrix(1 0 0 1 287.794 68.2661)" class="st4 st0 st1">H</text>
<text transform="matrix(1 0 0 1 222.4933 40.2481)" class="st4 st0 st1">H</text>
<text transform="matrix(1 0 0 1 231.4151 40.2481)" class="st4 st0 st1">O</text>
<text transform="matrix(1 0 0 1 259.7765 68.2661)" class="st0 st1">C</text>
<text transform="matrix(1 0 0 1 268.6993 68.2661)" class="st0 st1">H</text>
<text transform="matrix(1 0 0 1 259.7765 12.8779)" class="st0 st1">C</text>
<text transform="matrix(1 0 0 1 268.6993 12.8779)" class="st0 st1">OO</text>
<text transform="matrix(1 0 0 1 287.919 7.1758)" class="st0 st2">-</text>
<text transform="matrix(1 0 0 1 259.7765 96.9302)" class="st0 st1">C</text>
<text transform="matrix(1 0 0 1 268.6993 96.9302)" class="st0 st1">O</text>
<text transform="matrix(1 0 0 1 278.3097 96.9302)" class="st0 st1">O</text>
<text transform="matrix(1 0 0 1 287.919 91.228)" class="st0 st2">-</text>
<text transform="matrix(1 0 0 1 259.7765 40.2481)" class="st0 st1">C</text>
<text transform="matrix(1 0 0 1 268.6993 40.2481)" class="st0 st1">H</text>
<polygon points="263.7,29 263.7,13.5 264.2,13.5 264.8,13.5 264.8,29 264.2,29 "/>
<polygon points="264.8,69.5 264.8,85 264.2,85 263.7,85 263.7,69.5 264.2,69.5 "/>
<polygon points="264.8,41.5 264.8,57 264.2,57 263.7,57 263.7,41.5 264.2,41.5 "/>
<polygon points="278.7,62.7 286.7,62.7 286.7,63.3 286.7,63.8 278.7,63.8 278.7,63.3 "/>
<polygon points="258.7,35.8 242.1,35.8 242.1,35.2 242.1,34.7 258.7,34.7 258.7,35.2 "/>
<text transform="matrix(1 0 0 1 6.9451 115.0429)" class="st5 st6">延胡索酸</text>
<text transform="matrix(1 0 0 1 115.6225 69.4933)" class="st5 st6">延胡索酸酶</text>
<text transform="matrix(1 0 0 1 246.6775 115.0425)" class="st5 st6">苹果酸</text>
</svg>
