<?xml version="1.0" encoding="utf-8"?>
<!-- Generator: Adobe Illustrator 27.0.0, SVG Export Plug-In . SVG Version: 6.00 Build 0)  -->
<svg version="1.1" id="图层_1" xmlns="http://www.w3.org/2000/svg" xmlns:xlink="http://www.w3.org/1999/xlink" x="0px" y="0px"
	 viewBox="0 0 357.6 123.9" style="enable-background:new 0 0 357.6 123.9;" xml:space="preserve">
<style type="text/css">
	.st0{font-family:'ArialMT';}
	.st1{font-size:12.3807px;}
	.st2{font-size:7.6189px;}
	.st3{fill:none;stroke:#000000;stroke-width:1.1792;}
	.st4{font-family:'SimSun';}
	.st5{font-size:12px;}
</style>
<text transform="matrix(1 0 0 1 77.2853 45.9162)" class="st0 st1">H</text>
<text transform="matrix(1 0 0 1 11.8478 45.9162)" class="st0 st1">H</text>
<text transform="matrix(1 0 0 1 20.7882 45.9162)" class="st0 st1">O</text>
<text transform="matrix(1 0 0 1 49.2091 72.3977)" class="st0 st1">C</text>
<text transform="matrix(1 0 0 1 58.1495 72.3977)" class="st0 st1">H</text>
<text transform="matrix(1 0 0 1 67.0909 74.302)" class="st0 st2">2</text>
<text transform="matrix(1 0 0 1 49.2091 18.4895)" class="st0 st1">C</text>
<text transform="matrix(1 0 0 1 58.1495 18.4895)" class="st0 st1">OO</text>
<text transform="matrix(1 0 0 1 77.4103 12.7746)" class="st0 st2">-</text>
<text transform="matrix(1 0 0 1 49.2091 102.717)" class="st0 st1">C</text>
<text transform="matrix(1 0 0 1 58.1495 102.717)" class="st0 st1">O</text>
<text transform="matrix(1 0 0 1 67.7804 102.717)" class="st0 st1">O</text>
<text transform="matrix(1 0 0 1 77.4103 97.0032)" class="st0 st2">-</text>
<text transform="matrix(1 0 0 1 49.2091 45.9162)" class="st0 st1">C</text>
<polygon points="53.1,34.7 53.1,19.1 53.7,19.1 54.2,19.1 54.2,34.7 53.7,34.7 "/>
<polygon points="54.2,75.2 54.2,90.8 53.7,90.8 53.1,90.8 53.1,75.2 53.7,75.2 "/>
<polygon points="54.2,47.1 54.2,62.7 53.7,62.7 53.1,62.7 53.1,47.1 53.7,47.1 "/>
<polygon points="48.1,41.5 31.5,41.5 31.5,40.9 31.5,40.3 48.1,40.3 48.1,40.9 "/>
<polygon points="59.3,40.3 76.2,40.3 76.2,40.9 76.2,41.5 59.3,41.5 59.3,40.9 "/>
<line class="st3" x1="92.2" y1="52.4" x2="259.8" y2="52.4"/>
<line class="st3" x1="101.8" y1="55.8" x2="269.4" y2="55.8"/>
<polygon points="92.2,55.2 103.4,58.6 101.8,55.2 "/>
<polygon points="269.4,53 258.1,49.6 259.8,53 "/>
<path class="st3" d="M214.1,27c-5.2,18.4-24.3,29.1-42.8,23.9c-14.9-4.2-25.2-17.8-25.2-33.3"/>
<polygon points="215.4,17.5 210.9,28.1 214.1,27 216.4,29 "/>
<text transform="matrix(1 0 0 1 131.5743 14.3674)" class="st0 st1">N</text>
<text transform="matrix(1 0 0 1 140.5157 14.3674)" class="st0 st1">A</text>
<text transform="matrix(1 0 0 1 148.7736 14.3674)" class="st0 st1">D</text>
<text transform="matrix(1 0 0 1 185.6001 14.0862)" class="st0 st1">N</text>
<text transform="matrix(1 0 0 1 194.5415 14.0862)" class="st0 st1">A</text>
<text transform="matrix(1 0 0 1 202.7994 14.0862)" class="st0 st1">D</text>
<text transform="matrix(1 0 0 1 211.7408 14.0862)" class="st0 st1">H</text>
<text transform="matrix(1 0 0 1 157.0565 8.3713)" class="st0 st2">+</text>
<text transform="matrix(1 0 0 1 221.6436 14.0862)" class="st0 st1">+</text>
<text transform="matrix(1 0 0 1 228.8741 14.0862)" class="st0 st1">H</text>
<text transform="matrix(1 0 0 1 237.8155 8.3713)" class="st0 st2">+</text>
<text transform="matrix(1 0 0 1 283.7589 45.7366)" class="st0 st1">O</text>
<text transform="matrix(1 0 0 1 312.1808 72.218)" class="st0 st1">C</text>
<text transform="matrix(1 0 0 1 321.1212 72.218)" class="st0 st1">H</text>
<text transform="matrix(1 0 0 1 330.0626 74.1223)" class="st0 st2">2</text>
<text transform="matrix(1 0 0 1 312.1808 18.3088)" class="st0 st1">C</text>
<text transform="matrix(1 0 0 1 321.1212 18.3088)" class="st0 st1">OO</text>
<text transform="matrix(1 0 0 1 340.382 12.595)" class="st0 st2">-</text>
<text transform="matrix(1 0 0 1 312.1808 102.5373)" class="st0 st1">C</text>
<text transform="matrix(1 0 0 1 321.1212 102.5373)" class="st0 st1">O</text>
<text transform="matrix(1 0 0 1 330.7511 102.5373)" class="st0 st1">O</text>
<text transform="matrix(1 0 0 1 340.382 96.8225)" class="st0 st2">-</text>
<text transform="matrix(1 0 0 1 312.1808 45.7366)" class="st0 st1">C</text>
<polygon points="316.1,34.5 316.1,18.9 316.7,18.9 317.2,18.9 317.2,34.5 316.7,34.5 "/>
<polygon points="317.2,75 317.2,90.6 316.7,90.6 316.1,90.6 316.1,75 316.7,75 "/>
<polygon points="317.2,47 317.2,62.6 316.7,62.6 316.1,62.6 316.1,47 316.7,47 "/>
<polygon points="311.1,43 294.5,43 294.5,42.4 294.5,41.8 311.1,41.8 311.1,42.4 "/>
<polygon points="311.1,39.6 294.5,39.6 294.5,39 294.5,38.5 311.1,38.5 311.1,39 "/>
<text transform="matrix(1 0 0 1 34.3442 119.1751)" class="st4 st5">苹果酸</text>
<text transform="matrix(1 0 0 1 145.1775 69.9746)" class="st4 st5">苹果酸脱氢酶</text>
<text transform="matrix(1 0 0 1 290.5108 119.1753)" class="st4 st5">草酰乙酸</text>
</svg>
