<?xml version="1.0" encoding="utf-8"?>
<!-- Generator: Adobe Illustrator 27.0.0, SVG Export Plug-In . SVG Version: 6.00 Build 0)  -->
<svg version="1.1" id="图层_1" xmlns="http://www.w3.org/2000/svg" xmlns:xlink="http://www.w3.org/1999/xlink" x="0px" y="0px"
	 viewBox="0 0 506.3 383.9" style="enable-background:new 0 0 506.3 383.9;" xml:space="preserve">
<style type="text/css">
	.st0{fill:#DFEFFF;}
	.st1{fill:#DFFFF1;}
	.st2{font-family:'ArialMT';}
	.st3{font-size:12.6903px;}
	.st4{font-size:7.8094px;}
	.st5{fill:#0000FF;}
	.st6{fill:#FF0000;}
	.st7{fill:none;stroke:#082E54;stroke-width:6;stroke-miterlimit:10;}
	.st8{fill:#082E54;}
	.st9{fill:none;stroke:#0000FF;stroke-miterlimit:10;}
	.st10{fill:none;stroke:#FF0000;stroke-miterlimit:10;}
</style>
<g id="图层_2_00000159433589393357053390000000412123863345872310_">
	<path class="st0" d="M472.3,4.3H34.1c-10.2,0-18.5,8.3-18.5,18.5v104.7c0,10.2,8.3,18.5,18.5,18.5h438.2c10.2,0,18.5-8.3,18.5-18.5
		V22.8C490.8,12.6,482.6,4.3,472.3,4.3z"/>
	<path class="st1" d="M381.3,216.8H24.2c-10.2,0-18.5,8.3-18.5,18.5V340c0,10.2,8.3,18.5,18.5,18.5h357.1c10.2,0,18.5-8.3,18.5-18.5
		V235.3C399.8,225.1,391.5,216.8,381.3,216.8z"/>
	<path class="st1" d="M483.3,216.8h-60.9c-10.2,0-18.5,8.3-18.5,18.5V340c0,10.2,8.3,18.5,18.5,18.5h60.9c10.2,0,18.5-8.3,18.5-18.5
		V235.3C501.7,225.1,493.5,216.8,483.3,216.8z"/>
</g>
<g id="图层_1_00000064336004872293035280000000823290422728513934_">
	<polygon points="178.6,69.1 196.6,56.2 197,56.6 197.3,57.1 179.3,70 178.6,69.8 	"/>
	<text transform="matrix(1 0 0 1 197.111 58.1726)" class="st2 st3">O</text>
	<polygon points="207.3,56.2 225.2,69.4 225.2,70.1 224.5,70.3 206.6,57.2 207,56.7 	"/>
	<polygon points="225.6,70.5 216.7,97.4 216.1,97.4 215.6,96.8 224.5,70.3 225.2,70.1 	"/>
	<polygon points="215.7,98 187.6,97.8 187.3,97.2 187.7,96.6 215.6,96.8 216.1,97.4 	"/>
	<polygon points="186.7,97.1 178.1,70.1 178.6,69.8 179.3,70 187.7,96.6 187.3,97.2 	"/>
	<polygon points="216.7,97.4 228.2,117.3 227.7,117.5 227.2,117.8 215.7,98 216.1,97.4 	"/>
	<text transform="matrix(1 0 0 1 225.5485 127.489)" class="st2 st3">O</text>
	<text transform="matrix(1 0 0 1 235.4196 127.489)" class="st2 st3">H</text>
	<polygon points="187.6,97.8 176.2,117.6 175.7,117.3 175.2,117 186.7,97.1 187.3,97.2 	"/>
	<text transform="matrix(1 0 0 1 158.8307 127.2679)" class="st2 st3">H</text>
	<text transform="matrix(1 0 0 1 167.9948 127.2679)" class="st2 st3">O</text>
	<polygon points="178.1,70.1 158.5,58.8 158.8,58.3 159.1,57.9 178.6,69.1 178.6,69.8 	"/>
	<text transform="matrix(1 0 0 1 149.1325 60.5193)" class="st2 st3">N</text>
	<polygon points="148.4,58.3 127.9,67.5 127.4,67.1 127.5,66.4 147.9,57.3 148.2,57.8 	"/>
	<polygon points="107.8,45.2 118.7,26.2 119.2,26.5 119.7,26.8 108.8,45.6 108.1,45.7 	"/>
	<text transform="matrix(1 0 0 1 117.9748 25.9158)" class="st2 st3">N</text>
	<polygon points="151.2,26.3 153.6,48.9 153,49 152.4,49 150.1,27.2 150.7,26.7 	"/>
	<polygon points="128.4,21.4 151.2,26.3 150.7,26.7 150.1,27.2 128.1,22.5 128.2,22 	"/>
	<polygon points="127.7,24.8 147.6,29 147.5,29.6 147.4,30.2 127.4,25.9 127.5,25.4 	"/>
	<polygon points="112.9,96.2 90.1,101.1 90.3,100.4 90.5,99.8 112.6,95.1 112.8,95.7 	"/>
	<text transform="matrix(1 0 0 1 66.5436 84.1913)" class="st2 st3">N</text>
	<polygon points="72.6,72.5 79.3,51.8 80,51.7 80.4,52.2 73.7,72.8 73.2,72.6 	"/>
	<polygon points="108.8,45.6 127.5,66.4 127.4,67.1 126.7,67.2 107.9,46.3 108.1,45.7 	"/>
	<polygon points="80.2,51 107.8,45.2 108.1,45.7 107.9,46.3 80.4,52.2 80,51.7 	"/>
	<polygon points="82.5,54.1 106.8,48.9 106.9,49.5 107,50 82.8,55.2 82.6,54.6 	"/>
	<polygon points="127.9,67.5 121.1,88.2 120.6,88 120,87.9 126.7,67.2 127.4,67.1 	"/>
	<polygon points="124,68.1 117.8,87.2 117.3,87 116.7,86.8 122.9,67.7 123.5,67.9 	"/>
	<text transform="matrix(1 0 0 1 113.9489 99.594)" class="st2 st3">N</text>
	<polygon points="79.3,51.8 62.8,35.3 63.2,34.9 63.6,34.5 80.2,51 80,51.7 	"/>
	<text transform="matrix(1 0 0 1 41.6911 34.8377)" class="st2 st3">H</text>
	<text transform="matrix(1 0 0 1 50.8556 36.7903)" class="st2 st4">2</text>
	<text transform="matrix(1 0 0 1 55.1989 34.8377)" class="st2 st3">N</text>
	<polygon points="90.1,101.1 74.8,84 75.2,83.6 75.6,83.2 90.5,99.8 90.3,100.4 	"/>
	<polygon points="91.1,97 77.3,81.7 77.8,81.3 78.2,80.9 92,96.2 91.6,96.6 	"/>
	<polygon points="225.2,69.4 245.6,57.6 245.9,58.1 246.2,58.6 225.6,70.5 225.2,70.1 	"/>
	<text transform="matrix(1 0 0 1 245.5397 45.5471)" class="st2 st3">H</text>
	<text transform="matrix(1 0 0 1 254.7038 47.4998)" class="st2 st4">2</text>
	<text transform="matrix(1 0 0 1 245.5397 59.5735)" class="st2 st3">C</text>
	<polygon points="254.5,57.6 269.9,66.5 269.6,67 269.3,67.5 254,58.6 254.2,58.1 	"/>
	<text transform="matrix(1 0 0 1 270.1071 75.2659)" class="st2 st3">O</text>
	<polygon points="281.1,69.5 298.4,69.5 298.4,70.1 298.4,70.7 281.1,70.7 281.1,70.1 	"/>
	<text transform="matrix(1 0 0 1 299.5895 75.2659)" class="st2 st3">P</text>
	<polygon points="301.5,63.7 301.5,47.7 302.1,47.7 302.6,47.7 302.6,63.7 302.1,63.7 	"/>
	<polygon points="304.9,63.7 304.9,47.7 305.5,47.7 306.1,47.7 306.1,63.7 305.5,63.7 	"/>
	<text transform="matrix(1 0 0 1 298.8854 46.4881)" class="st2 st3">O</text>
	<polygon points="304.4,76.5 304.4,92.5 303.8,92.5 303.2,92.5 303.2,76.5 303.8,76.5 	"/>
	<text transform="matrix(1 0 0 1 298.8854 104.0437)" class="st2 st3">O</text>
	<text transform="matrix(1 0 0 1 308.7555 104.0437)" class="st2 st3">H</text>
	<polygon points="309.2,69.5 326.5,69.5 326.5,70.1 326.5,70.7 309.2,70.7 309.2,70.1 	"/>
	<text transform="matrix(1 0 0 1 327.6627 75.2659)" class="st2 st3">O</text>
	<polygon points="338.6,69.5 356,69.5 356,70.1 356,70.7 338.6,70.7 338.6,70.1 	"/>
	<text transform="matrix(1 0 0 1 357.1452 75.2659)" class="st2 st3">P</text>
	<polygon points="359,63.7 359,47.7 359.6,47.7 360.2,47.7 360.2,63.7 359.6,63.7 	"/>
	<polygon points="362.5,63.7 362.5,47.7 363.1,47.7 363.6,47.7 363.6,63.7 363.1,63.7 	"/>
	<text transform="matrix(1 0 0 1 356.4411 46.4881)" class="st2 st3">O</text>
	<polygon points="361.9,76.5 361.9,92.5 361.3,92.5 360.8,92.5 360.8,76.5 361.3,76.5 	"/>
	<text transform="matrix(1 0 0 1 356.4411 104.0437)" class="st2 st3">O</text>
	<text transform="matrix(1 0 0 1 366.3122 104.0437)" class="st2 st3">H</text>
	<polygon points="366.7,69.5 384,69.5 384,70.1 384,70.7 366.7,70.7 366.7,70.1 	"/>
	<text transform="matrix(1 0 0 1 385.2194 75.2659)" class="st2 st3">O</text>
	<polygon points="396.2,69.5 413.5,69.5 413.5,70.1 413.5,70.7 396.2,70.7 396.2,70.1 	"/>
	<text transform="matrix(1 0 0 1 414.7018 75.2659)" class="st2 st3">P</text>
	<polygon points="416.6,63.7 416.6,47.7 417.2,47.7 417.7,47.7 417.7,63.7 417.2,63.7 	"/>
	<polygon points="420,63.7 420,47.7 420.6,47.7 421.2,47.7 421.2,63.7 420.6,63.7 	"/>
	<text transform="matrix(1 0 0 1 413.9967 46.4881)" class="st2 st3">O</text>
	<polygon points="419.5,76.5 419.5,92.5 418.9,92.5 418.3,92.5 418.3,76.5 418.9,76.5 	"/>
	<text transform="matrix(1 0 0 1 413.9967 104.0437)" class="st2 st3">O</text>
	<text transform="matrix(1 0 0 1 423.8678 104.0437)" class="st2 st3">H</text>
	<polygon points="424.3,69.5 441.6,69.5 441.6,70.1 441.6,70.7 424.3,70.7 424.3,70.1 	"/>
	<text transform="matrix(1 0 0 1 442.7751 75.2659)" class="st2 st3">O</text>
	<text transform="matrix(1 0 0 1 452.6461 75.2659)" class="st2 st3">H</text>
	<text transform="matrix(1 0 0 1 194.9528 345.0873)" class="st2 st3">O</text>
	<text transform="matrix(1 0 0 1 204.8239 345.0873)" class="st2 st3">H</text>
	<text transform="matrix(1 0 0 1 166.5153 275.7714)" class="st2 st3">O</text>
	<text transform="matrix(1 0 0 1 35.9479 301.7896)" class="st2 st3">N</text>
	<text transform="matrix(1 0 0 1 83.3532 317.1929)" class="st2 st3">N</text>
	<text transform="matrix(1 0 0 1 128.235 344.8666)" class="st2 st3">H</text>
	<text transform="matrix(1 0 0 1 137.3991 344.8666)" class="st2 st3">O</text>
	<text transform="matrix(1 0 0 1 87.379 243.5146)" class="st2 st3">N</text>
	<text transform="matrix(1 0 0 1 11.0954 252.4364)" class="st2 st3">H</text>
	<text transform="matrix(1 0 0 1 20.2599 254.3892)" class="st2 st4">2</text>
	<text transform="matrix(1 0 0 1 24.6032 252.4364)" class="st2 st3">N</text>
	<text transform="matrix(1 0 0 1 118.5358 278.1182)" class="st2 st3">N</text>
	<text transform="matrix(1 0 0 1 354.6227 292.8647)" class="st2 st3">O</text>
	<text transform="matrix(1 0 0 1 214.944 263.1459)" class="st2 st3">H</text>
	<text transform="matrix(1 0 0 1 224.108 265.0985)" class="st2 st4">2</text>
	<text transform="matrix(1 0 0 1 214.944 277.1724)" class="st2 st3">C</text>
	<text transform="matrix(1 0 0 1 239.5114 292.8647)" class="st2 st3">O</text>
	<text transform="matrix(1 0 0 1 268.9938 292.8647)" class="st2 st3">P</text>
	<text transform="matrix(1 0 0 1 268.2897 264.0868)" class="st2 st3">O</text>
	<text transform="matrix(1 0 0 1 268.2897 321.6431)" class="st2 st3">O</text>
	<text transform="matrix(1 0 0 1 278.1598 321.6431)" class="st2 st3">H</text>
	<text transform="matrix(1 0 0 1 297.067 292.8647)" class="st2 st3">O</text>
	<text transform="matrix(1 0 0 1 326.5494 292.8647)" class="st2 st3">P</text>
	<text transform="matrix(1 0 0 1 325.8453 264.0868)" class="st2 st3">O</text>
	<text transform="matrix(1 0 0 1 325.8453 321.6431)" class="st2 st3">O</text>
	<text transform="matrix(1 0 0 1 335.7164 321.6431)" class="st2 st3">H</text>
	<polygon points="97.8,239 120.6,243.8 120.1,244.3 119.6,244.8 97.6,240.1 97.7,239.6 	"/>
	<polygon points="97.1,242.4 117.1,246.6 116.9,247.2 116.8,247.7 96.9,243.5 97,242.9 	"/>
	<polygon points="82.3,313.8 59.6,318.6 59.8,318 60,317.4 82.1,312.7 82.2,313.2 	"/>
	<polygon points="42.1,290 48.8,269.4 49.4,269.2 49.9,269.7 43.2,290.4 42.6,290.2 	"/>
	<polygon points="49.6,268.6 77.2,262.8 77.6,263.3 77.4,263.9 49.9,269.7 49.4,269.2 	"/>
	<polygon points="52,271.6 76.2,266.5 76.3,267.1 76.5,267.6 52.2,272.8 52.1,272.2 	"/>
	<polygon points="97.3,285.1 90.6,305.8 90,305.6 89.5,305.4 96.2,284.8 96.8,284.7 	"/>
	<polygon points="93.5,285.7 87.3,304.7 86.7,304.6 86.2,304.4 92.4,285.3 92.9,285.5 	"/>
	<polygon points="48.8,269.4 32.3,252.9 32.7,252.5 33.1,252.1 49.6,268.6 49.4,269.2 	"/>
	<polygon points="148,286.7 166.1,273.7 166.4,274.2 166.7,274.7 148.7,287.6 148,287.3 	"/>
	<polygon points="59.6,318.6 44.2,301.6 44.6,301.2 45.1,300.8 60,317.4 59.8,318 	"/>
	<polygon points="60.6,314.6 46.8,299.2 47.2,298.9 47.6,298.5 61.4,313.8 61,314.2 	"/>
	<polygon points="194.6,287 215.1,275.2 215.4,275.7 215.6,276.2 195.1,288.1 194.6,287.7 	"/>
	<polygon points="176.8,273.8 194.6,287 194.6,287.7 193.9,287.9 176.1,274.7 176.4,274.3 	"/>
	<polygon points="224,275.2 239.3,284.1 239.1,284.6 238.8,285.1 223.4,276.2 223.7,275.7 	"/>
	<polygon points="195.1,288.1 186.1,314.9 185.5,315 185.1,314.4 193.9,287.9 194.6,287.7 	"/>
	<polygon points="250.5,287.1 267.8,287.1 267.8,287.7 267.8,288.3 250.5,288.3 250.5,287.7 	"/>
	<polygon points="185.2,315.6 157.1,315.3 156.7,314.8 157.1,314.2 185.1,314.4 185.5,315 	"/>
	<polygon points="270.9,281.3 270.9,265.3 271.5,265.3 272.1,265.3 272.1,281.3 271.5,281.3 	"/>
	<polygon points="274.4,281.3 274.4,265.3 275,265.3 275.5,265.3 275.5,281.3 275,281.3 	"/>
	<polygon points="156.1,314.7 147.6,287.7 148,287.3 148.7,287.6 157.1,314.2 156.7,314.8 	"/>
	<polygon points="273.8,294.1 273.8,310.1 273.2,310.1 272.6,310.1 272.6,294.1 273.2,294.1 	"/>
	<polygon points="278.6,287.1 295.9,287.1 295.9,287.7 295.9,288.3 278.6,288.3 278.6,287.7 	"/>
	<polygon points="186.1,314.9 197.6,334.8 197.1,335.1 196.6,335.4 185.2,315.6 185.5,315 	"/>
	<polygon points="308.1,287.1 325.4,287.1 325.4,287.7 325.4,288.3 308.1,288.3 308.1,287.7 	"/>
	<polygon points="328.5,281.3 328.5,265.3 329.1,265.3 329.6,265.3 329.6,281.3 329.1,281.3 	"/>
	<polygon points="331.9,281.3 331.9,265.3 332.5,265.3 333.1,265.3 333.1,281.3 332.5,281.3 	"/>
	<polygon points="157.1,315.3 145.6,335.2 145.1,334.9 144.6,334.6 156.1,314.7 156.7,314.8 	"/>
	<polygon points="331.4,294.1 331.4,310.1 330.8,310.1 330.2,310.1 330.2,294.1 330.8,294.1 	"/>
	<polygon points="336.2,287.1 353.5,287.1 353.5,287.7 353.5,288.3 336.2,288.3 336.2,287.7 	"/>
	<polygon points="78.3,263.2 97,284 96.8,284.7 96.2,284.8 77.4,263.9 77.6,263.3 	"/>
	<polygon points="147.6,287.7 128,276.4 128.3,275.9 128.6,275.4 148,286.7 148,287.3 	"/>
	<polygon points="117.8,275.9 97.3,285.1 96.8,284.7 97,284 117.4,274.9 117.6,275.4 	"/>
	<polygon points="77.2,262.8 88.1,243.8 88.6,244.1 89.1,244.4 78.3,263.2 77.6,263.3 	"/>
	<polygon points="120.6,243.8 123,266.5 122.4,266.5 121.9,266.6 119.6,244.8 120.1,244.3 	"/>
	<polygon points="365.6,287.1 382.6,287.1 382.6,287.7 382.6,288.3 365.6,288.3 365.6,287.7 	"/>
	<text transform="matrix(1 0 0 1 383.7555 292.8647)" class="st5 st2 st3">H</text>
	<text transform="matrix(1 0 0 1 410.096 292.8651)" class="st6 st2 st3">H</text>
	<text transform="matrix(1 0 0 1 419.261 292.8651)" class="st6 st2 st3">O</text>
	<text transform="matrix(1 0 0 1 448.7415 292.8651)" class="st2 st3">P</text>
	<text transform="matrix(1 0 0 1 448.0374 264.0868)" class="st2 st3">O</text>
	<text transform="matrix(1 0 0 1 448.0374 321.6425)" class="st2 st3">O</text>
	<text transform="matrix(1 0 0 1 457.9075 321.6425)" class="st2 st3">H</text>
	<text transform="matrix(1 0 0 1 476.8148 292.8651)" class="st2 st3">O</text>
	<text transform="matrix(1 0 0 1 486.6859 292.8651)" class="st2 st3">H</text>
	<polygon points="430.3,287.1 447.6,287.1 447.6,287.7 447.6,288.3 430.3,288.3 430.3,287.7 	"/>
	<polygon points="450.7,281.3 450.7,265.3 451.2,265.3 451.8,265.3 451.8,281.3 451.2,281.3 	"/>
	<polygon points="454.1,281.3 454.1,265.3 454.7,265.3 455.3,265.3 455.3,281.3 454.7,281.3 	"/>
	<polygon points="453.5,294.1 453.5,310.1 453,310.1 452.4,310.1 452.4,294.1 453,294.1 	"/>
	<polygon points="458.4,287.1 475.7,287.1 475.7,287.7 475.7,288.3 458.4,288.3 458.4,287.7 	"/>
	<text transform="matrix(1 0 0 1 414.4445 137.9881)" class="st6 st2 st3">O</text>
	<text transform="matrix(1 0 0 1 424.3156 137.9881)" class="st6 st2 st3">H</text>
	<polygon points="413.3,133.4 396.3,133.4 396.3,132.8 396.3,132.3 413.3,132.3 413.3,132.8 	"/>
	<text transform="matrix(1 0 0 1 386.0216 137.9881)" class="st5 st2 st3">H</text>
	<g>
		<g>
			<line class="st7" x1="253.2" y1="175.2" x2="253.2" y2="190.6"/>
			<g>
				<path class="st8" d="M253.2,208.7c-3.2-8.5-8.6-19.1-14.3-25.6l14.3,5.2l14.3-5.2C261.7,189.6,256.3,200.2,253.2,208.7z"/>
			</g>
		</g>
	</g>
	<g>
		<g>
			<path class="st9" d="M395.4,126.8c5.3-13.8,4.4-32.4,0.1-42.8"/>
			<g>
				<path class="st5" d="M392.5,78.7c2.3,2,5.6,4.2,8.3,5.1l-5,0.8l-3.3,3.8C393.1,85.7,393,81.7,392.5,78.7z"/>
			</g>
		</g>
	</g>
	<g>
		<g>
			<path class="st10" d="M412.7,126.2c-7.3-13.6-5.4-35.8-2.7-46.5"/>
			<g>
				<path class="st6" d="M412.1,74.1c0,3,0.5,7,1.6,9.7l-3.9-3.2h-5.1C407.3,79.1,410.2,76.4,412.1,74.1z"/>
			</g>
		</g>
	</g>
</g>
</svg>
