<?xml version="1.0" encoding="utf-8"?>
<!-- Generator: Adobe Illustrator 22.0.0, SVG Export Plug-In . SVG Version: 6.00 Build 0)  -->
<svg version="1.1" id="图层_1" xmlns="http://www.w3.org/2000/svg" xmlns:xlink="http://www.w3.org/1999/xlink" x="0px" y="0px"
	 viewBox="0 0 105.1 10.7" style="enable-background:new 0 0 105.1 10.7;" xml:space="preserve">
<style type="text/css">
	.st0{font-family:'TimesNewRomanPSMT';}
	.st1{font-size:9.3946px;}
	.st2{font-family:'ArialMT';}
	.st3{font-size:5.7813px;}
</style>
<text transform="matrix(1 0 0 1 1.5012 8.6389)" class="st0 st1">R</text>
<text transform="matrix(1 0 0 1 7.7674 8.6389)" class="st0 st1">=</text>
<text transform="matrix(1 0 0 1 33.2122 7.9998)" class="st2 st1">C</text>
<text transform="matrix(1 0 0 1 39.9964 7.9998)" class="st2 st1">H</text>
<text transform="matrix(1 0 0 1 46.781 9.4456)" class="st2 st3">2</text>
<text transform="matrix(1 0 0 1 54.5164 7.9998)" class="st2 st1">C</text>
<text transform="matrix(1 0 0 1 61.301 7.9998)" class="st2 st1">H</text>
<text transform="matrix(1 0 0 1 68.0852 9.4456)" class="st2 st3">2</text>
<text transform="matrix(1 0 0 1 76.0794 8.2102)" class="st2 st1">S</text>
<text transform="matrix(1 0 0 1 87.7307 7.9998)" class="st2 st1">C</text>
<text transform="matrix(1 0 0 1 94.5149 7.9998)" class="st2 st1">H</text>
<text transform="matrix(1 0 0 1 101.2991 9.4456)" class="st2 st3">3</text>
<polygon points="15.3,5 32.4,5 32.4,5.4 32.4,5.8 15.3,5.8 15.3,5.4 "/>
<polygon points="50.8,5 53.7,5 53.7,5.4 53.7,5.8 50.8,5.8 50.8,5.4 "/>
<polygon points="72.1,5 75.2,5 75.2,5.4 75.2,5.8 72.1,5.8 72.1,5.4 "/>
<polygon points="83.2,5 86.9,5 86.9,5.4 86.9,5.8 83.2,5.8 83.2,5.4 "/>
</svg>
