<?xml version="1.0" encoding="utf-8"?>
<!-- Generator: Adobe Illustrator 22.0.0, SVG Export Plug-In . SVG Version: 6.00 Build 0)  -->
<svg version="1.1" id="图层_1" xmlns="http://www.w3.org/2000/svg" xmlns:xlink="http://www.w3.org/1999/xlink" x="0px" y="0px"
	 viewBox="0 0 82.3 10" style="enable-background:new 0 0 82.3 10;" xml:space="preserve">
<style type="text/css">
	.st0{font-family:'TimesNewRomanPSMT';}
	.st1{font-size:9.3946px;}
	.st2{font-family:'ArialMT';}
	.st3{font-size:5.7813px;}
</style>
<text transform="matrix(1 0 0 1 0.998 8.6389)" class="st0 st1">R</text>
<text transform="matrix(1 0 0 1 7.2646 8.6389)" class="st0 st1">=</text>
<text transform="matrix(1 0 0 1 32.7089 7.9998)" class="st2 st1">C</text>
<text transform="matrix(1 0 0 1 39.4936 7.9998)" class="st2 st1">H</text>
<text transform="matrix(1 0 0 1 46.2783 9.4456)" class="st2 st3">2</text>
<text transform="matrix(1 0 0 1 54.0136 8.2102)" class="st2 st1">C</text>
<text transform="matrix(1 0 0 1 60.7978 8.2102)" class="st2 st1">O</text>
<text transform="matrix(1 0 0 1 68.1054 8.2102)" class="st2 st1">O</text>
<text transform="matrix(1 0 0 1 75.413 8.2102)" class="st2 st1">H</text>
<polygon points="14.8,5 31.9,5 31.9,5.4 31.9,5.8 14.8,5.8 14.8,5.4 "/>
<polygon points="50.3,5 53.2,5 53.2,5.4 53.2,5.8 50.3,5.8 50.3,5.4 "/>
</svg>
