<?xml version="1.0" standalone='no'?><!-- IBoard SVG File --><svg xmlns="http://www.w3.org/2000/svg" xmlns:xlink="http://www.w3.org/1999/xlink" viewBox="623.96 23.33 181.72 72.40" height="65.40" width="188.72" version="1.1"><!-- SVG File --><text xml:space="preserve" x="623.961731" y="59.598019" textLength="16.000000" lengthAdjust="spacingAndGlyphs"><tspan font-family="Times New Roman" font-weight="normal" baseline-shift="0" font-size="13" fill="#000000">R</tspan><tspan font-family="Times New Roman" font-weight="normal" baseline-shift="0" font-size="13" fill="#000000">=</tspan></text><text xml:space="preserve" x="665.620117" y="58.115540" textLength="23.110001" lengthAdjust="spacingAndGlyphs"><tspan font-family="Arial" font-weight="normal" baseline-shift="0" font-size="13" fill="#000000">C</tspan><tspan font-family="Arial" font-weight="normal" baseline-shift="0" font-size="13" fill="#000000">H</tspan><tspan font-family="Arial" font-weight="normal" baseline-shift="-2" font-size="8" fill="#000000">2</tspan></text><text xml:space="preserve" x="783.177979" y="59.789986" textLength="19.500000" lengthAdjust="spacingAndGlyphs"><tspan font-family="Arial" font-weight="normal" baseline-shift="0" font-size="13" fill="#000000">O</tspan><tspan font-family="Arial" font-weight="normal" baseline-shift="0" font-size="13" fill="#000000">H</tspan></text><polygon points="640.833191,53.935410 664.440918,53.935410 664.440918,54.525017 664.440918,55.114624 640.833191,55.114624 640.833191,54.525017 " style="fill:rgb(0,0,0);fill-opacity:1.000000"/><polygon points="689.909302,53.935410 699.453369,53.935410 699.793762,54.525017 699.453369,55.114624 689.909302,55.114624 689.909302,54.525017 " style="fill:rgb(0,0,0);fill-opacity:1.000000"/><polygon points="699.453369,53.935410 714.193542,28.404697 714.533936,28.994305 714.874329,29.583912 700.474609,54.524998 699.793762,54.525017 " style="fill:rgb(0,0,0);fill-opacity:1.000000"/><polygon points="714.193542,28.404697 744.354614,28.404720 744.014221,28.994326 743.673828,29.583931 714.874329,29.583912 714.533936,28.994305 " style="fill:rgb(0,0,0);fill-opacity:1.000000"/><polygon points="716.576416,31.942337 741.971741,31.942356 741.971741,32.531963 741.971741,33.121571 716.576416,33.121552 716.576416,32.531944 " style="fill:rgb(0,0,0);fill-opacity:1.000000"/><polygon points="744.354614,28.404720 759.094727,53.935425 758.754333,54.525032 758.073486,54.525013 743.673828,29.583931 744.014221,28.994326 " style="fill:rgb(0,0,0);fill-opacity:1.000000"/><polygon points="759.094727,55.114639 744.354614,80.645332 744.014221,80.055725 743.673828,79.466118 758.073486,54.525032 758.754333,54.525032 " style="fill:rgb(0,0,0);fill-opacity:1.000000"/><polygon points="755.180054,54.819832 742.482422,76.812912 741.971802,76.518112 741.461182,76.223312 754.158813,54.230232 754.669434,54.525032 " style="fill:rgb(0,0,0);fill-opacity:1.000000"/><polygon points="744.354614,80.645332 714.193481,80.645309 714.533875,80.055702 714.874268,79.466095 743.673828,79.466118 744.014221,80.055725 " style="fill:rgb(0,0,0);fill-opacity:1.000000"/><polygon points="714.193481,80.645309 699.453369,55.114624 699.793762,54.525017 700.474609,54.525017 714.874268,79.466095 714.533875,80.055702 " style="fill:rgb(0,0,0);fill-opacity:1.000000"/><polygon points="716.065674,76.812889 703.368042,54.819824 703.878662,54.525021 704.389282,54.230217 717.086914,76.223289 716.576294,76.518089 " style="fill:rgb(0,0,0);fill-opacity:1.000000"/><polygon points="759.094727,53.935425 781.998779,53.935425 781.998779,54.525032 781.998779,55.114639 759.094727,55.114639 758.754333,54.525032 " style="fill:rgb(0,0,0);fill-opacity:1.000000"/></svg>