<?xml version="1.0" encoding="utf-8"?>
<!-- Generator: Adobe Illustrator 22.0.0, SVG Export Plug-In . SVG Version: 6.00 Build 0)  -->
<svg version="1.1" id="图层_1" xmlns="http://www.w3.org/2000/svg" xmlns:xlink="http://www.w3.org/1999/xlink" x="0px" y="0px"
	 viewBox="0 0 67.5 10.4" style="enable-background:new 0 0 67.5 10.4;" xml:space="preserve">
<style type="text/css">
	.st0{font-family:'TimesNewRomanPSMT';}
	.st1{font-size:9.3946px;}
	.st2{font-family:'ArialMT';}
	.st3{font-size:5.7813px;}
</style>
<text transform="matrix(1 0 0 1 0.125 8.6389)" class="st0 st1">R</text>
<text transform="matrix(1 0 0 1 6.3916 8.6389)" class="st0 st1">=</text>
<text transform="matrix(1 0 0 1 31.8359 7.9998)" class="st2 st1">C</text>
<text transform="matrix(1 0 0 1 38.6201 7.9998)" class="st2 st1">H</text>
<text transform="matrix(1 0 0 1 45.4053 9.4456)" class="st2 st3">2</text>
<text transform="matrix(1 0 0 1 52.8779 8.2102)" class="st2 st1">O</text>
<text transform="matrix(1 0 0 1 60.1851 8.2102)" class="st2 st1">H</text>
<polygon points="13.9,5 31,5 31,5.4 31,5.8 13.9,5.8 13.9,5.4 "/>
<polygon points="49.4,5 52,5 52,5.4 52,5.8 49.4,5.8 49.4,5.4 "/>
</svg>
