<?xml version="1.0" standalone='no'?><!-- IBoard SVG File --><svg xmlns="http://www.w3.org/2000/svg" xmlns:xlink="http://www.w3.org/1999/xlink" viewBox="623.96 34.56 169.93 86.45" height="79.45" width="176.93" version="1.1"><!-- SVG File --><text xml:space="preserve" x="623.961731" y="59.598019" textLength="16.000000" lengthAdjust="spacingAndGlyphs"><tspan font-family="Times New Roman" font-weight="normal" baseline-shift="0" font-size="13" fill="#000000">R</tspan><tspan font-family="Times New Roman" font-weight="normal" baseline-shift="0" font-size="13" fill="#000000">=</tspan></text><text xml:space="preserve" x="665.620117" y="58.115540" textLength="23.110001" lengthAdjust="spacingAndGlyphs"><tspan font-family="Arial" font-weight="normal" baseline-shift="0" font-size="13" fill="#000000">C</tspan><tspan font-family="Arial" font-weight="normal" baseline-shift="0" font-size="13" fill="#000000">H</tspan><tspan font-family="Arial" font-weight="normal" baseline-shift="-2" font-size="8" fill="#000000">2</tspan></text><text xml:space="preserve" x="695.100464" y="59.789970" textLength="9.386666" lengthAdjust="spacingAndGlyphs"><tspan font-family="Arial" font-weight="normal" baseline-shift="0" font-size="13" fill="#000000">C</tspan></text><polygon points="700.383362,83.801025 712.131104,98.714264 711.667969,99.079117 711.204834,99.443970 699.204163,84.209641 699.793762,84.005333 " style="fill:rgb(0,0,0);fill-opacity:1.000000"/><polygon points="734.302002,85.210869 722.652954,99.452415 722.196594,99.079117 721.740234,98.705818 733.573303,84.239334 734.162903,84.449738 " style="fill:rgb(0,0,0);fill-opacity:1.000000"/><polygon points="640.833191,53.935410 664.440918,53.935410 664.440918,54.525017 664.440918,55.114624 640.833191,55.114624 640.833191,54.525017 " style="fill:rgb(0,0,0);fill-opacity:1.000000"/><polygon points="689.909302,53.935410 693.921265,53.935410 693.921265,54.525017 693.921265,55.114624 689.909302,55.114624 689.909302,54.525017 " style="fill:rgb(0,0,0);fill-opacity:1.000000"/><polygon points="705.673950,54.011398 734.008484,54.377804 734.162903,54.969456 733.573303,55.551487 705.658691,55.190514 705.666321,54.600956 " style="fill:rgb(0,0,0);fill-opacity:1.000000"/><polygon points="703.921021,61.082008 703.921021,82.779312 703.331421,82.779312 702.741821,82.779312 702.741821,61.082008 703.331421,61.082008 " style="fill:rgb(0,0,0);fill-opacity:1.000000"/><polygon points="700.383362,61.082008 700.383362,83.801025 699.793762,84.005333 699.204163,84.209641 699.204163,61.082008 699.793762,61.082008 " style="fill:rgb(0,0,0);fill-opacity:1.000000"/><text xml:space="preserve" x="712.139832" y="110.901062" textLength="18.773333" lengthAdjust="spacingAndGlyphs"><tspan font-family="Arial" font-weight="normal" baseline-shift="0" font-size="13" fill="#000000">N</tspan><tspan font-family="Arial" font-weight="normal" baseline-shift="0" font-size="13" fill="#000000">H</tspan></text><polygon points="734.008484,54.377804 759.693542,39.548523 759.693542,40.229340 759.693542,40.910156 734.752502,55.309864 734.162903,54.969456 " style="fill:rgb(0,0,0);fill-opacity:1.000000"/><polygon points="759.693542,39.548523 785.813965,54.629036 785.224365,54.969452 784.634766,55.309868 759.693542,40.910156 759.693542,40.229340 " style="fill:rgb(0,0,0);fill-opacity:1.000000"/><polygon points="759.988342,43.803627 781.981506,56.501293 781.686707,57.011909 781.391907,57.522526 759.398743,44.824860 759.693542,44.314243 " style="fill:rgb(0,0,0);fill-opacity:1.000000"/><polygon points="785.813965,54.629036 785.813843,84.790146 785.224243,84.449738 784.634644,84.109329 784.634766,55.309868 785.224365,54.969452 " style="fill:rgb(0,0,0);fill-opacity:1.000000"/><polygon points="785.813843,84.790146 759.693542,99.870728 759.693542,99.189911 759.693542,98.509094 784.634644,84.109329 785.224243,84.449738 " style="fill:rgb(0,0,0);fill-opacity:1.000000"/><polygon points="781.981445,82.917900 759.988342,95.615623 759.693542,95.105011 759.398743,94.594398 781.391846,81.896675 781.686646,82.407288 " style="fill:rgb(0,0,0);fill-opacity:1.000000"/><polygon points="759.693542,99.870728 734.302002,85.210869 734.162903,84.449738 734.752502,84.109329 759.693542,98.509094 759.693542,99.189911 " style="fill:rgb(0,0,0);fill-opacity:1.000000"/><polygon points="733.573303,84.239334 733.573303,55.551487 734.162903,54.969456 734.752502,55.309864 734.752502,84.109329 734.162903,84.449738 " style="fill:rgb(0,0,0);fill-opacity:1.000000"/><polygon points="737.110962,82.407272 737.110962,57.011921 737.700562,57.011921 738.290161,57.011921 738.290161,82.407272 737.700562,82.407272 " style="fill:rgb(0,0,0);fill-opacity:1.000000"/></svg>