<?xml version="1.0" encoding="utf-8"?>
<!-- Generator: Adobe Illustrator 22.0.0, SVG Export Plug-In . SVG Version: 6.00 Build 0)  -->
<svg version="1.1" id="图层_1" xmlns="http://www.w3.org/2000/svg" xmlns:xlink="http://www.w3.org/1999/xlink" x="0px" y="0px"
	 viewBox="0 0 129.4 71.8" style="enable-background:new 0 0 129.4 71.8;" xml:space="preserve">
<style type="text/css">
	.st0{font-family:'TimesNewRomanPSMT';}
	.st1{font-size:11.8459px;}
	.st2{font-family:'ArialMT';}
	.st3{font-size:7.2898px;}
</style>
<text transform="matrix(1 0 0 1 8.934 10.8933)" class="st0 st1">R</text>
<text transform="matrix(1 0 0 1 16.8354 10.8933)" class="st0 st1">=</text>
<text transform="matrix(1 0 0 1 46.8945 10.6824)" class="st2 st1">C</text>
<text transform="matrix(1 0 0 1 55.4492 10.6824)" class="st2 st1">H</text>
<text transform="matrix(1 0 0 1 64.0038 12.5046)" class="st2 st3">2</text>
<text transform="matrix(1 0 0 1 73.7578 11.2083)" class="st2 st1">C</text>
<text transform="matrix(1 0 0 1 100.6205 11.2083)" class="st2 st1">C</text>
<text transform="matrix(1 0 0 1 109.1752 11.2083)" class="st2 st1">H</text>
<text transform="matrix(1 0 0 1 73.7578 38.0715)" class="st2 st1">N</text>
<text transform="matrix(1 0 0 1 100.6205 38.0715)" class="st2 st1">N</text>
<text transform="matrix(1 0 0 1 109.1752 38.0715)" class="st2 st1">H</text>
<polygon points="84.3,37.6 90.4,50.2 89.9,50.5 89.4,50.7 83.3,38.1 83.8,37.8 "/>
<polygon points="81.4,39 87.5,51.6 87,51.9 86.5,52.1 80.4,39.5 80.9,39.2 "/>
<polygon points="101.7,39.5 94,52.1 93.6,51.9 93.1,51.6 100.8,39 101.3,39.2 "/>
<polygon points="24.3,5.9 45.8,5.9 45.8,6.4 45.8,6.9 24.3,6.9 24.3,6.4 "/>
<polygon points="69,5.9 72.7,5.9 72.7,6.4 72.7,6.9 69,6.9 69,6.4 "/>
<polygon points="83.4,5.9 99.5,5.9 99.5,6.4 99.5,6.9 83.4,6.9 83.4,6.4 "/>
<polygon points="83.4,9.1 99.5,9.1 99.5,9.6 99.5,10.2 83.4,10.2 83.4,9.6 "/>
<polygon points="78.6,12.4 78.6,27.3 78,27.3 77.5,27.3 77.5,12.4 78,12.4 "/>
<polygon points="105.4,12.4 105.4,27.3 104.9,27.3 104.4,27.3 104.4,12.4 104.9,12.4 "/>
<text transform="matrix(1 0 0 1 85.6391 62.6418)" class="st2 st1">C</text>
<text transform="matrix(1 0 0 1 94.1943 62.6418)" class="st2 st1">H</text>
</svg>
