<?xml version="1.0" standalone='no'?><!-- IBoard SVG File --><svg xmlns="http://www.w3.org/2000/svg" xmlns:xlink="http://www.w3.org/1999/xlink" viewBox="623.96 23.77 145.68 72.40" height="65.40" width="152.68" version="1.1"><!-- SVG File --><text xml:space="preserve" x="623.961731" y="59.444462" textLength="16.000000" lengthAdjust="spacingAndGlyphs"><tspan font-family="Times New Roman" font-weight="normal" baseline-shift="0" font-size="13" fill="#000000">R</tspan><tspan font-family="Times New Roman" font-weight="normal" baseline-shift="0" font-size="13" fill="#000000">=</tspan></text><text xml:space="preserve" x="667.842346" y="58.559982" textLength="23.110001" lengthAdjust="spacingAndGlyphs"><tspan font-family="Arial" font-weight="normal" baseline-shift="0" font-size="13" fill="#000000">C</tspan><tspan font-family="Arial" font-weight="normal" baseline-shift="0" font-size="13" fill="#000000">H</tspan><tspan font-family="Arial" font-weight="normal" baseline-shift="-2" font-size="8" fill="#000000">2</tspan></text><polygon points="643.055359,54.379852 666.663147,54.379852 666.663147,54.969460 666.663147,55.559067 643.055359,55.559067 643.055359,54.969460 " style="fill:rgb(0,0,0);fill-opacity:1.000000"/><polygon points="692.131531,54.379852 701.675598,54.379852 702.015991,54.969460 701.675598,55.559067 692.131531,55.559067 692.131531,54.969460 " style="fill:rgb(0,0,0);fill-opacity:1.000000"/><polygon points="701.675598,54.379852 716.415710,28.849144 716.756104,29.438749 717.096497,30.028355 702.696838,54.969440 702.015991,54.969460 " style="fill:rgb(0,0,0);fill-opacity:1.000000"/><polygon points="716.415710,28.849144 746.576843,28.849163 746.236450,29.438768 745.896057,30.028374 717.096497,30.028355 716.756104,29.438749 " style="fill:rgb(0,0,0);fill-opacity:1.000000"/><polygon points="718.798584,32.386780 744.193970,32.386799 744.193970,32.976406 744.193970,33.566013 718.798584,33.565994 718.798584,32.976387 " style="fill:rgb(0,0,0);fill-opacity:1.000000"/><polygon points="746.576843,28.849163 761.657410,54.969494 760.976563,54.969475 760.295715,54.969456 745.896057,30.028374 746.236450,29.438768 " style="fill:rgb(0,0,0);fill-opacity:1.000000"/><polygon points="761.657410,54.969475 746.576782,81.089775 746.236389,80.500168 745.895996,79.910561 760.295715,54.969475 760.976563,54.969475 " style="fill:rgb(0,0,0);fill-opacity:1.000000"/><polygon points="757.402283,55.264275 744.704590,77.257355 744.193970,76.962555 743.683350,76.667755 756.381042,54.674667 756.891663,54.969471 " style="fill:rgb(0,0,0);fill-opacity:1.000000"/><polygon points="746.576782,81.089775 716.415710,81.089760 716.756104,80.500153 717.096497,79.910545 745.895996,79.910561 746.236389,80.500168 " style="fill:rgb(0,0,0);fill-opacity:1.000000"/><polygon points="716.415710,81.089760 701.675598,55.559067 702.015991,54.969460 702.696838,54.969460 717.096497,79.910545 716.756104,80.500153 " style="fill:rgb(0,0,0);fill-opacity:1.000000"/><polygon points="718.287903,77.257339 705.590271,55.264259 706.100891,54.969460 706.611511,54.674660 719.309143,76.667740 718.798523,76.962540 " style="fill:rgb(0,0,0);fill-opacity:1.000000"/></svg>