<?xml version="1.0" encoding="utf-8"?>
<!-- Generator: Adobe Illustrator 27.0.0, SVG Export Plug-In . SVG Version: 6.00 Build 0)  -->
<svg version="1.1" id="图层_1" xmlns="http://www.w3.org/2000/svg" xmlns:xlink="http://www.w3.org/1999/xlink" x="0px" y="0px"
	 viewBox="0 0 560 102.6" style="enable-background:new 0 0 560 102.6;" xml:space="preserve">
<style type="text/css">
	.st0{fill:#0000FF;}
	.st1{font-family:'TimesNewRomanPSMT';}
	.st2{font-size:12.1696px;}
	.st3{font-size:7.489px;}
	.st4{fill:none;stroke:#000000;stroke-width:1.1792;}
	.st5{font-family:'SimSun';}
	.st6{font-size:12px;}
</style>
<text transform="matrix(1 0 0 1 21.5044 67.7301)" class="st0 st1 st2">H</text>
<text transform="matrix(1 0 0 1 49.0395 40.4897)" class="st1 st2">C</text>
<text transform="matrix(1 0 0 1 49.1011 68.5085)" class="st1 st2">C</text>
<text transform="matrix(1 0 0 1 57.8896 68.3249)" class="st1 st2">H</text>
<text transform="matrix(1 0 0 1 76.6982 11.7467)" class="st1 st2">C</text>
<text transform="matrix(1 0 0 1 85.4868 11.7467)" class="st1 st2">O</text>
<text transform="matrix(1 0 0 1 94.9526 11.7467)" class="st1 st2">O</text>
<text transform="matrix(1 0 0 1 104.4184 5.4576)" class="st1 st3">-</text>
<text transform="matrix(1 0 0 1 76.6366 40.4897)" class="st1 st2">C</text>
<text transform="matrix(1 0 0 1 85.4252 40.4897)" class="st1 st2">O</text>
<text transform="matrix(1 0 0 1 94.891 40.4897)" class="st1 st2">O</text>
<text transform="matrix(1 0 0 1 104.3568 34.2006)" class="st1 st3">-</text>
<text transform="matrix(1 0 0 1 76.6982 68.5075)" class="st1 st2">C</text>
<text transform="matrix(1 0 0 1 85.4868 68.5075)" class="st1 st2">OO</text>
<text transform="matrix(1 0 0 1 104.4184 62.2184)" class="st1 st3">-</text>
<text transform="matrix(1 0 0 1 21.164 40.1329)" class="st0 st1 st2">O</text>
<text transform="matrix(1 0 0 1 30.6299 40.1329)" class="st0 st1 st2">H</text>
<text transform="matrix(1 0 0 1 49.1011 11.7468)" class="st1 st2">C</text>
<text transform="matrix(1 0 0 1 57.8896 11.5642)" class="st1 st2">H</text>
<text transform="matrix(1 0 0 1 66.6782 13.6188)" class="st1 st3">2</text>
<polygon points="54,14.5 54,29.8 53.5,29.8 52.9,29.8 52.9,14.5 53.5,14.5 "/>
<polygon points="54,42.1 54,57.4 53.5,57.4 52.9,57.4 52.9,42.1 53.5,42.1 "/>
<polygon points="71.8,7.8 75.6,7.8 75.6,8.4 75.6,8.9 71.8,8.9 71.8,8.4 "/>
<polygon points="59,35.4 75.6,35.4 75.6,36 75.6,36.5 59,36.5 59,36 "/>
<polygon points="67.8,63 75.6,63 75.6,63.6 75.6,64.1 67.8,64.1 67.8,63.6 "/>
<polygon points="48,36.5 40.5,36.5 40.5,36 40.5,35.4 48,35.4 48,36 "/>
<polygon points="48,64.1 31.4,64.1 31.4,63.6 31.4,63 48,63 48,63.6 "/>
<line class="st4" x1="116.4" y1="33.1" x2="221.8" y2="33.1"/>
<line class="st4" x1="130.5" y1="36.4" x2="235.8" y2="36.4"/>
<polygon points="116.4,35.8 133,40.5 130.5,35.8 "/>
<polygon points="235.8,33.6 219.3,28.9 221.8,33.6 "/>
<path class="st4" d="M186,21.5c-6.1,7.3-15.1,11.5-24.6,11.5"/>
<polygon points="190.5,13.1 185.5,21.2 187.2,24.3 "/>
<text transform="matrix(1 0 0 1 178.7319 9.2277)" class="st0 st1 st2">H</text>
<text transform="matrix(1 0 0 1 187.52 11.0998)" class="st0 st1 st3">2</text>
<text transform="matrix(1 0 0 1 191.685 9.2277)" class="st0 st1 st2">O</text>
<text transform="matrix(1 0 0 1 249.2993 40.9113)" class="st1 st2">C</text>
<text transform="matrix(1 0 0 1 249.2993 68.5085)" class="st1 st2">C</text>
<text transform="matrix(1 0 0 1 258.0874 68.3249)" class="st1 st2">H</text>
<text transform="matrix(1 0 0 1 276.896 11.7467)" class="st1 st2">C</text>
<text transform="matrix(1 0 0 1 285.6841 11.7467)" class="st1 st2">O</text>
<text transform="matrix(1 0 0 1 295.1499 11.7467)" class="st1 st2">O</text>
<text transform="matrix(1 0 0 1 304.6157 5.4576)" class="st1 st3">-</text>
<text transform="matrix(1 0 0 1 276.896 40.9113)" class="st1 st2">C</text>
<text transform="matrix(1 0 0 1 285.6841 40.9113)" class="st1 st2">O</text>
<text transform="matrix(1 0 0 1 295.1499 40.9113)" class="st1 st2">O</text>
<text transform="matrix(1 0 0 1 304.6157 34.6223)" class="st1 st3">-</text>
<text transform="matrix(1 0 0 1 276.896 68.5075)" class="st1 st2">C</text>
<text transform="matrix(1 0 0 1 285.6841 68.5075)" class="st1 st2">OO</text>
<text transform="matrix(1 0 0 1 304.6157 62.2184)" class="st1 st3">-</text>
<text transform="matrix(1 0 0 1 249.2993 11.7468)" class="st1 st2">C</text>
<text transform="matrix(1 0 0 1 258.0874 11.5642)" class="st1 st2">H</text>
<text transform="matrix(1 0 0 1 266.8755 13.6188)" class="st1 st3">2</text>
<polygon points="254.1,14.5 254.1,29.8 253.6,29.8 253,29.8 253,14.5 253.6,14.5 "/>
<polygon points="272,7.8 275.8,7.8 275.8,8.4 275.8,8.9 272,8.9 272,8.4 "/>
<polygon points="259.2,35.4 275.8,35.4 275.8,36 275.8,36.5 259.2,36.5 259.2,36 "/>
<polygon points="268,63 275.8,63 275.8,63.6 275.8,64.1 268,64.1 268,63.6 "/>
<polygon points="255.8,42.1 255.8,57.4 255.1,57.4 254.6,57.4 254.6,42.1 255.1,42.1 "/>
<polygon points="252.3,42.1 252.3,57.4 251.8,57.4 251.2,57.4 251.2,42.1 251.8,42.1 "/>
<line class="st4" x1="316.8" y1="33.1" x2="422.1" y2="33.1"/>
<line class="st4" x1="330.9" y1="36.4" x2="436.2" y2="36.4"/>
<polygon points="316.8,35.8 333.4,40.5 330.9,35.8 "/>
<polygon points="436.2,33.6 419.6,28.9 422.1,33.6 "/>
<text transform="matrix(1 0 0 1 365.3491 24.342)" class="st0 st1 st2">H</text>
<text transform="matrix(1 0 0 1 374.1382 26.2145)" class="st0 st1 st3">2</text>
<text transform="matrix(1 0 0 1 378.3032 24.342)" class="st0 st1 st2">O</text>
<text transform="matrix(1 0 0 1 441.5122 67.7296)" class="st0 st1 st2">H</text>
<text transform="matrix(1 0 0 1 450.3003 67.7296)" class="st0 st1 st2">O</text>
<text transform="matrix(1 0 0 1 478.2358 39.8735)" class="st1 st2">C</text>
<text transform="matrix(1 0 0 1 478.2358 67.7291)" class="st1 st2">C</text>
<text transform="matrix(1 0 0 1 487.0249 67.5455)" class="st1 st2">H</text>
<text transform="matrix(1 0 0 1 505.8335 11.7467)" class="st1 st2">C</text>
<text transform="matrix(1 0 0 1 514.6216 11.7467)" class="st1 st2">O</text>
<text transform="matrix(1 0 0 1 524.0874 11.7467)" class="st1 st2">O</text>
<text transform="matrix(1 0 0 1 533.5532 5.4576)" class="st1 st3">-</text>
<text transform="matrix(1 0 0 1 505.8335 39.8735)" class="st1 st2">C</text>
<text transform="matrix(1 0 0 1 514.6216 39.8735)" class="st1 st2">O</text>
<text transform="matrix(1 0 0 1 524.0874 39.8735)" class="st1 st2">O</text>
<text transform="matrix(1 0 0 1 533.5532 33.5844)" class="st1 st3">-</text>
<text transform="matrix(1 0 0 1 505.8335 67.7281)" class="st1 st2">C</text>
<text transform="matrix(1 0 0 1 514.6216 67.7281)" class="st1 st2">OO</text>
<text transform="matrix(1 0 0 1 533.5532 61.4391)" class="st1 st3">-</text>
<text transform="matrix(1 0 0 1 478.2358 11.7468)" class="st1 st2">C</text>
<text transform="matrix(1 0 0 1 487.0249 11.5642)" class="st1 st2">H</text>
<text transform="matrix(1 0 0 1 495.813 13.6188)" class="st1 st3">2</text>
<polygon points="483.2,14.5 483.2,29.8 482.6,29.8 482.1,29.8 482.1,14.5 482.6,14.5 "/>
<polygon points="483.2,42.1 483.2,57.4 482.6,57.4 482.1,57.4 482.1,42.1 482.6,42.1 "/>
<polygon points="501,7.8 504.7,7.8 504.7,8.4 504.7,8.9 501,8.9 501,8.4 "/>
<polygon points="488.1,35.4 504.7,35.4 504.7,36 504.7,36.5 488.1,36.5 488.1,36 "/>
<polygon points="496.9,63 504.7,63 504.7,63.6 504.7,64.1 496.9,64.1 496.9,63.6 "/>
<polygon points="477.1,64.1 460.9,64.1 460.9,63.6 460.9,63 477.1,63 477.1,63.6 "/>
<polygon points="477.1,36.5 460.5,36.5 460.5,36 460.5,35.4 477.1,35.4 477.1,36 "/>
<text transform="matrix(1 0 0 1 450.6392 40.9113)" class="st0 st1 st2">H</text>
<text transform="matrix(1 0 0 1 44.2599 89.7305)" class="st5 st6">柠檬酸</text>
<text transform="matrix(1 0 0 1 144.9266 53.1466)" class="st5 st6">顺乌头酸酶</text>
<text transform="matrix(1 0 0 1 345.4266 53.1466)" class="st5 st6">顺乌头酸酶</text>
<text transform="matrix(1 0 0 1 461.1766 89.7299)" class="st5 st6">异柠檬酸</text>
<text transform="matrix(1 0 0 1 251.5933 89.7304)" class="st5 st6">顺乌头酸</text>
</svg>
