<?xml version="1.0" encoding="utf-8"?>
<!-- Generator: Adobe Illustrator 27.0.0, SVG Export Plug-In . SVG Version: 6.00 Build 0)  -->
<svg version="1.1" id="图层_1" xmlns="http://www.w3.org/2000/svg" xmlns:xlink="http://www.w3.org/1999/xlink" x="0px" y="0px"
	 viewBox="0 0 376 134.1" style="enable-background:new 0 0 376 134.1;" xml:space="preserve">
<style type="text/css">
	.st0{font-family:'TimesNewRomanPSMT';}
	.st1{font-size:12.355px;}
	.st2{font-size:7.6031px;}
	.st3{fill:none;stroke:#000000;stroke-width:1.1792;}
	.st4{font-family:'SimSun';}
	.st5{font-size:12px;}
</style>
<text transform="matrix(1 0 0 1 41.0175 10.8751)" class="st0 st1">C</text>
<text transform="matrix(1 0 0 1 49.9398 10.8751)" class="st0 st1">O</text>
<text transform="matrix(1 0 0 1 59.5502 10.8751)" class="st0 st1">O</text>
<text transform="matrix(1 0 0 1 69.1595 5.173)" class="st0 st2">-</text>
<text transform="matrix(1 0 0 1 12.9999 38.6539)" class="st0 st1">C</text>
<text transform="matrix(1 0 0 1 21.9222 38.6539)" class="st0 st1">H</text>
<text transform="matrix(1 0 0 1 30.8446 40.5548)" class="st0 st2">2</text>
<text transform="matrix(1 0 0 1 12.9999 68.2628)" class="st0 st1">C</text>
<text transform="matrix(1 0 0 1 13.0867 96.2804)" class="st0 st1">O</text>
<text transform="matrix(1 0 0 1 41.3578 68.2628)" class="st0 st1">S</text>
<text transform="matrix(1 0 0 1 69.0345 68.2628)" class="st0 st1">C</text>
<text transform="matrix(1 0 0 1 77.9574 68.2882)" class="st0 st1">o</text>
<text transform="matrix(1 0 0 1 84.8285 68.4484)" class="st0 st1">A</text>
<text transform="matrix(1 0 0 1 12.9999 10.6364)" class="st0 st1">C</text>
<text transform="matrix(1 0 0 1 21.9222 10.6364)" class="st0 st1">H</text>
<text transform="matrix(1 0 0 1 30.8446 12.5372)" class="st0 st2">2</text>
<polygon points="36.1,6.7 39.9,6.7 39.9,7.2 39.9,7.8 36.1,7.8 36.1,7.2 "/>
<polygon points="18,13.5 18,29 17.5,29 16.9,29 16.9,13.5 17.5,13.5 "/>
<polygon points="18,41.5 18,57 17.5,57 16.9,57 16.9,41.5 17.5,41.5 "/>
<polygon points="19.7,69.5 19.7,85 19.1,85 18.6,85 18.6,69.5 19.1,69.5 "/>
<polygon points="16.3,69.5 16.3,85 15.8,85 15.2,85 15.2,69.5 15.8,69.5 "/>
<polygon points="23,62.7 40.2,62.7 40.2,63.3 40.2,63.8 23,63.8 23,63.3 "/>
<polygon points="50.7,62.7 67.9,62.7 67.9,63.3 67.9,63.8 50.7,63.8 50.7,63.3 "/>
<line class="st3" x1="104.2" y1="63.4" x2="303.7" y2="63.4"/>
<polygon points="313.2,64 302,60.6 303.7,64 "/>
<line class="st3" x1="313.2" y1="68.9" x2="113.7" y2="68.9"/>
<polygon points="104.2,68.4 115.4,71.7 113.7,68.4 "/>
<path class="st3" d="M213.4,34.2c-5.2,20.1-25.7,32.2-45.8,27c-16.6-4.3-28.2-19.3-28.2-36.4"/>
<polygon points="214.6,24.7 210.1,35.4 213.4,34.2 215.7,36.2 "/>
<path class="st3" d="M283.1,35.2c-4.3,16.7-19.5,28.3-36.7,28.2"/>
<polygon points="284.3,25.7 279.9,36.4 283.1,35.2 285.5,37.2 "/>
<text transform="matrix(1 0 0 1 113.0521 21.7662)" class="st0 st1">GD</text>
<text transform="matrix(1 0 0 1 131.5844 21.7662)" class="st0 st1">P</text>
<text transform="matrix(1 0 0 1 139.8246 21.7662)" class="st0 st1">+</text>
<text transform="matrix(1 0 0 1 147.0404 21.7662)" class="st0 st1">P</text>
<text transform="matrix(1 0 0 1 155.2806 21.7662)" class="st0 st1">i</text>
<text transform="matrix(1 0 0 1 200.8041 21.7662)" class="st0 st1">G</text>
<text transform="matrix(1 0 0 1 210.4135 21.7662)" class="st0 st1">T</text>
<text transform="matrix(1 0 0 1 217.9603 21.7662)" class="st0 st1">P</text>
<text transform="matrix(1 0 0 1 263.8461 21.7662)" class="st0 st1">C</text>
<text transform="matrix(1 0 0 1 272.7679 21.7662)" class="st0 st1">o</text>
<text transform="matrix(1 0 0 1 279.639 21.7662)" class="st0 st1">A</text>
<text transform="matrix(1 0 0 1 287.8802 21.7662)" class="st0 st1">-</text>
<text transform="matrix(1 0 0 1 291.9945 21.7662)" class="st0 st1">SH</text>
<text transform="matrix(1 0 0 1 326.6166 38.6539)" class="st0 st1">C</text>
<text transform="matrix(1 0 0 1 335.5394 38.6539)" class="st0 st1">H</text>
<text transform="matrix(1 0 0 1 344.4613 40.5548)" class="st0 st2">2</text>
<polygon points="331.6,41.5 331.6,57 331.1,57 330.5,57 330.5,41.5 331.1,41.5 "/>
<text transform="matrix(1 0 0 1 326.6166 66.6715)" class="st0 st1">C</text>
<text transform="matrix(1 0 0 1 335.5394 66.6715)" class="st0 st1">H</text>
<text transform="matrix(1 0 0 1 344.4613 68.5724)" class="st0 st2">2</text>
<polygon points="330.5,29 330.5,13.5 331.1,13.5 331.6,13.5 331.6,29 331.1,29 "/>
<text transform="matrix(1 0 0 1 326.6166 12.8751)" class="st0 st1">C</text>
<text transform="matrix(1 0 0 1 335.5394 12.8751)" class="st0 st1">OO</text>
<text transform="matrix(1 0 0 1 354.7592 7.173)" class="st0 st2">-</text>
<polygon points="331.6,69.5 331.6,85 331.1,85 330.5,85 330.5,69.5 331.1,69.5 "/>
<text transform="matrix(1 0 0 1 326.6166 96.9279)" class="st0 st1">C</text>
<text transform="matrix(1 0 0 1 335.5394 96.9279)" class="st0 st1">O</text>
<text transform="matrix(1 0 0 1 345.1498 96.9279)" class="st0 st1">O</text>
<text transform="matrix(1 0 0 1 354.7592 91.2257)" class="st0 st2">-</text>
<text transform="matrix(1 0 0 1 19.1416 114.6074)" class="st4 st5">琥珀酰</text>
<text transform="matrix(1 0 0 1 55.1416 114.5928)" class="st0 st5">CoA</text>
<text transform="matrix(1 0 0 1 170.6293 85.0456)" class="st4 st5">琥珀酸硫激酶</text>
<text transform="matrix(1 0 0 1 324.3793 115.5891)" class="st4 st5">琥珀酸</text>
</svg>
