<?xml version="1.0" encoding="utf-8"?>
<!-- Generator: Adobe Illustrator 27.0.0, SVG Export Plug-In . SVG Version: 6.00 Build 0)  -->
<svg version="1.1" id="图层_1" xmlns="http://www.w3.org/2000/svg" xmlns:xlink="http://www.w3.org/1999/xlink" x="0px" y="0px"
	 viewBox="0 0 184.3 79.5" style="enable-background:new 0 0 184.3 79.5;" xml:space="preserve">
<style type="text/css">
	.st0{font-family:'TimesNewRomanPSMT';}
	.st1{font-size:12.0398px;}
</style>
<text transform="matrix(1 0 0 1 0 51.2939)" class="st0 st1">H</text>
<text transform="matrix(1 0 0 1 8.6948 51.2939)" class="st0 st1">O</text>
<polygon points="18.9,42.6 37,32 37,32.7 37,33.3 19.4,43.5 19.2,43.1 "/>
<polygon points="37,32 60.7,45.6 60.7,46.2 60.4,46.7 37,33.3 37,32.7 "/>
<polygon points="60.7,45.6 83.7,32.2 84.3,32.5 84.3,33.1 60.9,46.7 60.7,46.2 "/>
<polygon points="84.8,32.2 108,45.4 108,46 107.4,46.3 84.3,33.1 84.3,32.5 "/>
<polygon points="108,45.4 131,32 131.5,32.3 131.5,32.9 108.5,46.3 108,46 "/>
<polygon points="132.1,32 155.2,45.2 155.2,45.8 155.2,46.5 131.5,32.9 131.5,32.3 "/>
<polygon points="155,41.6 171.2,32.2 171.5,32.7 171.7,33.2 155.5,42.5 155.2,42.1 "/>
<polygon points="155.2,45.2 172.8,35.1 173.1,35.5 173.4,36 155.2,46.5 155.2,45.8 "/>
<text transform="matrix(1 0 0 1 173.6876 35.8987)" class="st0 st1">O</text>
<polygon points="83.7,32.2 81.8,11.2 84.3,11.2 86.7,11.2 84.8,32.2 84.3,32.5 "/>
<text transform="matrix(1 0 0 1 79.5723 10.0517)" class="st0 st1">O</text>
<text transform="matrix(1 0 0 1 88.937 10.0517)" class="st0 st1">H</text>
<polygon points="108.5,46.3 110.5,67.3 108,67.3 105.6,67.3 107.4,46.3 108,46 "/>
<text transform="matrix(1 0 0 1 103.394 78.2123)" class="st0 st1">O</text>
<text transform="matrix(1 0 0 1 112.7588 78.2123)" class="st0 st1">H</text>
<polygon points="131,32 129,11.1 131.4,11.1 133.9,11 132.1,32 131.5,32.3 "/>
<text transform="matrix(1 0 0 1 126.7397 9.8598)" class="st0 st1">O</text>
<text transform="matrix(1 0 0 1 136.105 9.8598)" class="st0 st1">H</text>
<polygon points="60.1,46.3 61.3,46.3 61.3,46.9 61.3,47.4 60.1,47.4 60.1,46.9 "/>
<polygon points="59.8,49.7 61.6,49.6 61.6,50.2 61.6,50.7 59.8,50.7 59.8,50.2 "/>
<polygon points="59.5,53 61.9,53 61.9,53.5 61.9,54.1 59.5,54.1 59.5,53.5 "/>
<polygon points="59.2,56.3 62.2,56.3 62.2,56.9 62.2,57.4 59.2,57.4 59.2,56.9 "/>
<polygon points="58.9,59.7 62.5,59.7 62.5,60.2 62.5,60.8 58.9,60.8 58.9,60.2 "/>
<polygon points="58.6,63 62.8,63 62.9,63.6 62.9,64.1 58.6,64.1 58.6,63.6 "/>
<polygon points="58.3,66.4 63.2,66.4 63.2,66.9 63.2,67.4 58.4,67.5 58.3,66.9 "/>
<text transform="matrix(1 0 0 1 56.1045 78.4042)" class="st0 st1">O</text>
<text transform="matrix(1 0 0 1 65.4692 78.4042)" class="st0 st1">H</text>
</svg>
