<?xml version="1.0" encoding="utf-8"?>
<!-- Generator: Adobe Illustrator 27.0.0, SVG Export Plug-In . SVG Version: 6.00 Build 0)  -->
<svg version="1.1" id="图层_1" xmlns="http://www.w3.org/2000/svg" xmlns:xlink="http://www.w3.org/1999/xlink" x="0px" y="0px"
	 viewBox="0 0 121.7 72.7" style="enable-background:new 0 0 121.7 72.7;" xml:space="preserve">
<style type="text/css">
	.st0{font-family:'TimesNewRomanPSMT';}
	.st1{font-size:11.8585px;}
	.st2{font-size:7.2975px;}
	.st3{fill:#D12B1A;}
</style>
<text transform="matrix(1 0 0 1 47.9418 36.1577)" class="st0 st1">C</text>
<polygon points="51.7,25.8 51.7,10.9 52.2,10.9 52.8,10.9 52.8,25.8 52.2,25.8 "/>
<text transform="matrix(1 0 0 1 47.9418 9.7039)" class="st0 st1">H</text>
<polygon points="57.6,31.3 73.8,31.3 73.8,31.8 73.8,32.3 57.6,32.3 57.6,31.8 "/>
<text transform="matrix(1 0 0 1 74.8334 36.1577)" class="st0 st1">C</text>
<text transform="matrix(1 0 0 1 83.3969 36.1577)" class="st0 st1">O</text>
<text transform="matrix(1 0 0 1 92.6205 36.1577)" class="st0 st1">O</text>
<text transform="matrix(1 0 0 1 101.8452 36.1577)" class="st0 st1">H</text>
<polygon points="46.9,32.3 30.7,32.3 30.7,31.8 30.7,31.3 46.9,31.3 46.9,31.8 "/>
<text transform="matrix(1 0 0 1 8.5312 35.9446)" class="st0 st1">H</text>
<text transform="matrix(1 0 0 1 17.0952 37.7693)" class="st0 st2">2</text>
<text transform="matrix(1 0 0 1 21.1537 35.9446)" class="st0 st1">N</text>
<polygon points="52.8,37.8 52.8,52.7 52.2,52.7 51.7,52.7 51.7,37.8 52.2,37.8 "/>
<text transform="matrix(1 0 0 1 48.3802 63.4875)" class="st3 st0 st1">R</text>
</svg>
