<?xml version="1.0" encoding="utf-8"?>
<!-- Generator: Adobe Illustrator 27.0.0, SVG Export Plug-In . SVG Version: 6.00 Build 0)  -->
<svg version="1.1" id="图层_1" xmlns="http://www.w3.org/2000/svg" xmlns:xlink="http://www.w3.org/1999/xlink" x="0px" y="0px"
	 viewBox="0 0 377.8 88.7" style="enable-background:new 0 0 377.8 88.7;" xml:space="preserve">
<style type="text/css">
	.st0{font-family:'TimesNewRomanPSMT';}
	.st1{font-size:12.0486px;}
	.st2{font-size:7.4145px;}
	.st3{fill:#0000FF;}
</style>
<text transform="matrix(1 0 0 1 17.0689 12.1866)" class="st0 st1">H</text>
<text transform="matrix(1 0 0 1 25.7701 12.1866)" class="st0 st1">O</text>
<text transform="matrix(1 0 0 1 85.4488 50.399)" class="st0 st1">C</text>
<text transform="matrix(1 0 0 1 94.15 50.399)" class="st0 st1">H</text>
<text transform="matrix(1 0 0 1 98.9107 9.8604)" class="st0 st1">O</text>
<text transform="matrix(1 0 0 1 121.2994 25.9927)" class="st0 st1">C</text>
<text transform="matrix(1 0 0 1 130.0006 25.9927)" class="st0 st1">H</text>
<text transform="matrix(1 0 0 1 112.7711 50.399)" class="st0 st1">C</text>
<text transform="matrix(1 0 0 1 121.4723 50.399)" class="st0 st1">H</text>
<text transform="matrix(1 0 0 1 130.1734 52.2525)" class="st0 st2">2</text>
<text transform="matrix(1 0 0 1 77.0904 25.1802)" class="st0 st1">C</text>
<text transform="matrix(1 0 0 1 85.7916 25.1802)" class="st0 st1">H</text>
<text transform="matrix(1 0 0 1 49.7682 24.9639)" class="st0 st1">C</text>
<text transform="matrix(1 0 0 1 58.4693 24.9639)" class="st0 st1">H</text>
<text transform="matrix(1 0 0 1 67.1695 26.8179)" class="st0 st2">2</text>
<text transform="matrix(1 0 0 1 85.1119 79.1841)" class="st0 st1">O</text>
<text transform="matrix(1 0 0 1 94.484 79.1841)" class="st0 st1">H</text>
<text transform="matrix(1 0 0 1 148.2857 25.9927)" class="st0 st1">O</text>
<text transform="matrix(1 0 0 1 157.6578 25.9927)" class="st0 st1">H</text>
<polygon points="87.3,41.1 82.9,27.2 83.4,27 83.9,26.9 88.4,40.7 87.8,40.9 "/>
<polygon points="89.5,14.4 97.5,8.7 97.8,9.2 98.1,9.6 90.2,15.3 89.9,14.9 "/>
<polygon points="109.7,8.8 120.5,16.7 120.2,17.1 119.9,17.6 109.1,9.6 109.4,9.2 "/>
<polygon points="124.2,27.4 119.6,41.2 119.1,41 118.6,40.8 123.1,27 123.7,27.2 "/>
<polygon points="111.7,47.6 103.9,47.6 103.9,47 103.9,46.5 111.7,46.5 111.7,47.1 "/>
<polygon points="76,21.5 72.3,21.5 72.3,21 72.3,20.4 76,20.4 76,21 "/>
<polygon points="90.3,53.1 90.3,68.2 89.8,68.2 89.3,68.2 89.3,53.1 89.8,53.1 "/>
<polygon points="139.8,20.6 147.2,20.6 147.2,21.1 147.2,21.7 139.8,21.7 139.8,21.1 "/>
<polygon points="48.4,18.3 36,11.1 36.2,10.6 36.5,10.2 48.9,17.4 48.7,17.8 "/>
<text transform="matrix(1 0 0 1 124.8111 11.4371)" class="st3 st0 st1">1</text>
<text transform="matrix(1 0 0 1 112.5494 64.6207)" class="st3 st0 st1">2</text>
<text transform="matrix(1 0 0 1 77.4908 64.6207)" class="st3 st0 st1">3</text>
<text transform="matrix(1 0 0 1 75.4762 11.4371)" class="st3 st0 st1">4</text>
<text transform="matrix(1 0 0 1 50.0435 11.4371)" class="st3 st0 st1">5</text>
<text transform="matrix(1 0 0 1 208.6344 12.1866)" class="st0 st1">H</text>
<text transform="matrix(1 0 0 1 217.3355 12.1866)" class="st0 st1">O</text>
<text transform="matrix(1 0 0 1 277.0143 51.9062)" class="st0 st1">C</text>
<text transform="matrix(1 0 0 1 285.7154 51.9062)" class="st0 st1">H</text>
<text transform="matrix(1 0 0 1 290.4762 9.8604)" class="st0 st1">O</text>
<text transform="matrix(1 0 0 1 312.8648 25.9927)" class="st0 st1">C</text>
<text transform="matrix(1 0 0 1 321.566 25.9927)" class="st0 st1">H</text>
<text transform="matrix(1 0 0 1 304.3375 51.9059)" class="st0 st1">C</text>
<text transform="matrix(1 0 0 1 313.0387 51.9059)" class="st0 st1">H</text>
<text transform="matrix(1 0 0 1 268.6568 25.1802)" class="st0 st1">C</text>
<text transform="matrix(1 0 0 1 277.357 25.1802)" class="st0 st1">H</text>
<text transform="matrix(1 0 0 1 241.3336 24.9639)" class="st0 st1">C</text>
<text transform="matrix(1 0 0 1 250.0348 24.9639)" class="st0 st1">H</text>
<text transform="matrix(1 0 0 1 258.7359 26.8179)" class="st0 st2">2</text>
<text transform="matrix(1 0 0 1 276.6773 79.1841)" class="st0 st1">O</text>
<text transform="matrix(1 0 0 1 286.0494 79.1841)" class="st0 st1">H</text>
<text transform="matrix(1 0 0 1 339.8512 25.9927)" class="st0 st1">O</text>
<text transform="matrix(1 0 0 1 349.2232 25.9927)" class="st0 st1">H</text>
<polygon points="240,18.3 227.5,11.1 227.8,10.6 228.1,10.2 240.5,17.4 240.2,17.8 "/>
<polygon points="278.9,41.1 274.4,27.2 275,27 275.5,26.9 279.9,40.7 279.4,40.9 "/>
<polygon points="281.1,14.4 289.1,8.7 289.4,9.2 289.7,9.6 281.7,15.3 281.4,14.9 "/>
<polygon points="301.3,8.8 312.1,16.7 311.8,17.1 311.4,17.6 300.6,9.6 300.9,9.2 "/>
<polygon points="315.7,27.4 311.2,41.2 310.7,41 310.2,40.8 314.7,27 315.2,27.2 "/>
<polygon points="303.2,47.6 295.5,47.6 295.5,47 295.5,46.5 303.2,46.5 303.2,47.1 "/>
<polygon points="267.6,21.5 263.8,21.5 263.8,21 263.8,20.4 267.6,20.4 267.6,21 "/>
<polygon points="281.9,53.1 281.9,68.2 281.4,68.2 280.8,68.2 280.8,53.1 281.4,53.1 "/>
<polygon points="331.4,20.6 338.8,20.6 338.8,21.1 338.8,21.7 331.4,21.7 331.4,21.1 "/>
<polygon points="309.2,53.1 309.2,68.3 308.7,68.3 308.1,68.3 308.1,53.1 308.7,53.1 "/>
<text transform="matrix(1 0 0 1 304.0006 79.2735)" class="st0 st1">O</text>
<text transform="matrix(1 0 0 1 313.3727 79.2735)" class="st0 st1">H</text>
<text transform="matrix(1 0 0 1 316.3766 11.4371)" class="st3 st0 st1">1</text>
<text transform="matrix(1 0 0 1 297.6275 64.6207)" class="st3 st0 st1">2</text>
<text transform="matrix(1 0 0 1 269.0562 64.6207)" class="st3 st0 st1">3</text>
<text transform="matrix(1 0 0 1 267.0426 11.4371)" class="st3 st0 st1">4</text>
<text transform="matrix(1 0 0 1 241.609 11.4371)" class="st3 st0 st1">5</text>
</svg>
