<?xml version="1.0" encoding="utf-8"?>
<!-- Generator: Adobe Illustrator 27.0.0, SVG Export Plug-In . SVG Version: 6.00 Build 0)  -->
<svg version="1.1" id="图层_1" xmlns="http://www.w3.org/2000/svg" xmlns:xlink="http://www.w3.org/1999/xlink" x="0px" y="0px"
	 viewBox="0 0 328.9 419" style="enable-background:new 0 0 328.9 419;" xml:space="preserve">
<style type="text/css">
	.st0{fill:#FF8000;}
	.st1{font-family:'TimesNewRomanPSMT';}
	.st2{font-size:12.7864px;}
	.st3{fill:#FF0D0D;}
	.st4{font-size:7.8686px;}
	.st5{fill:#304FF7;}
	.st6{fill:none;stroke:#304FF7;stroke-width:0.75;stroke-miterlimit:3.9343;}
	.st7{fill:none;stroke:#FF0D0D;stroke-width:0.75;stroke-miterlimit:3.9343;}
</style>
<text transform="matrix(1 0 0 1 240.7598 117.9258)" class="st0 st1 st2">P</text>
<polygon points="243.1,107.2 243.1,91.1 243.7,91.1 244.3,91.1 244.3,107.2 243.7,107.2 "/>
<text transform="matrix(1 0 0 1 239.2724 90.0323)" class="st3 st1 st2">O</text>
<polygon points="244.3,120.1 244.3,136.2 243.7,136.2 243.1,136.2 243.1,120.1 243.7,120.1 "/>
<text transform="matrix(1 0 0 1 239.2724 148.0241)" class="st3 st1 st2">O</text>
<polygon points="249.1,113.1 266.5,113.1 266.5,113.7 266.5,114.2 249.1,114.2 249.1,113.7 "/>
<text transform="matrix(1 0 0 1 267.7092 117.9259)" class="st3 st1 st2">O</text>
<polygon points="238.3,116 220.8,116 220.8,115.4 220.8,114.8 238.3,114.8 238.3,115.4 "/>
<polygon points="238.3,112.5 220.8,112.5 220.8,111.9 220.8,111.3 238.3,111.3 238.3,111.9 "/>
<text transform="matrix(1 0 0 1 209.717 117.9259)" class="st3 st1 st2">O</text>
<polygon points="243.1,78.2 243.1,61.8 243.7,61.8 244.3,61.8 244.3,78.2 243.7,78.2 "/>
<text transform="matrix(1 0 0 1 239.0705 59.6516)" class="st1 st2">C</text>
<text transform="matrix(1 0 0 1 248.3039 59.6516)" class="st1 st2">H</text>
<text transform="matrix(1 0 0 1 257.5383 61.6188)" class="st1 st4">2</text>
<polygon points="243.1,49.6 243.1,32.8 243.7,32.8 244.3,32.8 244.3,49.6 243.7,49.6 "/>
<text transform="matrix(1 0 0 1 225.5725 30.202)" class="st1 st2">H</text>
<text transform="matrix(1 0 0 1 234.8059 32.1687)" class="st1 st4">2</text>
<text transform="matrix(1 0 0 1 239.1819 30.202)" class="st1 st2">C</text>
<polygon points="249.5,26.1 266.9,26.1 266.9,26.7 266.9,27.3 249.5,27.3 249.5,26.7 "/>
<text transform="matrix(1 0 0 1 268.0657 31.8484)" class="st5 st1 st2">N</text>
<polygon points="278.5,26.1 295.9,26.1 295.9,26.7 295.9,27.3 278.5,27.3 278.5,26.7 "/>
<text transform="matrix(1 0 0 1 297.0618 30.202)" class="st1 st2">C</text>
<text transform="matrix(1 0 0 1 306.2961 30.202)" class="st1 st2">H</text>
<text transform="matrix(1 0 0 1 315.5295 32.1687)" class="st1 st4">3</text>
<polygon points="276.6,21.9 289.1,9.4 289.6,9.8 290,10.2 277.4,22.8 277,22.4 "/>
<text transform="matrix(1 0 0 1 288.5696 9.6985)" class="st1 st2">C</text>
<text transform="matrix(1 0 0 1 297.803 9.6985)" class="st1 st2">H</text>
<text transform="matrix(1 0 0 1 307.0374 11.6658)" class="st1 st4">3</text>
<polygon points="277.4,30.6 290,43.1 289.6,43.5 289.1,44 276.6,31.4 277,31 "/>
<text transform="matrix(1 0 0 1 288.5696 50.7049)" class="st1 st2">C</text>
<text transform="matrix(1 0 0 1 297.803 50.7049)" class="st1 st2">H</text>
<text transform="matrix(1 0 0 1 307.0374 52.6722)" class="st1 st4">3</text>
<line class="st6" x1="271.4" y1="19.8" x2="276.2" y2="19.8"/>
<line class="st6" x1="273.8" y1="17.4" x2="273.8" y2="22.2"/>
<line class="st7" x1="276.1" y1="107.2" x2="280.9" y2="107.2"/>
<polygon points="244.3,149.1 244.3,165.5 243.7,165.5 243.1,165.5 243.1,149.1 243.7,149.1 "/>
<text transform="matrix(1 0 0 1 239.0705 175.1814)" class="st1 st2">C</text>
<text transform="matrix(1 0 0 1 248.3039 175.1814)" class="st1 st2">H</text>
<text transform="matrix(1 0 0 1 257.5383 177.1487)" class="st1 st4">2</text>
<polygon points="237.9,172.2 220,172.2 220,171.6 220,171.1 237.9,171.1 237.9,171.6 "/>
<text transform="matrix(1 0 0 1 210.0744 166.2493)" class="st1 st2">H</text>
<text transform="matrix(1 0 0 1 210.0744 177.9227)" class="st1 st2">C</text>
<polygon points="209.4,172.2 191.5,172.2 191.5,171.6 191.5,171.1 209.4,171.1 209.4,171.6 "/>
<text transform="matrix(1 0 0 1 167.5803 175.1814)" class="st1 st2">H</text>
<text transform="matrix(1 0 0 1 176.8147 177.1487)" class="st1 st4">2</text>
<text transform="matrix(1 0 0 1 181.1907 175.1814)" class="st1 st2">C</text>
<polygon points="186.3,177.8 186.3,194.2 185.7,194.2 185.1,194.2 185.1,177.8 185.7,177.8 "/>
<text transform="matrix(1 0 0 1 180.7209 205.824)" class="st3 st1 st2">O</text>
<polygon points="215.3,178.1 215.3,194.2 214.7,194.2 214.1,194.2 214.1,178.1 214.7,178.1 "/>
<text transform="matrix(1 0 0 1 209.717 205.824)" class="st3 st1 st2">O</text>
<polygon points="186.3,207.1 186.3,223.2 185.7,223.2 185.1,223.2 185.1,207.1 185.7,207.1 "/>
<text transform="matrix(1 0 0 1 181.0784 234.8201)" class="st1 st2">C</text>
<polygon points="215.3,207.1 215.3,223.2 214.7,223.2 214.1,223.2 214.1,207.1 214.7,207.1 "/>
<text transform="matrix(1 0 0 1 210.0744 234.8201)" class="st1 st2">C</text>
<polygon points="188.4,223.7 200.1,212 200.5,212.4 200.9,212.8 189.2,224.5 188.8,224.1 "/>
<polygon points="190.8,226.1 202.5,214.4 203,214.8 203.4,215.3 191.7,227 191.2,226.6 "/>
<text transform="matrix(1 0 0 1 201.2239 214.3172)" class="st3 st1 st2">O</text>
<polygon points="217.4,223.7 229.1,212 229.5,212.4 229.9,212.8 218.2,224.5 217.8,224.1 "/>
<polygon points="219.8,226.1 231.5,214.4 231.9,214.8 232.4,215.3 220.6,227 220.2,226.6 "/>
<text transform="matrix(1 0 0 1 230.22 214.3172)" class="st3 st1 st2">O</text>
<polygon points="11.7,379.7 40.4,379.7 40.7,380.3 41,380.9 11.7,380.9 11.7,380.3 "/>
<polygon points="40.4,379.7 54.9,354.6 55.2,355.2 55.5,355.8 41,380.9 40.7,380.3 "/>
<polygon points="54.9,354.6 83.9,354.6 84.2,355.2 84.5,355.8 55.5,355.8 55.2,355.2 "/>
<polygon points="98.4,329.5 127.4,329.5 127.7,330.1 128,330.7 99,330.7 98.7,330.1 "/>
<polygon points="127,279.9 141.9,254.2 142.2,254.8 142.5,255.3 128.4,279.9 127.7,279.9 "/>
<polygon points="127.4,329.5 141.5,305 142.2,305 142.9,305 128,330.7 127.7,330.1 "/>
<polygon points="141.9,254.2 170.9,254.2 171.2,254.8 171.5,255.3 142.5,255.3 142.2,254.8 "/>
<polygon points="141.5,305 127,279.9 127.7,279.9 128.4,279.9 142.9,305 142.2,305 "/>
<polygon points="170.9,254.2 181.9,235.1 182.4,235.4 182.9,235.7 171.5,255.3 171.2,254.8 "/>
<polygon points="163.9,346 163.9,316.3 164.5,316.6 165,317 165,345.3 164.5,345.6 "/>
<polygon points="189,272.8 214.1,258.3 214.7,258.6 215.3,259 190.2,273.5 189.6,273.1 "/>
<polygon points="189,301.8 189,272.8 189.6,273.1 190.2,273.5 190.2,302.5 189.6,302.1 "/>
<polygon points="189,360.5 163.9,346 164.5,345.6 165,345.3 190.2,359.8 189.6,360.1 "/>
<polygon points="214.1,258.3 214.1,236.1 214.7,236.1 215.3,236.1 215.3,259 214.7,258.6 "/>
<polygon points="214.7,404.3 189,389.5 189.6,389.1 190.2,388.8 214.7,402.9 214.7,403.6 "/>
<polygon points="239.8,389.8 214.7,404.3 214.7,403.6 214.7,402.9 239.8,388.4 239.8,389.1 "/>
<polygon points="264.6,404.1 239.8,389.8 239.8,389.1 239.8,388.4 265.2,403.1 264.9,403.6 "/>
<polygon points="83.9,354.6 98.4,329.5 98.7,330.1 99,330.7 84.5,355.8 84.2,355.2 "/>
<polygon points="86.7,356.6 100.2,333.3 100.7,333.6 101.2,333.9 87.7,357.2 87.2,356.9 "/>
<polygon points="189,389.5 189,360.5 189.6,360.1 190.2,359.8 190.2,388.8 189.6,389.1 "/>
<polygon points="192.5,387.1 192.5,360.1 193.1,360.1 193.6,360.1 193.6,387.1 193.1,387.1 "/>
<polygon points="163.9,316.3 189,301.8 189.6,302.1 190.2,302.5 165,317 164.5,316.6 "/>
<polygon points="167.7,318.1 191,304.6 191.3,305.1 191.6,305.6 168.2,319.1 167.9,318.6 "/>
</svg>
