<?xml version="1.0" encoding="utf-8"?>
<!-- Generator: Adobe Illustrator 27.0.0, SVG Export Plug-In . SVG Version: 6.00 Build 0)  -->
<svg version="1.1" id="图层_1" xmlns="http://www.w3.org/2000/svg" xmlns:xlink="http://www.w3.org/1999/xlink" x="0px" y="0px"
	 viewBox="0 0 496.6 192.6" style="enable-background:new 0 0 496.6 192.6;" xml:space="preserve">
<style type="text/css">
	.st0{font-family:'TimesNewRomanPSMT';}
	.st1{font-size:12.3089px;}
	.st2{font-size:7.5747px;}
	.st3{fill:#FF0000;}
	.st4{fill:#0000FF;}
	.st5{fill:none;stroke:#000000;stroke-width:5;stroke-miterlimit:10;}
	.st6{fill:none;stroke:#8AB4FF;stroke-width:8;stroke-miterlimit:10;}
	.st7{fill:#8AB4FF;}
	.st8{fill:none;stroke:#0000FF;stroke-miterlimit:10;}
	.st9{fill:none;stroke:#FF0000;stroke-miterlimit:10;}
</style>
<g>
	<text transform="matrix(1 0 0 1 50.5574 70.7617)" class="st0 st1">H</text>
	<text transform="matrix(1 0 0 1 59.4461 70.7617)" class="st0 st1">C</text>
	<polygon points="69.4,65.2 85.9,65.2 85.9,65.8 85.9,66.3 69.4,66.3 69.4,65.8 	"/>
	<text transform="matrix(1 0 0 1 87.0135 70.7617)" class="st0 st1">O</text>
	<polygon points="63.3,59.6 63.3,43.8 63.9,43.8 64.4,43.8 64.4,59.6 63.9,59.6 	"/>
	<text transform="matrix(1 0 0 1 46.451 41.2631)" class="st0 st1">H</text>
	<text transform="matrix(1 0 0 1 55.3397 43.1567)" class="st0 st2">2</text>
	<text transform="matrix(1 0 0 1 59.5526 41.2631)" class="st0 st1">C</text>
	<polygon points="60.8,72.3 53,85.7 52.5,85.4 52.1,85.2 59.8,71.7 60.3,72 	"/>
	<text transform="matrix(1 0 0 1 36.6004 94.935)" class="st0 st1">H</text>
	<text transform="matrix(1 0 0 1 45.4891 94.935)" class="st0 st1">C</text>
	<polygon points="53,94.2 60.8,107.6 60.3,107.9 59.8,108.2 52.1,94.7 52.5,94.5 	"/>
	<text transform="matrix(1 0 0 1 50.5574 119.1083)" class="st0 st1">H</text>
	<text transform="matrix(1 0 0 1 59.4461 119.1083)" class="st0 st1">C</text>
	<polygon points="48.1,95.6 38.4,105.3 38,104.9 37.6,104.5 47.3,94.8 47.7,95.2 	"/>
	<text transform="matrix(1 0 0 1 20.5193 113.6723)" class="st0 st1">H</text>
	<text transform="matrix(1 0 0 1 29.408 113.6723)" class="st0 st1">O</text>
	<polygon points="69.4,113.6 86.2,113.6 86.2,114.1 86.2,114.7 69.4,114.7 69.4,114.1 	"/>
	<text transform="matrix(1 0 0 1 87.3572 119.1083)" class="st0 st1">C</text>
	<text transform="matrix(1 0 0 1 96.2469 119.1083)" class="st0 st1">H</text>
	<polygon points="64.4,120.3 64.4,135.8 63.9,135.8 63.3,135.8 63.3,120.3 63.9,120.3 	"/>
	<text transform="matrix(1 0 0 1 59.1004 147.0214)" class="st0 st1">O</text>
	<text transform="matrix(1 0 0 1 68.6746 147.0214)" class="st0 st1">H</text>
	<polygon points="92.4,120.3 92.4,135.8 91.8,135.8 91.2,135.8 91.2,120.3 91.8,120.3 	"/>
	<text transform="matrix(1 0 0 1 87.0135 147.0214)" class="st0 st1">O</text>
	<text transform="matrix(1 0 0 1 96.5877 147.0214)" class="st0 st1">H</text>
	<polygon points="94.9,107.6 102.2,95 102.7,95.3 103.1,95.6 95.9,108.2 95.4,107.9 	"/>
	<text transform="matrix(1 0 0 1 101.3143 84.7514)" class="st3 st0 st1">H</text>
	<text transform="matrix(1 0 0 1 101.3143 95.9887)" class="st3 st0 st1">C</text>
	<polygon points="110.8,89.4 127.8,89.4 127.8,89.9 127.8,90.5 110.8,90.5 110.8,89.9 	"/>
	<polygon points="110.8,92.7 127.8,92.7 127.8,93.3 127.8,93.9 110.8,93.9 110.8,93.3 	"/>
	<text transform="matrix(1 0 0 1 128.8836 94.935)" class="st3 st0 st1">O</text>
	<polygon points="69.4,37.3 85.9,37.3 85.9,37.9 85.9,38.4 69.4,38.4 69.4,37.9 	"/>
	<text transform="matrix(1 0 0 1 87.0135 42.8486)" class="st0 st1">O</text>
	<text transform="matrix(1 0 0 1 96.5877 42.8486)" class="st0 st1">H</text>
	<polygon points="97.7,65.2 114.2,65.2 114.2,65.8 114.2,66.3 97.7,66.3 97.7,65.8 	"/>
	<text transform="matrix(1 0 0 1 115.2703 70.7617)" class="st4 st0 st1">H</text>
</g>
<g>
	<text transform="matrix(1 0 0 1 262.2029 70.7617)" class="st0 st1">O</text>
	<text transform="matrix(1 0 0 1 221.6404 41.2631)" class="st0 st1">H</text>
	<text transform="matrix(1 0 0 1 230.5301 43.1567)" class="st0 st2">2</text>
	<text transform="matrix(1 0 0 1 234.742 41.2631)" class="st0 st1">C</text>
	<text transform="matrix(1 0 0 1 211.7899 94.935)" class="st0 st1">H</text>
	<text transform="matrix(1 0 0 1 220.6795 94.935)" class="st0 st1">C</text>
	<text transform="matrix(1 0 0 1 225.7469 119.1083)" class="st0 st1">H</text>
	<text transform="matrix(1 0 0 1 234.6356 119.1083)" class="st0 st1">C</text>
	<text transform="matrix(1 0 0 1 195.7088 113.6723)" class="st0 st1">H</text>
	<text transform="matrix(1 0 0 1 204.5975 113.6723)" class="st0 st1">O</text>
	<text transform="matrix(1 0 0 1 262.5477 119.1083)" class="st0 st1">C</text>
	<text transform="matrix(1 0 0 1 271.4363 119.1083)" class="st0 st1">H</text>
	<text transform="matrix(1 0 0 1 234.2899 147.0214)" class="st0 st1">O</text>
	<text transform="matrix(1 0 0 1 243.8641 147.0214)" class="st0 st1">H</text>
	<text transform="matrix(1 0 0 1 262.2029 147.0214)" class="st0 st1">O</text>
	<text transform="matrix(1 0 0 1 271.7772 147.0214)" class="st0 st1">H</text>
	<text transform="matrix(1 0 0 1 276.5037 94.935)" class="st3 st0 st1">C</text>
	<text transform="matrix(1 0 0 1 300.3328 108.8915)" class="st3 st0 st1">O</text>
	<text transform="matrix(1 0 0 1 262.2029 42.8486)" class="st0 st1">O</text>
	<text transform="matrix(1 0 0 1 271.7772 42.8486)" class="st0 st1">H</text>
	<text transform="matrix(1 0 0 1 225.7469 70.7617)" class="st0 st1">H</text>
	<text transform="matrix(1 0 0 1 234.6356 70.7617)" class="st0 st1">C</text>
	<polygon points="244.6,65.2 261.1,65.2 261.1,65.8 261.1,66.3 244.6,66.3 244.6,65.8 	"/>
	<polygon points="238.5,59.6 238.5,43.8 239.1,43.8 239.6,43.8 239.6,59.6 239.1,59.6 	"/>
	<polygon points="236,72.3 228.2,85.7 227.7,85.4 227.2,85.2 235,71.7 235.5,72 	"/>
	<polygon points="228.2,94.2 236,107.6 235.5,107.9 235,108.2 227.2,94.7 227.7,94.5 	"/>
	<polygon points="223.3,95.6 213.6,105.3 213.2,104.9 212.8,104.5 222.5,94.8 222.9,95.2 	"/>
	<polygon points="244.6,113.6 261.4,113.6 261.4,114.1 261.4,114.7 244.6,114.7 244.6,114.1 	"/>
	<polygon points="239.6,120.3 239.6,135.8 239.1,135.8 238.5,135.8 238.5,120.3 239.1,120.3 	"/>
	<polygon points="267.5,120.3 267.5,135.8 267,135.8 266.4,135.8 266.4,120.3 267,120.3 	"/>
	<polygon points="270.1,107.6 277.3,95.2 277.7,95.5 278.2,95.8 271.1,108.2 270.6,107.9 	"/>
	<polygon points="244.6,37.3 261.1,37.3 261.1,37.9 261.1,38.4 244.6,38.4 244.6,37.9 	"/>
	<polygon points="270.8,71.2 278.2,84.1 277.7,84.4 277.3,84.7 269.8,71.8 270.3,71.5 	"/>
	<polygon points="286.2,92.4 300.2,100.4 299.9,100.9 299.6,101.4 285.7,93.3 286,92.8 	"/>
	<polygon points="284.7,85.4 296.1,74 296.5,74.4 296.9,74.8 285.5,86.2 285.1,85.8 	"/>
	<text transform="matrix(1 0 0 1 296.241 75.1972)" class="st3 st0 st1">H</text>
	<polygon points="311,103.3 327.5,103.3 327.5,103.9 327.5,104.5 311,104.5 311,103.9 	"/>
	<text transform="matrix(1 0 0 1 328.5906 108.8915)" class="st4 st0 st1">H</text>
</g>
<g>
	<text transform="matrix(1 0 0 1 445.0838 79.8942)" class="st0 st1">O</text>
	<polygon points="453.9,79.9 463,93.6 463.6,95.4 462.9,95.4 453,80.6 453.4,80.3 	"/>
	<polygon points="408.3,93.1 421.4,74.5 422,74.6 422.2,75.2 408.5,94.9 407.8,94.9 	"/>
	<polygon points="422.5,74.1 444,74.3 444,74.9 444,75.4 422.2,75.2 422,74.6 	"/>
	<polygon points="408.5,94.9 420.9,112.2 421.5,114.5 420.9,117.2 408.3,96.9 407.8,94.9 	"/>
	<polygon points="463,97.3 450,117.2 449.4,114.6 450,112.2 462.9,95.3 463.6,95.3 	"/>
	<polygon points="421.4,74.5 421.4,51 422,51 422.5,51 422.5,74.1 422,74.6 	"/>
	<text transform="matrix(1 0 0 1 417.5154 50.1227)" class="st0 st1">C</text>
	<text transform="matrix(1 0 0 1 426.4051 50.1227)" class="st0 st1">H</text>
	<text transform="matrix(1 0 0 1 435.2938 52.0168)" class="st0 st2">2</text>
	<text transform="matrix(1 0 0 1 439.5067 50.1227)" class="st0 st1">O</text>
	<text transform="matrix(1 0 0 1 449.0809 50.1227)" class="st0 st1">H</text>
	<polygon points="407.2,95 407.2,82.6 407.8,82.6 408.3,82.6 408.3,93.1 407.8,94.9 	"/>
	<text transform="matrix(1 0 0 1 403.324 81.4255)" class="st0 st1">H</text>
	<polygon points="408.3,96.9 408.3,107.1 407.8,107.1 407.2,107.1 407.2,94.7 407.8,94.9 	"/>
	<text transform="matrix(1 0 0 1 402.9793 118.3151)" class="st0 st1">O</text>
	<text transform="matrix(1 0 0 1 394.4562 118.3151)" class="st0 st1">H</text>
	<polygon points="422,116.1 422,126.7 421.5,126.7 420.9,126.7 420.9,117.2 421.5,114.5 	"/>
	<text transform="matrix(1 0 0 1 417.0438 137.8889)" class="st0 st1">H</text>
	<polygon points="420.9,112.2 420.9,102.2 421.5,102.2 422,102.2 422,112.8 421.5,114.5 	"/>
	<text transform="matrix(1 0 0 1 416.699 100.9997)" class="st0 st1">O</text>
	<text transform="matrix(1 0 0 1 426.2733 100.9997)" class="st0 st1">H</text>
	<polygon points="450,117.2 450,125.6 449.4,125.6 448.8,125.6 448.8,115 449.4,113.3 	"/>
	<text transform="matrix(1 0 0 1 444.6111 138.1618)" class="st0 st1">O</text>
	<text transform="matrix(1 0 0 1 454.1854 138.1618)" class="st0 st1">H</text>
	<polygon points="448.8,113.1 448.8,102.5 449.4,102.5 450,102.5 450,112.2 449.4,114.7 	"/>
	<text transform="matrix(1 0 0 1 444.9549 101.2722)" class="st0 st1">H</text>
	<polygon points="464.1,95.3 464.1,107.7 463.6,107.7 463,107.7 463,97.4 463.6,95.4 	"/>
	<text transform="matrix(1 0 0 1 458.8035 118.8596)" class="st0 st1">O</text>
	<text transform="matrix(1 0 0 1 468.3777 118.8596)" class="st0 st1">H</text>
	<polygon points="463,93.6 463,83.2 463.6,83.2 464.1,83.2 464.1,95.6 463.6,95.4 	"/>
	<text transform="matrix(1 0 0 1 459.1473 81.9704)" class="st0 st1">H</text>
	<line class="st5" x1="421.5" y1="114.7" x2="449.4" y2="114.7"/>
</g>
<g>
	<g>
		<line class="st6" x1="150" y1="90.9" x2="166.9" y2="90.9"/>
		<g>
			<path class="st7" d="M186.2,90.9c-9.1,3.4-20.4,9.1-27.4,15.2l5.5-15.2l-5.5-15.2C165.9,81.7,177.1,87.5,186.2,90.9z"/>
		</g>
	</g>
</g>
<g>
	<g>
		<line class="st6" x1="349.9" y1="90.9" x2="366.8" y2="90.9"/>
		<g>
			<path class="st7" d="M386.1,90.9c-9.1,3.4-20.4,9.1-27.4,15.2l5.5-15.2l-5.5-15.2C365.7,81.7,377,87.5,386.1,90.9z"/>
		</g>
	</g>
</g>
<g>
	<g>
		<path class="st8" d="M127.8,66.3c3.3,2.8,6,7.2,7.3,11.4"/>
		<g>
			<polygon class="st4" points="135.7,84.8 130.4,75.4 134.8,77.2 138.5,74.4 			"/>
		</g>
	</g>
</g>
<g>
	<g>
		<path class="st9" d="M122.5,87c-4.9-8.5-11.8-14-17.9-16.5"/>
		<g>
			<polygon class="st3" points="97.7,68.9 108.4,67.5 105,70.8 106.3,75.4 			"/>
		</g>
	</g>
</g>
</svg>
