<?xml version="1.0" encoding="utf-8"?>
<!-- Generator: Adobe Illustrator 27.0.0, SVG Export Plug-In . SVG Version: 6.00 Build 0)  -->
<svg version="1.1" id="图层_1" xmlns="http://www.w3.org/2000/svg" xmlns:xlink="http://www.w3.org/1999/xlink" x="0px" y="0px"
	 viewBox="0 0 218.1 43.5" style="enable-background:new 0 0 218.1 43.5;" xml:space="preserve">
<style type="text/css">
	.st0{font-family:'TimesNewRomanPSMT';}
	.st1{font-size:11.1991px;}
</style>
<text transform="matrix(1 0 0 1 44.3635 33.9121)" class="st0 st1">C</text>
<polygon points="46.4,24.4 46.4,10.3 46.9,10.3 47.4,10.3 47.4,24.4 46.9,24.4 "/>
<polygon points="49.4,24.4 49.4,10.3 49.9,10.3 50.4,10.3 50.4,24.4 49.9,24.4 "/>
<text transform="matrix(1 0 0 1 44.4423 9.1643)" class="st0 st1">O</text>
<polygon points="43.3,30.5 23,30.5 23,30 23,29.5 43.3,29.5 43.3,30 "/>
<polygon points="53.5,29.5 68.7,29.5 68.7,30 68.7,30.5 53.5,30.5 53.5,30 "/>
<text transform="matrix(1 0 0 1 69.7595 33.9121)" class="st0 st1">H</text>
<text transform="matrix(1 0 0 1 163.1703 9.1643)" class="st0 st1">O</text>
<text transform="matrix(1 0 0 1 163.0925 33.9121)" class="st0 st1">C</text>
<polygon points="165.1,24.4 165.1,10.3 165.6,10.3 166.1,10.3 166.1,24.4 165.6,24.4 "/>
<polygon points="168.2,24.4 168.2,10.3 168.7,10.3 169.2,10.3 169.2,24.4 168.7,24.4 "/>
<polygon points="162.1,30.5 141.7,30.5 141.7,30 141.7,29.5 162.1,29.5 162.1,30 "/>
<polygon points="172.2,29.5 192.5,29.5 192.5,30 192.5,30.5 172.2,30.5 172.2,30 "/>
</svg>
