<?xml version="1.0" encoding="utf-8"?>
<!-- Generator: Adobe Illustrator 27.0.0, SVG Export Plug-In . SVG Version: 6.00 Build 0)  -->
<svg version="1.1" id="图层_1" xmlns="http://www.w3.org/2000/svg" xmlns:xlink="http://www.w3.org/1999/xlink" x="0px" y="0px"
	 viewBox="0 0 97.8 72.7" style="enable-background:new 0 0 97.8 72.7;" xml:space="preserve">
<style type="text/css">
	.st0{font-family:'TimesNewRomanPSMT';}
	.st1{font-size:11.8585px;}
</style>
<text transform="matrix(1 0 0 1 44.2524 36.5989)" class="st0 st1">P</text>
<polygon points="45.4,25.8 45.4,10.9 45.9,10.9 46.5,10.9 46.5,25.8 45.9,25.8 "/>
<polygon points="48.6,25.8 48.6,10.9 49.2,10.9 49.7,10.9 49.7,25.8 49.2,25.8 "/>
<text transform="matrix(1 0 0 1 43.3608 9.7068)" class="st0 st1">O</text>
<polygon points="52.6,31.3 68.8,31.3 68.8,31.8 68.8,32.3 52.6,32.3 52.6,31.8 "/>
<text transform="matrix(1 0 0 1 69.8371 35.626)" class="st0 st1">O</text>
<text transform="matrix(1 0 0 1 79.0608 35.626)" class="st0 st1">H</text>
<polygon points="48.1,37.8 48.1,52.7 47.6,52.7 47,52.7 47,37.8 47.6,37.8 "/>
<text transform="matrix(1 0 0 1 42.9455 62.5176)" class="st0 st1">O</text>
<text transform="matrix(1 0 0 1 52.1692 62.5176)" class="st0 st1">H</text>
<polygon points="42.5,32.3 26.4,32.3 26.4,31.8 26.4,31.3 42.5,31.3 42.5,31.8 "/>
<text transform="matrix(1 0 0 1 7.4914 35.626)" class="st0 st1">H</text>
<text transform="matrix(1 0 0 1 16.0549 35.626)" class="st0 st1">O</text>
</svg>
