<?xml version="1.0" encoding="utf-8"?>
<!-- Generator: Adobe Illustrator 27.0.0, SVG Export Plug-In . SVG Version: 6.00 Build 0)  -->
<svg version="1.1" id="图层_1" xmlns="http://www.w3.org/2000/svg" xmlns:xlink="http://www.w3.org/1999/xlink" x="0px" y="0px"
	 viewBox="0 0 849 175.3" style="enable-background:new 0 0 849 175.3;" xml:space="preserve">
<style type="text/css">
	.st0{font-family:'AdobeSongStd-Light-GBpc-EUC-H';}
	.st1{font-size:12.5008px;}
	.st2{font-family:'TimesNewRomanPSMT';}
	.st3{font-size:7.6928px;}
	.st4{fill:none;stroke:#000000;stroke-width:1.1792;}
</style>
<text transform="matrix(1 0 0 1 216.9344 52.3048)" class="st0 st1">饱和脂肪酸</text>
<text transform="matrix(1 0 0 1 210.684 108.1008)" class="st0 st1">不饱和脂肪酸</text>
<text transform="matrix(1 0 0 1 216.9344 157.1008)" class="st0 st1">饱和脂肪酸</text>
<text transform="matrix(1 0 0 1 28.9319 157.101)" class="st0 st1">甘油</text>
<text transform="matrix(1 0 0 1 422.13 74.6558)" class="st0 st1">脱水合成</text>
<polygon points="24.7,59.7 24.7,77.2 24.2,77.2 23.6,77.2 23.6,59.7 24.2,59.7 "/>
<polygon points="24.7,89.8 24.7,107.3 24.2,107.3 23.6,107.3 23.6,89.8 24.2,89.8 "/>
<text transform="matrix(1 0 0 1 51.804 57.0278)" class="st2 st1">O</text>
<text transform="matrix(1 0 0 1 61.5276 56.8403)" class="st2 st1">H</text>
<text transform="matrix(1 0 0 1 51.804 88.5806)" class="st2 st1">O</text>
<text transform="matrix(1 0 0 1 61.5276 88.3931)" class="st2 st1">H</text>
<text transform="matrix(1 0 0 1 51.804 117.1006)" class="st2 st1">O</text>
<text transform="matrix(1 0 0 1 61.5276 116.9131)" class="st2 st1">H</text>
<text transform="matrix(1 0 0 1 19.6693 57.0279)" class="st2 st1">C</text>
<text transform="matrix(1 0 0 1 28.6972 56.8404)" class="st2 st1">H</text>
<text transform="matrix(1 0 0 1 37.725 58.7637)" class="st2 st3">2</text>
<text transform="matrix(1 0 0 1 19.6693 88.5806)" class="st2 st1">C</text>
<text transform="matrix(1 0 0 1 28.6972 88.3931)" class="st2 st1">H</text>
<text transform="matrix(1 0 0 1 19.6693 117.1006)" class="st2 st1">C</text>
<text transform="matrix(1 0 0 1 28.6972 116.9131)" class="st2 st1">H</text>
<text transform="matrix(1 0 0 1 37.725 119.024)" class="st2 st3">2</text>
<polygon points="43,52.8 50.6,52.8 50.6,53.4 50.6,54 43,54 43,53.4 "/>
<polygon points="38.9,83.6 50.6,83.6 50.6,84.1 50.6,84.7 38.9,84.7 38.9,84.1 "/>
<polygon points="43,112 50.6,112 50.6,112.5 50.6,113.1 43,113.1 43,112.5 "/>
<text transform="matrix(1 0 0 1 105.9057 87.9791)" class="st2 st1">+</text>
<text transform="matrix(1 0 0 1 149.2035 29.1314)" class="st2 st1">H</text>
<text transform="matrix(1 0 0 1 158.2314 29.1314)" class="st2 st1">O</text>
<text transform="matrix(1 0 0 1 167.955 29.1314)" class="st2 st1">O</text>
<text transform="matrix(1 0 0 1 177.6781 29.1314)" class="st2 st1">C</text>
<polygon points="188.1,26.9 206.7,37.7 206.7,38.3 206.7,39 187.6,27.8 187.8,27.4 "/>
<polygon points="206.7,37.7 231.3,23.6 231.3,24.3 231.3,24.9 206.7,39 206.7,38.3 "/>
<polygon points="231.3,23.6 255.8,37.9 255.8,38.5 255.8,39.2 231.3,24.9 231.3,24.3 "/>
<polygon points="255.8,37.9 280.4,23.8 280.4,24.5 280.4,25.1 255.8,39.2 255.8,38.5 "/>
<polygon points="280.4,23.8 304.9,38.1 304.9,38.7 304.9,39.4 280.4,25.1 280.4,24.5 "/>
<polygon points="304.9,38.1 329.2,24.2 329.5,24.6 329.8,25.1 304.9,39.4 304.9,38.7 "/>
<text transform="matrix(1 0 0 1 149.2035 79.4278)" class="st2 st1">H</text>
<text transform="matrix(1 0 0 1 158.2314 79.4278)" class="st2 st1">O</text>
<text transform="matrix(1 0 0 1 167.955 79.4278)" class="st2 st1">O</text>
<text transform="matrix(1 0 0 1 177.6781 79.4278)" class="st2 st1">C</text>
<polygon points="188.1,77.5 206.1,88.9 206.1,89.6 206.1,90.2 187.5,78.4 187.8,78 "/>
<polygon points="231.3,75.8 255.2,91 255.2,91.6 255.2,92.3 231.2,77.1 231.2,76.4 "/>
<polygon points="255.2,91 280,78 280.3,78.5 280.6,79 255.2,92.3 255.2,91.6 "/>
<polygon points="206.1,88.9 231.3,75.8 231.2,76.4 231.2,77.1 206.1,90.2 206.1,89.6 "/>
<polygon points="207.4,92.1 230.8,79.9 231.1,80.4 231.3,80.9 208,93.1 207.7,92.6 "/>
<text transform="matrix(1 0 0 1 149.2035 132.3433)" class="st2 st1">H</text>
<text transform="matrix(1 0 0 1 158.2314 132.3433)" class="st2 st1">O</text>
<text transform="matrix(1 0 0 1 167.955 132.3433)" class="st2 st1">O</text>
<text transform="matrix(1 0 0 1 177.6781 132.3433)" class="st2 st1">C</text>
<polygon points="188.1,130.3 206.4,141.4 206.4,142.1 206.4,142.7 187.5,131.2 187.8,130.7 "/>
<polygon points="206.4,141.4 231.3,127.9 231.3,128.5 231.3,129.2 206.4,142.7 206.4,142.1 "/>
<polygon points="231.3,127.9 255.5,142.7 255.5,143.3 255.4,144 231.3,129.2 231.3,128.5 "/>
<polygon points="255.5,142.7 280.4,129.1 280.4,129.8 280.3,130.5 255.4,144 255.5,143.3 "/>
<polygon points="280.4,129.1 304.6,143.9 304.5,144.6 304.5,145.3 280.3,130.5 280.4,129.8 "/>
<polygon points="304.6,143.9 329.5,130.4 329.4,131.1 329.4,131.7 304.5,145.3 304.5,144.6 "/>
<polygon points="329.5,130.4 353.6,145.2 353.6,145.9 353.6,146.5 329.4,131.7 329.4,131.1 "/>
<polygon points="353.6,145.2 378.3,131.8 378.5,132.3 378.8,132.8 353.6,146.5 353.6,145.9 "/>
<line class="st4" x1="397" y1="82" x2="482.9" y2="82"/>
<line class="st4" x1="406.6" y1="85.4" x2="492.5" y2="85.4"/>
<polygon points="397,84.8 408.3,88.2 406.6,84.8 "/>
<polygon points="492.5,82.5 481.2,79.1 482.9,82.5 "/>
<text transform="matrix(1 0 0 1 434.6314 102.4473)" class="st0 st1">水解</text>
<text transform="matrix(1 0 0 1 578.9999 134.7379)" class="st2 st1">C</text>
<text transform="matrix(1 0 0 1 579.0887 106.3892)" class="st2 st1">O</text>
<polygon points="524.9,39.8 524.9,75.3 524.3,75.3 523.7,75.3 523.7,39.8 524.3,39.8 "/>
<text transform="matrix(1 0 0 1 578.9999 38.5777)" class="st2 st1">C</text>
<polygon points="524.9,87.9 524.9,123.4 524.3,123.4 523.7,123.4 523.7,87.9 524.3,87.9 "/>
<text transform="matrix(1 0 0 1 578.9999 86.6578)" class="st2 st1">C</text>
<text transform="matrix(1 0 0 1 579.0887 58.3091)" class="st2 st1">O</text>
<text transform="matrix(1 0 0 1 579.0887 10.2291)" class="st2 st1">O</text>
<text transform="matrix(1 0 0 1 550.3021 133.2784)" class="st2 st1">O</text>
<polygon points="561.2,129.1 577.9,129.1 577.9,129.7 577.9,130.2 561.2,130.2 561.2,129.7 "/>
<polygon points="543.2,129.1 549.2,129.1 549.2,129.7 549.2,130.2 543.2,130.2 543.2,129.7 "/>
<text transform="matrix(1 0 0 1 519.845 133.1275)" class="st2 st1">C</text>
<text transform="matrix(1 0 0 1 528.8728 133.1275)" class="st2 st1">H</text>
<text transform="matrix(1 0 0 1 537.9008 135.0508)" class="st2 st3">2</text>
<polygon points="561.2,81 577.9,81 577.9,81.6 577.9,82.2 561.2,82.2 561.2,81.6 "/>
<text transform="matrix(1 0 0 1 550.3021 85.1983)" class="st2 st1">O</text>
<polygon points="539,81 549.2,81 549.2,81.6 549.2,82.2 539,82.2 539,81.6 "/>
<text transform="matrix(1 0 0 1 519.845 86.6578)" class="st2 st1">C</text>
<text transform="matrix(1 0 0 1 528.8728 86.6578)" class="st2 st1">H</text>
<text transform="matrix(1 0 0 1 550.3021 37.1182)" class="st2 st1">O</text>
<text transform="matrix(1 0 0 1 519.845 36.9673)" class="st2 st1">C</text>
<text transform="matrix(1 0 0 1 528.8728 36.9673)" class="st2 st1">H</text>
<text transform="matrix(1 0 0 1 537.9008 38.8907)" class="st2 st3">2</text>
<polygon points="543.2,32.9 549.2,32.9 549.2,33.5 549.2,34.1 543.2,34.1 543.2,33.5 "/>
<polygon points="561.2,32.9 577.9,32.9 577.9,33.5 577.9,34.1 561.2,34.1 561.2,33.5 "/>
<polygon points="581.2,27.2 581.2,11.5 581.8,11.5 582.4,11.5 582.4,27.2 581.8,27.2 "/>
<polygon points="584.6,27.2 584.6,11.5 585.2,11.5 585.8,11.5 585.8,27.2 585.2,27.2 "/>
<polygon points="581.2,75.3 581.2,59.6 581.8,59.6 582.4,59.6 582.4,75.3 581.8,75.3 "/>
<polygon points="584.6,75.3 584.6,59.6 585.2,59.6 585.8,59.6 585.8,75.3 585.2,75.3 "/>
<polygon points="581.2,123.4 581.2,107.6 581.8,107.6 582.4,107.6 582.4,123.4 581.8,123.4 "/>
<polygon points="584.6,123.4 584.6,107.6 585.2,107.6 585.8,107.6 585.8,123.4 585.2,123.4 "/>
<polygon points="589.4,36.3 608.1,47 608.1,47.7 608.1,48.3 588.9,37.3 589.2,36.8 "/>
<polygon points="608.1,47 632.6,32.9 632.6,33.5 632.6,34.2 608.1,48.3 608.1,47.7 "/>
<polygon points="632.6,32.9 657.2,47 657.2,47.7 657.2,48.3 632.6,34.2 632.6,33.5 "/>
<polygon points="657.2,47 681.7,32.9 681.7,33.5 681.7,34.2 657.2,48.3 657.2,47.7 "/>
<polygon points="681.7,32.9 706.5,47.2 706.3,47.7 706,48.2 681.7,34.2 681.7,33.5 "/>
<polygon points="589.5,84.7 607.4,96.2 607.4,96.9 607.4,97.5 588.9,85.7 589.2,85.2 "/>
<polygon points="632.6,83.2 656.7,98.6 656.4,99.1 656.1,99.6 632.5,84.5 632.6,83.8 "/>
<polygon points="589.5,132.6 607.8,143.6 607.8,144.3 607.8,144.9 588.9,133.5 589.2,133.1 "/>
<polygon points="607.8,143.6 632.6,129.8 632.6,130.5 632.6,131.2 607.8,144.9 607.8,144.3 "/>
<polygon points="632.6,129.8 656.9,144.4 656.9,145.1 656.9,145.7 632.6,131.2 632.6,130.5 "/>
<polygon points="656.9,144.4 681.7,130.7 681.7,131.3 681.7,132 656.9,145.7 656.9,145.1 "/>
<polygon points="681.7,130.7 706,145.2 706,145.9 706,146.6 681.7,132 681.7,131.3 "/>
<polygon points="706,145.2 730.8,131.5 730.8,132.1 730.8,132.8 706,146.6 706,145.9 "/>
<polygon points="730.8,131.5 755.4,146.2 755.1,146.7 754.8,147.2 730.8,132.8 730.8,132.1 "/>
<polygon points="607.4,96.2 632.6,83.2 632.6,83.8 632.5,84.5 607.4,97.5 607.4,96.9 "/>
<polygon points="608.7,99.4 632.1,87.3 632.4,87.8 632.6,88.3 609.2,100.4 609,99.9 "/>
<text transform="matrix(1 0 0 1 625.8041 162.6602)" class="st0 st1">甘油三酯</text>
<text transform="matrix(1 0 0 1 770.0521 87.0132)" class="st2 st1">+</text>
<text transform="matrix(1 0 0 1 793.1302 85.7593)" class="st2 st1">3</text>
<text transform="matrix(1 0 0 1 800.0824 85.7593)" class="st2 st1"> </text>
<text transform="matrix(1 0 0 1 803.556 85.7593)" class="st2 st1">H</text>
<text transform="matrix(1 0 0 1 812.5834 87.6827)" class="st2 st3">2</text>
<text transform="matrix(1 0 0 1 816.8617 85.7593)" class="st2 st1">O</text>
</svg>
