<?xml version="1.0" encoding="utf-8"?>
<!-- Generator: Adobe Illustrator 27.0.0, SVG Export Plug-In . SVG Version: 6.00 Build 0)  -->
<svg version="1.1" id="图层_1" xmlns="http://www.w3.org/2000/svg" xmlns:xlink="http://www.w3.org/1999/xlink" x="0px" y="0px"
	 viewBox="0 0 194.1 80" style="enable-background:new 0 0 194.1 80;" xml:space="preserve">
<style type="text/css">
	.st0{font-family:'TimesNewRomanPSMT';}
	.st1{font-size:12.0398px;}
</style>
<text transform="matrix(1 0 0 1 0.75 51.2939)" class="st0 st1">H</text>
<text transform="matrix(1 0 0 1 9.4448 51.2939)" class="st0 st1">O</text>
<polygon points="19.6,42.6 37.7,32 37.7,32.7 37.7,33.3 20.2,43.5 19.9,43.1 "/>
<polygon points="37.7,32 61.4,45.6 61.4,46.2 60.8,46.5 37.7,33.3 37.7,32.7 "/>
<polygon points="61.4,45.6 84.7,32 85,32.5 85,33.1 62,46.5 61.4,46.2 "/>
<polygon points="85.3,32 108.7,45.4 108.7,46 108.4,46.5 85,33.1 85,32.5 "/>
<polygon points="108.7,45.4 132.3,31.7 132.3,32.3 132.3,32.9 109,46.5 108.7,46 "/>
<polygon points="132.3,31.7 156,45.2 156,45.8 156,46.5 132.3,32.9 132.3,32.3 "/>
<text transform="matrix(1 0 0 1 174.9565 37.0663)" class="st0 st1">O</text>
<text transform="matrix(1 0 0 1 184.3218 37.0663)" class="st0 st1">H</text>
<text transform="matrix(1 0 0 1 80.3223 10.0517)" class="st0 st1">O</text>
<text transform="matrix(1 0 0 1 89.687 10.0517)" class="st0 st1">H</text>
<text transform="matrix(1 0 0 1 104.144 78.2123)" class="st0 st1">O</text>
<text transform="matrix(1 0 0 1 113.5088 78.2123)" class="st0 st1">H</text>
<text transform="matrix(1 0 0 1 127.4902 9.8598)" class="st0 st1">O</text>
<text transform="matrix(1 0 0 1 56.8545 78.4042)" class="st0 st1">O</text>
<text transform="matrix(1 0 0 1 66.2197 78.4042)" class="st0 st1">H</text>
<polygon points="85.6,32.4 84.4,32.4 84.4,31.8 84.4,31.3 85.6,31.3 85.6,31.8 "/>
<polygon points="85.9,29.1 84.1,29.1 84.1,28.5 84.1,28 85.9,28 85.9,28.5 "/>
<polygon points="86.2,25.7 83.8,25.7 83.8,25.2 83.8,24.6 86.2,24.6 86.2,25.2 "/>
<polygon points="86.5,22.4 83.5,22.4 83.5,21.8 83.5,21.3 86.5,21.3 86.5,21.8 "/>
<polygon points="86.8,19 83.2,19 83.2,18.5 83.2,17.9 86.8,17.9 86.8,18.5 "/>
<polygon points="87.1,15.7 82.9,15.7 82.9,15.1 82.9,14.6 87.1,14.6 87.1,15.1 "/>
<polygon points="87.4,12.3 82.6,12.3 82.6,11.8 82.6,11.2 87.4,11.2 87.4,11.8 "/>
<polygon points="108.1,46.1 109.3,46.1 109.3,46.7 109.3,47.2 108.1,47.2 108.1,46.7 "/>
<polygon points="107.8,49.5 109.6,49.5 109.6,50 109.6,50.5 107.8,50.6 107.8,50 "/>
<polygon points="107.5,52.8 109.9,52.8 109.9,53.3 109.9,53.9 107.5,53.9 107.5,53.4 "/>
<polygon points="107.2,56.2 110.3,56.1 110.3,56.7 110.3,57.2 107.2,57.2 107.2,56.7 "/>
<polygon points="107,59.5 110.6,59.5 110.6,60 110.6,60.6 107,60.6 107,60 "/>
<polygon points="106.7,62.8 110.9,62.8 110.9,63.4 110.9,63.9 106.7,63.9 106.7,63.4 "/>
<polygon points="106.4,66.2 111.2,66.2 111.2,66.7 111.2,67.3 106.4,67.3 106.4,66.7 "/>
<polygon points="62,46.5 64,67.4 61.5,67.5 59.1,67.5 60.8,46.5 61.4,46.2 "/>
<polygon points="130.1,33.2 130,11.1 130.6,11.1 131.1,11.1 131.2,33.2 130.7,33.2 "/>
<polygon points="133.4,33.2 133.3,11.1 133.8,11 134.4,11 134.5,33.2 133.9,33.2 "/>
<polygon points="156,45.2 173.6,35.1 173.9,35.5 174.1,36 156,46.5 156,45.8 "/>
</svg>
