<?xml version="1.0" standalone='no'?><!-- IBoard SVG File --><svg xmlns="http://www.w3.org/2000/svg" xmlns:xlink="http://www.w3.org/1999/xlink" viewBox="484.16 188.97 71.35 79.72" height="72.72" width="78.35" version="1.1"><!-- SVG File --><text xml:space="preserve" x="513.639954" y="229.094955" textLength="9.386666" lengthAdjust="spacingAndGlyphs"><tspan font-family="Arial" font-weight="normal" baseline-shift="0" font-size="13" fill="#000000">C</tspan></text><polygon points="517.743713,217.273010 517.743713,200.906677 518.333313,200.906677 518.922913,200.906677 518.922913,217.273010 518.333313,217.273010 " style="fill:rgb(0,0,0);fill-opacity:1.000000"/><text xml:space="preserve" x="513.640015" y="199.614639" textLength="9.386666" lengthAdjust="spacingAndGlyphs"><tspan font-family="Arial" font-weight="normal" baseline-shift="0" font-size="13" fill="#000000">H</tspan></text><polygon points="524.205811,223.240402 541.941101,223.240402 541.941101,223.830002 541.941101,224.419601 524.205811,224.419601 524.205811,223.830002 " style="fill:rgb(0,0,0);fill-opacity:1.000000"/><text xml:space="preserve" x="543.120300" y="229.094955" textLength="9.386666" lengthAdjust="spacingAndGlyphs"><tspan font-family="Arial" font-weight="normal" baseline-shift="0" font-size="13" fill="#000000">H</tspan></text><polygon points="512.460754,224.419601 494.725525,224.419601 494.725525,223.830002 494.725525,223.240402 512.460754,223.240402 512.460754,223.830002 " style="fill:rgb(0,0,0);fill-opacity:1.000000"/><text xml:space="preserve" x="484.159668" y="229.094955" textLength="9.386666" lengthAdjust="spacingAndGlyphs"><tspan font-family="Arial" font-weight="normal" baseline-shift="0" font-size="13" fill="#000000">H</tspan></text><polygon points="518.922913,230.386993 518.922913,246.753326 518.333313,246.753326 517.743713,246.753326 517.743713,230.386993 518.333313,230.386993 " style="fill:rgb(0,0,0);fill-opacity:1.000000"/><text xml:space="preserve" x="513.640015" y="258.575256" textLength="9.386666" lengthAdjust="spacingAndGlyphs"><tspan font-family="Arial" font-weight="normal" baseline-shift="0" font-size="13" fill="#000000">H</tspan></text></svg>