<?xml version="1.0" encoding="utf-8"?>
<!-- Generator: Adobe Illustrator 27.0.0, SVG Export Plug-In . SVG Version: 6.00 Build 0)  -->
<svg version="1.1" id="图层_1" xmlns="http://www.w3.org/2000/svg" xmlns:xlink="http://www.w3.org/1999/xlink" x="0px" y="0px"
	 viewBox="0 0 202 43.5" style="enable-background:new 0 0 202 43.5;" xml:space="preserve">
<style type="text/css">
	.st0{font-family:'TimesNewRomanPSMT';}
	.st1{font-size:11.1991px;}
</style>
<text transform="matrix(1 0 0 1 148.5974 33.5952)" class="st0 st1">O</text>
<text transform="matrix(1 0 0 1 174.3064 33.5952)" class="st0 st1">H</text>
<text transform="matrix(1 0 0 1 123.5923 9.1722)" class="st0 st1">O</text>
<text transform="matrix(1 0 0 1 123.5134 33.5952)" class="st0 st1">C</text>
<polygon points="125.5,24.4 125.5,10.3 126,10.3 126.5,10.3 126.5,24.4 126,24.4 "/>
<polygon points="128.6,24.4 128.6,10.3 129.1,10.3 129.6,10.3 129.6,24.4 129.1,24.4 "/>
<polygon points="122.5,30.5 102.2,30.5 102.2,30 102.2,29.5 122.5,29.5 122.5,30 "/>
<polygon points="132.6,29.5 147.6,29.5 147.6,30 147.6,30.5 132.6,30.5 132.6,30 "/>
<polygon points="158.3,29.5 173.3,29.5 173.3,30 173.3,30.5 158.3,30.5 158.3,30 "/>
<text transform="matrix(1 0 0 1 43.2429 21.2819)" class="st0 st1">N</text>
<polygon points="42.2,18 21.9,18 21.9,17.5 21.9,17 42.2,17 42.2,17.5 "/>
<polygon points="51.6,14.4 64.5,7 64.7,7.4 65,7.8 52.1,15.3 51.8,14.8 "/>
<text transform="matrix(1 0 0 1 65.2371 9.2977)" class="st0 st1">H</text>
<polygon points="52.1,19.7 65,27.1 64.7,27.5 64.5,28 51.6,20.5 51.8,20.1 "/>
<text transform="matrix(1 0 0 1 65.2371 34.6937)" class="st0 st1">H</text>
</svg>
