<?xml version="1.0" encoding="utf-8"?>
<!-- Generator: Adobe Illustrator 27.0.0, SVG Export Plug-In . SVG Version: 6.00 Build 0)  -->
<svg version="1.1" id="图层_1" xmlns="http://www.w3.org/2000/svg" xmlns:xlink="http://www.w3.org/1999/xlink" x="0px" y="0px"
	 viewBox="0 0 202 94.6" style="enable-background:new 0 0 202 94.6;" xml:space="preserve">
<style type="text/css">
	.st0{font-family:'TimesNewRomanPSMT';}
	.st1{font-size:12.1039px;}
	.st2{font-size:7.4485px;}
</style>
<polygon points="14.9,18.7 39.3,4.6 39.3,5.3 39.3,5.9 16,19.3 15.5,19 "/>
<polygon points="39.3,4.6 63.2,18.5 63,19 62.5,19.3 39.3,5.9 39.3,5.3 "/>
<polygon points="39.5,8.6 60,20.4 59.7,20.9 59.5,21.4 39,9.6 39.3,9.1 "/>
<polygon points="63.6,19.5 63.6,46.3 63,46.4 62.5,46.1 62.5,19.3 63,19 "/>
<polygon points="62.9,47.2 39.3,60.8 39.3,60.2 39.3,59.5 62.5,46.1 63,46.4 "/>
<polygon points="60,45 39.5,56.8 39.3,56.4 39,55.9 59.5,44.1 59.7,44.5 "/>
<polygon points="39.3,60.8 14.9,46.8 15.5,46.4 16,46.1 39.3,59.5 39.3,60.2 "/>
<polygon points="14.9,46.8 14.9,18.7 15.5,19 16,19.3 16,46.1 15.5,46.4 "/>
<polygon points="18.2,44.5 18.2,20.9 18.8,20.9 19.3,20.9 19.3,44.5 18.8,44.5 "/>
<polygon points="63.2,18.5 102.7,18.5 102.1,19 101.6,19.5 63.6,19.5 63,19 "/>
<polygon points="102.7,19.5 102.7,46.6 102.1,46.4 101.6,46.3 101.6,19.5 102.1,19 "/>
<polygon points="99.4,22.3 99.4,45.3 98.8,45.3 98.3,45.3 98.3,22.3 98.8,22.3 "/>
<polygon points="63.6,46.3 79.5,65.7 79.1,66 78.6,66.4 62.9,47.2 63,46.4 "/>
<polygon points="102.7,46.6 86.4,66.4 86,66 85.5,65.7 101.6,46.3 102.1,46.4 "/>
<g>
	<text transform="matrix(1 0 0 1 78.136 75.1207)" class="st0 st1">N</text>
	<text transform="matrix(1 0 0 1 78.136 86.171)" class="st0 st1">H</text>
</g>
<polygon points="101.6,18.5 124.1,18.5 124.1,19 124.1,19.5 102.7,19.5 102.1,19 "/>
<text transform="matrix(1 0 0 1 125.2054 22.8943)" class="st0 st1">C</text>
<text transform="matrix(1 0 0 1 133.9461 22.8943)" class="st0 st1">H</text>
<text transform="matrix(1 0 0 1 142.6873 24.7561)" class="st0 st2">2</text>
<polygon points="147.8,18.5 158.3,18.5 158.3,19 158.3,19.5 147.8,19.5 147.8,19 "/>
<text transform="matrix(1 0 0 1 159.6536 22.8943)" class="st0 st1">C</text>
<text transform="matrix(1 0 0 1 168.3943 22.8943)" class="st0 st1">O</text>
<text transform="matrix(1 0 0 1 177.8094 22.8943)" class="st0 st1">O</text>
<text transform="matrix(1 0 0 1 187.2239 22.8943)" class="st0 st1">H</text>
</svg>
