<?xml version="1.0" encoding="utf-8"?>
<!-- Generator: Adobe Illustrator 27.0.0, SVG Export Plug-In . SVG Version: 6.00 Build 0)  -->
<svg version="1.1" id="图层_1" xmlns="http://www.w3.org/2000/svg" xmlns:xlink="http://www.w3.org/1999/xlink" x="0px" y="0px"
	 viewBox="0 0 152.7 65.4" style="enable-background:new 0 0 152.7 65.4;" xml:space="preserve">
<style type="text/css">
	.st0{fill:#D12B1A;}
	.st1{font-family:'TimesNewRomanPSMT';}
	.st2{font-size:11.7431px;}
	.st3{font-size:7.2265px;}
</style>
<text transform="matrix(1 0 0 1 10.5439 32.2253)" class="st0 st1 st2">R</text>
<text transform="matrix(1 0 0 1 18.3769 32.2253)" class="st1 st2">=</text>
<text transform="matrix(1 0 0 1 50.1816 31.426)" class="st1 st2">C</text>
<text transform="matrix(1 0 0 1 58.663 31.426)" class="st1 st2">H</text>
<text transform="matrix(1 0 0 1 67.1435 33.2326)" class="st1 st3">2</text>
<polygon points="27.8,27.7 49.1,27.7 49.1,28.2 49.1,28.7 27.8,28.7 27.8,28.2 "/>
<polygon points="72.1,27.7 80.7,27.7 81.1,28.2 80.7,28.7 72.1,28.7 72.1,28.2 "/>
<polygon points="80.7,27.7 94.1,4.6 94.4,5.1 94.7,5.7 81.7,28.2 81.1,28.2 "/>
<polygon points="94.1,4.6 121.3,4.6 121,5.1 120.7,5.7 94.7,5.7 94.4,5.1 "/>
<polygon points="96.2,7.8 119.2,7.8 119.2,8.3 119.2,8.8 96.2,8.8 96.2,8.3 "/>
<polygon points="121.3,4.6 134.9,28.2 134.3,28.2 133.7,28.2 120.7,5.7 121,5.1 "/>
<polygon points="134.9,28.2 121.3,51.8 121,51.2 120.7,50.7 133.7,28.2 134.3,28.2 "/>
<polygon points="131.1,28.4 119.6,48.3 119.2,48 118.7,47.8 130.2,27.9 130.6,28.2 "/>
<polygon points="121.3,51.8 94.1,51.8 94.4,51.2 94.7,50.7 120.7,50.7 121,51.2 "/>
<polygon points="94.1,51.8 80.7,28.7 81.1,28.2 81.7,28.2 94.7,50.7 94.4,51.2 "/>
<polygon points="95.8,48.3 84.3,28.4 84.7,28.2 85.2,27.9 96.7,47.8 96.2,48 "/>
</svg>
