<?xml version="1.0" encoding="utf-8"?>
<!-- Generator: Adobe Illustrator 27.0.0, SVG Export Plug-In . SVG Version: 6.00 Build 0)  -->
<svg version="1.1" id="图层_1" xmlns="http://www.w3.org/2000/svg" xmlns:xlink="http://www.w3.org/1999/xlink" x="0px" y="0px"
	 viewBox="0 0 88 36.7" style="enable-background:new 0 0 88 36.7;" xml:space="preserve">
<style type="text/css">
	.st0{font-family:'TimesNewRomanPSMT';}
	.st1{font-size:10.9162px;}
	.st2{fill:none;stroke:#000000;stroke-width:0.75;}
	.st3{font-size:5.0382px;}
</style>
<text transform="matrix(1 0 0 1 1.534 18.7669)" class="st0 st1">Na</text>
<line class="st2" x1="13.8" y1="9.2" x2="17.9" y2="9.2"/>
<line class="st2" x1="15.8" y1="7.2" x2="15.8" y2="11.3"/>
<text transform="matrix(1 0 0 1 27.8901 18.8987)" class="st0 st1">O</text>
<ellipse cx="30.1" cy="6.2" rx="1.1" ry="1.1"/>
<ellipse cx="33.5" cy="6.2" rx="1.1" ry="1.1"/>
<ellipse cx="40.1" cy="12.8" rx="1.1" ry="1.1"/>
<ellipse cx="40.1" cy="16.1" rx="1.1" ry="1.1"/>
<ellipse cx="33.5" cy="22.7" rx="1.1" ry="1.1"/>
<ellipse cx="30.1" cy="22.7" rx="1.1" ry="1.1"/>
<ellipse cx="23.5" cy="16.1" rx="1.1" ry="1.1"/>
<ellipse cx="23.5" cy="12.8" rx="1.1" ry="1.1"/>
<line class="st2" x1="72.5" y1="5.5" x2="76.6" y2="5.5"/>
<text transform="matrix(1 0 0 1 68.7625 7.4901)" class="st0 st3">2</text>
<ellipse cx="50.6" cy="6.2" rx="1.1" ry="1.1"/>
<ellipse cx="53.9" cy="6.2" rx="1.1" ry="1.1"/>
<ellipse cx="60.5" cy="12.8" rx="1.1" ry="1.1"/>
<ellipse cx="60.5" cy="16.1" rx="1.1" ry="1.1"/>
<ellipse cx="53.9" cy="22.7" rx="1.1" ry="1.1"/>
<ellipse cx="50.6" cy="22.7" rx="1.1" ry="1.1"/>
<ellipse cx="44" cy="16.1" rx="1.1" ry="1.1"/>
<ellipse cx="44" cy="12.8" rx="1.1" ry="1.1"/>
<text transform="matrix(1 0 0 1 48.5553 18.8987)" class="st0 st1">O</text>
<line class="st2" x1="81.7" y1="9.2" x2="85.8" y2="9.2"/>
<line class="st2" x1="83.8" y1="7.2" x2="83.8" y2="11.3"/>
<text transform="matrix(1 0 0 1 69.4666 18.7669)" class="st0 st1">Na</text>
<polyline class="st2" points="21.7,4.8 19.8,4.8 19.8,23.5 21.7,23.5 "/>
<polyline class="st2" points="62.8,4.8 64.7,4.8 64.7,23.5 62.8,23.5 "/>
</svg>
