<?xml version="1.0" encoding="utf-8"?>
<!-- Generator: Adobe Illustrator 27.0.0, SVG Export Plug-In . SVG Version: 6.00 Build 0)  -->
<svg version="1.1" id="图层_1" xmlns="http://www.w3.org/2000/svg" xmlns:xlink="http://www.w3.org/1999/xlink" x="0px" y="0px"
	 viewBox="0 0 69.2 36.7" style="enable-background:new 0 0 69.2 36.7;" xml:space="preserve">
<style type="text/css">
	.st0{font-family:'TimesNewRomanPSMT';}
	.st1{font-size:10.9162px;}
	.st2{fill:none;stroke:#000000;stroke-width:0.75;}
</style>
<text transform="matrix(1 0 0 1 8.4867 17.9999)" class="st0 st1">Na</text>
<line class="st2" x1="20.7" y1="6.8" x2="24.9" y2="6.8"/>
<line class="st2" x1="22.8" y1="4.8" x2="22.8" y2="8.9"/>
<g>
	<text transform="matrix(1 0 0 1 35.3617 18.1512)" class="st0 st1">Cl</text>
</g>
<ellipse cx="38.8" cy="5.2" rx="1.1" ry="1.1"/>
<ellipse cx="42.2" cy="5.2" rx="1.1" ry="1.1"/>
<ellipse cx="31.6" cy="15.8" rx="1.1" ry="1.1"/>
<ellipse cx="31.6" cy="12.5" rx="1.1" ry="1.1"/>
<ellipse cx="42.2" cy="23.1" rx="1.1" ry="1.1"/>
<ellipse cx="38.8" cy="23.1" rx="1.1" ry="1.1"/>
<ellipse cx="49.4" cy="12.5" rx="1.1" ry="1.1"/>
<ellipse cx="49.4" cy="15.8" rx="1.1" ry="1.1"/>
<line class="st2" x1="55.4" y1="5.2" x2="59.5" y2="5.2"/>
<polyline class="st2" points="28.8,4.8 26.9,4.8 26.9,23.5 28.8,23.5 "/>
<polyline class="st2" points="51.7,4.8 53.6,4.8 53.6,23.5 51.7,23.5 "/>
</svg>
