<?xml version="1.0" encoding="utf-8"?>
<!-- Generator: Adobe Illustrator 27.0.0, SVG Export Plug-In . SVG Version: 6.00 Build 0)  -->
<svg version="1.1" id="图层_1" xmlns="http://www.w3.org/2000/svg" xmlns:xlink="http://www.w3.org/1999/xlink" x="0px" y="0px"
	 viewBox="0 0 184.8 45.6" style="enable-background:new 0 0 184.8 45.6;" xml:space="preserve">
<style type="text/css">
	.st0{fill:#D12B1A;}
	.st1{font-family:'TimesNewRomanPSMT';}
	.st2{font-size:11.2706px;}
	.st3{font-size:6.9358px;}
</style>
<text transform="matrix(1 0 0 1 15.327 34.0994)" class="st0 st1 st2">R</text>
<text transform="matrix(1 0 0 1 22.8446 34.0994)" class="st1 st2">=</text>
<text transform="matrix(1 0 0 1 53.6356 32.8465)" class="st1 st2">(</text>
<text transform="matrix(1 0 0 1 57.3895 32.8465)" class="st1 st2">C</text>
<text transform="matrix(1 0 0 1 65.5282 32.8465)" class="st1 st2">H</text>
<text transform="matrix(1 0 0 1 73.6678 34.5804)" class="st1 st3">2</text>
<text transform="matrix(1 0 0 1 77.5253 32.8465)" class="st1 st2">)</text>
<text transform="matrix(1 0 0 1 81.2782 34.5804)" class="st1 st3">3</text>
<polygon points="30,29.2 52.6,29.2 52.6,29.7 52.6,30.2 30,30.2 30,29.7 "/>
<text transform="matrix(1 0 0 1 95.7557 23.6107)" class="st1 st2">H</text>
<text transform="matrix(1 0 0 1 95.7557 33.7176)" class="st1 st2">N</text>
<polygon points="85.8,29.7 94.7,29.7 94.7,30.2 94.7,30.7 85.8,30.7 85.8,30.2 "/>
<polygon points="104.9,29.7 120.3,29.7 120.3,30.2 120.3,30.7 104.9,30.7 104.9,30.2 "/>
<text transform="matrix(1 0 0 1 121.3143 33.9007)" class="st1 st2">C</text>
<polygon points="130.5,29.7 145.9,29.7 145.9,30.2 145.9,30.7 130.5,30.7 130.5,30.2 "/>
<text transform="matrix(1 0 0 1 146.8729 33.5154)" class="st1 st2">N</text>
<text transform="matrix(1 0 0 1 155.0126 33.5154)" class="st1 st2">H</text>
<text transform="matrix(1 0 0 1 163.1512 35.2493)" class="st1 st3">2</text>
<polygon points="123.3,24.5 123.3,10.3 123.9,10.3 124.4,10.3 124.4,24.5 123.9,24.5 "/>
<polygon points="126.4,24.5 126.4,10.3 126.9,10.3 127.4,10.3 127.4,24.5 126.9,24.5 "/>
<text transform="matrix(1 0 0 1 121.3143 9.2259)" class="st1 st2">N</text>
<text transform="matrix(1 0 0 1 129.454 9.2259)" class="st1 st2">H</text>
</svg>
