<?xml version="1.0" encoding="utf-8"?>
<!-- Generator: Adobe Illustrator 27.0.0, SVG Export Plug-In . SVG Version: 6.00 Build 0)  -->
<svg version="1.1" id="图层_1" xmlns="http://www.w3.org/2000/svg" xmlns:xlink="http://www.w3.org/1999/xlink" x="0px" y="0px"
	 viewBox="0 0 152.4 45.6" style="enable-background:new 0 0 152.4 45.6;" xml:space="preserve">
<style type="text/css">
	.st0{fill:#D12B1A;}
	.st1{font-family:'TimesNewRomanPSMT';}
	.st2{font-size:11.2706px;}
	.st3{font-size:6.9358px;}
</style>
<text transform="matrix(1 0 0 1 13.1747 34.1019)" class="st0 st1 st2">R</text>
<text transform="matrix(1 0 0 1 20.6918 34.1019)" class="st1 st2">=</text>
<text transform="matrix(1 0 0 1 51.2177 33.3348)" class="st1 st2">C</text>
<text transform="matrix(1 0 0 1 59.3574 33.3348)" class="st1 st2">H</text>
<text transform="matrix(1 0 0 1 67.4965 35.0687)" class="st1 st3">2</text>
<text transform="matrix(1 0 0 1 76.7763 33.3348)" class="st1 st2">C</text>
<text transform="matrix(1 0 0 1 84.9155 33.3348)" class="st1 st2">H</text>
<text transform="matrix(1 0 0 1 93.0546 35.0687)" class="st1 st3">2</text>
<text transform="matrix(1 0 0 1 102.3349 33.7865)" class="st1 st2">C</text>
<text transform="matrix(1 0 0 1 116.623 33.3348)" class="st1 st2">N</text>
<text transform="matrix(1 0 0 1 124.7621 33.3348)" class="st1 st2">H</text>
<text transform="matrix(1 0 0 1 132.9013 35.0687)" class="st1 st3">2</text>
<text transform="matrix(1 0 0 1 102.02 9.2279)" class="st1 st2">O</text>
<polygon points="29.7,29.7 50.2,29.7 50.2,30.2 50.2,30.7 29.7,30.7 29.7,30.2 "/>
<polygon points="72.3,29.7 75.8,29.7 75.8,30.2 75.8,30.7 72.3,30.7 72.3,30.2 "/>
<polygon points="97.8,29.7 101.3,29.7 101.3,30.2 101.3,30.7 97.8,30.7 97.8,30.2 "/>
<polygon points="111.5,29.7 115.6,29.7 115.6,30.2 115.6,30.7 111.5,30.7 111.5,30.2 "/>
<polygon points="104.4,24.5 104.4,10.3 104.9,10.3 105.4,10.3 105.4,24.5 104.9,24.5 "/>
<polygon points="107.4,24.5 107.4,10.3 107.9,10.3 108.4,10.3 108.4,24.5 107.9,24.5 "/>
</svg>
