<?xml version="1.0" encoding="utf-8"?>
<!-- Generator: Adobe Illustrator 27.0.0, SVG Export Plug-In . SVG Version: 6.00 Build 0)  -->
<svg version="1.1" id="图层_1" xmlns="http://www.w3.org/2000/svg" xmlns:xlink="http://www.w3.org/1999/xlink" x="0px" y="0px"
	 viewBox="0 0 101.8 18.2" style="enable-background:new 0 0 101.8 18.2;" xml:space="preserve">
<style type="text/css">
	.st0{fill:#D12B1A;}
	.st1{font-family:'TimesNewRomanPSMT';}
	.st2{font-size:9.3946px;}
	.st3{font-size:5.7813px;}
</style>
<text transform="matrix(1 0 0 1 16.6445 8.6389)" class="st0 st1 st2">R</text>
<text transform="matrix(1 0 0 1 22.9106 8.6389)" class="st1 st2">=</text>
<text transform="matrix(1 0 0 1 48.3554 7.9998)" class="st1 st2">C</text>
<text transform="matrix(1 0 0 1 55.1396 7.9998)" class="st1 st2">H</text>
<text transform="matrix(1 0 0 1 61.9243 9.4456)" class="st1 st3">2</text>
<text transform="matrix(1 0 0 1 69.9184 8.2102)" class="st1 st2">S</text>
<text transform="matrix(1 0 0 1 76.1845 8.2102)" class="st1 st2">H</text>
<polygon points="30.4,5 47.5,5 47.5,5.4 47.5,5.8 30.4,5.8 30.4,5.4 "/>
<polygon points="65.9,5 69.1,5 69.1,5.4 69.1,5.8 65.9,5.8 65.9,5.4 "/>
</svg>
