<?xml version="1.0" encoding="utf-8"?>
<!-- Generator: Adobe Illustrator 27.0.0, SVG Export Plug-In . SVG Version: 6.00 Build 0)  -->
<svg version="1.1" id="图层_1" xmlns="http://www.w3.org/2000/svg" xmlns:xlink="http://www.w3.org/1999/xlink" x="0px" y="0px"
	 viewBox="0 0 135.9 47.7" style="enable-background:new 0 0 135.9 47.7;" xml:space="preserve">
<style type="text/css">
	.st0{fill:#D12B1A;}
	.st1{font-family:'TimesNewRomanPSMT';}
	.st2{font-size:11.34px;}
	.st3{font-size:11.337px;}
	.st4{font-size:6.9766px;}
</style>
<g>
	<text transform="matrix(1 0 0 1 11.7495 10.425)" class="st0 st1 st2">R</text>
</g>
<text transform="matrix(1 0 0 1 19.3115 10.425)" class="st1 st3">=</text>
<text transform="matrix(1 0 0 1 50.0165 11.114)" class="st1 st3">C</text>
<text transform="matrix(1 0 0 1 58.204 11.114)" class="st1 st3">H</text>
<text transform="matrix(1 0 0 1 75.726 10.6536)" class="st1 st3">C</text>
<text transform="matrix(1 0 0 1 83.913 10.6536)" class="st1 st3">H</text>
<text transform="matrix(1 0 0 1 92.1005 12.3977)" class="st1 st4">2</text>
<text transform="matrix(1 0 0 1 101.435 10.6536)" class="st1 st3">C</text>
<text transform="matrix(1 0 0 1 109.622 10.6536)" class="st1 st3">H</text>
<text transform="matrix(1 0 0 1 117.8095 12.3977)" class="st1 st4">3</text>
<text transform="matrix(1 0 0 1 50.0165 35.3625)" class="st1 st3">C</text>
<text transform="matrix(1 0 0 1 58.204 35.3625)" class="st1 st3">H</text>
<text transform="matrix(1 0 0 1 66.3911 37.1067)" class="st1 st4">3</text>
<polygon points="28.4,6 49,6 49,6.5 49,7 28.4,7 28.4,6.5 "/>
<polygon points="67.4,6 74.7,6 74.7,6.5 74.7,7 67.4,7 67.4,6.5 "/>
<polygon points="96.9,6 100.4,6 100.4,6.5 100.4,7 96.9,7 96.9,6.5 "/>
<polygon points="54.6,12.2 54.6,26.5 54.1,26.5 53.6,26.5 53.6,12.2 54.1,12.2 "/>
</svg>
