<?xml version="1.0" encoding="utf-8"?>
<!-- Generator: Adobe Illustrator 27.0.0, SVG Export Plug-In . SVG Version: 6.00 Build 0)  -->
<svg version="1.1" id="图层_1" xmlns="http://www.w3.org/2000/svg" xmlns:xlink="http://www.w3.org/1999/xlink" x="0px" y="0px"
	 viewBox="0 0 103.7 10.6" style="enable-background:new 0 0 103.7 10.6;" xml:space="preserve">
<style type="text/css">
	.st0{fill:#D12B1A;}
	.st1{font-family:'TimesNewRomanPSMT';}
	.st2{font-size:9.3946px;}
	.st3{font-size:5.7813px;}
</style>
<text transform="matrix(1 0 0 1 0.9192 8.6389)" class="st0 st1 st2">R</text>
<text transform="matrix(1 0 0 1 7.1858 8.6389)" class="st1 st2">=</text>
<text transform="matrix(1 0 0 1 32.6301 7.9998)" class="st1 st2">C</text>
<text transform="matrix(1 0 0 1 39.4148 7.9998)" class="st1 st2">H</text>
<text transform="matrix(1 0 0 1 46.1995 9.4456)" class="st1 st3">2</text>
<text transform="matrix(1 0 0 1 53.9348 7.9998)" class="st1 st2">C</text>
<text transform="matrix(1 0 0 1 60.719 7.9998)" class="st1 st2">H</text>
<text transform="matrix(1 0 0 1 67.5037 9.4456)" class="st1 st3">2</text>
<text transform="matrix(1 0 0 1 75.2385 8.2102)" class="st1 st2">C</text>
<text transform="matrix(1 0 0 1 82.0237 8.2102)" class="st1 st2">O</text>
<text transform="matrix(1 0 0 1 89.3308 8.2102)" class="st1 st2">O</text>
<text transform="matrix(1 0 0 1 96.638 8.2102)" class="st1 st2">H</text>
<polygon points="14.7,5 31.8,5 31.8,5.4 31.8,5.8 14.7,5.8 14.7,5.4 "/>
<polygon points="50.2,5 53.1,5 53.1,5.4 53.1,5.8 50.2,5.8 50.2,5.4 "/>
<polygon points="71.5,5 74.4,5 74.4,5.4 74.4,5.8 71.5,5.8 71.5,5.4 "/>
</svg>
