<?xml version="1.0" encoding="utf-8"?>
<!-- Generator: Adobe Illustrator 27.0.0, SVG Export Plug-In . SVG Version: 6.00 Build 0)  -->
<svg version="1.1" id="图层_1" xmlns="http://www.w3.org/2000/svg" xmlns:xlink="http://www.w3.org/1999/xlink" x="0px" y="0px"
	 viewBox="0 0 115.6 18" style="enable-background:new 0 0 115.6 18;" xml:space="preserve">
<style type="text/css">
	.st0{fill:#D12B1A;}
	.st1{font-family:'TimesNewRomanPSMT';}
	.st2{font-size:9.3527px;}
	.st3{font-size:5.7555px;}
</style>
<text transform="matrix(1 0 0 1 18.7402 8.601)" class="st0 st1 st2">R</text>
<text transform="matrix(1 0 0 1 24.9785 8.601)" class="st1 st2">=</text>
<text transform="matrix(1 0 0 1 52.1288 7.9911)" class="st1 st2">(</text>
<text transform="matrix(1 0 0 1 55.2431 7.9911)" class="st1 st2">C</text>
<text transform="matrix(1 0 0 1 61.997 7.9911)" class="st1 st2">H</text>
<text transform="matrix(1 0 0 1 68.7519 9.4301)" class="st1 st3">2</text>
<text transform="matrix(1 0 0 1 71.9521 7.9911)" class="st1 st2">)</text>
<text transform="matrix(1 0 0 1 75.0673 9.4301)" class="st1 st3">4</text>
<text transform="matrix(1 0 0 1 78.2685 7.9911)" class="st1 st2">N</text>
<text transform="matrix(1 0 0 1 85.0224 7.9911)" class="st1 st2">H</text>
<text transform="matrix(1 0 0 1 91.7763 9.4301)" class="st1 st3">2</text>
<polygon points="32.5,5 51.3,5 51.3,5.4 51.3,5.8 32.5,5.8 32.5,5.4 "/>
</svg>
