<?xml version="1.0" encoding="utf-8"?>
<!-- Generator: Adobe Illustrator 27.0.0, SVG Export Plug-In . SVG Version: 6.00 Build 0)  -->
<svg version="1.1" id="图层_1" xmlns="http://www.w3.org/2000/svg" xmlns:xlink="http://www.w3.org/1999/xlink" x="0px" y="0px"
	 viewBox="0 0 210 99.8" style="enable-background:new 0 0 210 99.8;" xml:space="preserve">
<style type="text/css">
	.st0{fill:#D12B1A;}
	.st1{font-family:'TimesNewRomanPSMT';}
	.st2{font-size:12.148px;}
	.st3{font-size:7.4757px;}
</style>
<text transform="matrix(1 0 0 1 10.1493 36.7537)" class="st0 st1 st2">R</text>
<text transform="matrix(1 0 0 1 18.2518 36.7537)" class="st1 st2">=</text>
<text transform="matrix(1 0 0 1 51.4403 36.1833)" class="st1 st2">(</text>
<text transform="matrix(1 0 0 1 55.4862 36.1833)" class="st1 st2">C</text>
<text transform="matrix(1 0 0 1 64.2587 36.1833)" class="st1 st2">H</text>
<text transform="matrix(1 0 0 1 73.0321 38.0524)" class="st1 st3">2</text>
<text transform="matrix(1 0 0 1 77.1893 36.1833)" class="st1 st2">)</text>
<text transform="matrix(1 0 0 1 81.2352 38.0524)" class="st1 st3">4</text>
<polygon points="25.9,31.5 50.3,31.5 50.3,32 50.3,32.6 25.9,32.6 25.9,32 "/>
<text transform="matrix(1 0 0 1 96.8397 36.4016)" class="st1 st2">N</text>
<text transform="matrix(1 0 0 1 105.6122 36.4016)" class="st1 st2">H</text>
<text transform="matrix(1 0 0 1 124.3876 36.4018)" class="st1 st2">C</text>
<text transform="matrix(1 0 0 1 151.9354 36.4018)" class="st1 st2">C</text>
<text transform="matrix(1 0 0 1 160.7089 36.4018)" class="st1 st2">H</text>
<text transform="matrix(1 0 0 1 124.4724 9.9437)" class="st1 st2">O</text>
<text transform="matrix(1 0 0 1 178.3822 36.4018)" class="st1 st2">N</text>
<text transform="matrix(1 0 0 1 151.9354 64.5914)" class="st1 st2">C</text>
<text transform="matrix(1 0 0 1 160.7089 64.5914)" class="st1 st2">H</text>
<text transform="matrix(1 0 0 1 179.4843 64.5914)" class="st1 st2">C</text>
<text transform="matrix(1 0 0 1 188.2567 64.5914)" class="st1 st2">H</text>
<polygon points="160.4,66 166.9,76.8 166.4,77.1 165.9,77.4 159.5,66.5 160,66.2 "/>
<polygon points="180.7,66.5 174.2,77.4 173.7,77.1 173.2,76.8 179.7,66 180.2,66.2 "/>
<text transform="matrix(1 0 0 1 124.3876 64.3732)" class="st1 st2">C</text>
<text transform="matrix(1 0 0 1 133.16 64.3732)" class="st1 st2">H</text>
<text transform="matrix(1 0 0 1 141.9335 66.2423)" class="st1 st3">3</text>
<polygon points="86.1,32 95.7,32 95.7,32.6 95.7,33.1 86.1,33.1 86.1,32.6 "/>
<polygon points="115.5,32 123.3,32 123.3,32.6 123.3,33.1 115.5,33.1 115.5,32.6 "/>
<polygon points="134.3,32 150.8,32 150.8,32.6 150.8,33.1 134.3,33.1 134.3,32.6 "/>
<polygon points="126.6,26.4 126.6,11.2 127.1,11.2 127.7,11.2 127.7,26.4 127.1,26.4 "/>
<polygon points="129.9,26.4 129.9,11.2 130.4,11.2 131,11.2 131,26.4 130.4,26.4 "/>
<polygon points="169.9,32 177.8,32 177.8,32.6 177.8,33.1 169.9,33.1 169.9,32.6 "/>
<polygon points="156.9,38.7 156.9,54 156.3,54 155.8,54 155.8,38.7 156.3,38.7 "/>
<polygon points="184.4,38.7 184.4,54 183.9,54 183.3,54 183.3,38.7 183.9,38.7 "/>
<polygon points="181.1,38.7 181.1,54 180.6,54 180,54 180,38.7 180.6,38.7 "/>
<text transform="matrix(1 0 0 1 165.6376 86.5638)" class="st1 st2">C</text>
<text transform="matrix(1 0 0 1 174.411 86.5638)" class="st1 st2">H</text>
<text transform="matrix(1 0 0 1 183.1835 88.4329)" class="st1 st3">2</text>
<polygon points="150.8,60.7 147.1,60.7 147.1,60.1 147.1,59.6 150.8,59.6 150.8,60.1 "/>
</svg>
