<?xml version="1.0" encoding="utf-8"?>
<!-- Generator: Adobe Illustrator 27.0.0, SVG Export Plug-In . SVG Version: 6.00 Build 0)  -->
<svg version="1.1" id="图层_1" xmlns="http://www.w3.org/2000/svg" xmlns:xlink="http://www.w3.org/1999/xlink" x="0px" y="0px"
	 viewBox="0 0 176.9 79.4" style="enable-background:new 0 0 176.9 79.4;" xml:space="preserve">
<style type="text/css">
	.st0{fill:#D12B1A;}
	.st1{font-family:'TimesNewRomanPSMT';}
	.st2{font-size:11.9474px;}
	.st3{font-size:7.3522px;}
</style>
<text transform="matrix(1 0 0 1 10.3808 23.0105)" class="st0 st1 st2">R</text>
<text transform="matrix(1 0 0 1 18.3495 23.0105)" class="st1 st2">=</text>
<text transform="matrix(1 0 0 1 48.6669 22.5671)" class="st1 st2">C</text>
<text transform="matrix(1 0 0 1 57.2939 22.5671)" class="st1 st2">H</text>
<text transform="matrix(1 0 0 1 65.9228 24.405)" class="st1 st3">2</text>
<text transform="matrix(1 0 0 1 77.511 22.5671)" class="st1 st2">C</text>
<polygon points="80.6,45.3 91.4,59 91,59.3 90.6,59.6 79.5,45.6 80.1,45.4 "/>
<polygon points="111.8,46.5 101.1,59.6 100.7,59.3 100.2,59 111.1,45.7 111.7,45.9 "/>
<polygon points="25.9,17.8 47.6,17.8 47.6,18.3 47.6,18.9 25.9,18.9 25.9,18.3 "/>
<polygon points="71,17.8 76.2,17.8 76.2,18.3 76.2,18.9 71,18.9 71,18.3 "/>
<polygon points="85.5,17.9 111.5,18.2 111.7,18.8 111.1,19.3 85.5,19 85.5,18.4 "/>
<polygon points="83.9,24.4 83.9,44.3 83.3,44.3 82.8,44.3 82.8,24.4 83.3,24.4 "/>
<polygon points="80.6,24.4 80.6,45.3 80.1,45.4 79.5,45.6 79.5,24.4 80.1,24.4 "/>
<text transform="matrix(1 0 0 1 91.4189 70.1594)" class="st1 st2">N</text>
<text transform="matrix(1 0 0 1 100.0478 70.1594)" class="st1 st2">H</text>
<polygon points="111.5,18.2 135.1,4.6 135.1,5.2 135.1,5.8 112.2,19.1 111.7,18.8 "/>
<polygon points="135.1,4.6 159.1,18.4 158.6,18.8 158,19.1 135.1,5.8 135.1,5.2 "/>
<polygon points="135.4,8.5 155.6,20.2 155.3,20.6 155.1,21.1 134.9,9.4 135.1,9 "/>
<polygon points="159.1,18.4 159.1,46.2 158.6,45.9 158,45.5 158,19.1 158.6,18.8 "/>
<polygon points="159.1,46.2 135.1,60 135.1,59.4 135.1,58.8 158,45.5 158.6,45.9 "/>
<polygon points="155.6,44.4 135.4,56.1 135.1,55.6 134.9,55.2 155.1,43.5 155.3,44 "/>
<polygon points="135.1,60 111.8,46.5 111.7,45.9 112.2,45.5 135.1,58.8 135.1,59.4 "/>
<polygon points="111.1,45.7 111.1,19.3 111.7,18.8 112.2,19.1 112.2,45.5 111.7,45.9 "/>
<polygon points="114.4,44 114.4,20.6 114.9,20.6 115.5,20.6 115.5,44 114.9,44 "/>
</svg>
