<?xml version="1.0" encoding="utf-8"?>
<!-- Generator: Adobe Illustrator 27.0.0, SVG Export Plug-In . SVG Version: 6.00 Build 0)  -->
<svg version="1.1" id="图层_1" xmlns="http://www.w3.org/2000/svg" xmlns:xlink="http://www.w3.org/1999/xlink" x="0px" y="0px"
	 viewBox="0 0 106.5 47.7" style="enable-background:new 0 0 106.5 47.7;" xml:space="preserve">
<style type="text/css">
	.st0{fill:#D12B1A;}
	.st1{font-family:'TimesNewRomanPSMT';}
	.st2{font-size:11.34px;}
	.st3{font-size:11.337px;}
	.st4{font-size:6.9766px;}
</style>
<text transform="matrix(1 0 0 1 9.8642 10.425)" class="st0 st1 st2">R</text>
<text transform="matrix(1 0 0 1 17.4257 10.425)" class="st1 st3">=</text>
<text transform="matrix(1 0 0 1 48.1313 11.114)" class="st1 st3">C</text>
<text transform="matrix(1 0 0 1 56.3183 11.114)" class="st1 st3">H</text>
<text transform="matrix(1 0 0 1 73.8403 10.6536)" class="st1 st3">C</text>
<text transform="matrix(1 0 0 1 82.0273 10.6536)" class="st1 st3">H</text>
<text transform="matrix(1 0 0 1 90.2148 12.3977)" class="st1 st4">3</text>
<text transform="matrix(1 0 0 1 48.1313 35.3625)" class="st1 st3">C</text>
<text transform="matrix(1 0 0 1 56.3183 35.3625)" class="st1 st3">H</text>
<text transform="matrix(1 0 0 1 64.5058 37.1067)" class="st1 st4">3</text>
<polygon points="26.5,6 47.1,6 47.1,6.5 47.1,7 26.5,7 26.5,6.5 "/>
<polygon points="65.5,6 72.8,6 72.8,6.5 72.8,7 65.5,7 65.5,6.5 "/>
<polygon points="52.7,12.2 52.7,26.5 52.2,26.5 51.7,26.5 51.7,12.2 52.2,12.2 "/>
</svg>
