<?xml version="1.0" encoding="utf-8"?>
<!-- Generator: Adobe Illustrator 27.0.0, SVG Export Plug-In . SVG Version: 6.00 Build 0)  -->
<svg version="1.1" id="图层_1" xmlns="http://www.w3.org/2000/svg" xmlns:xlink="http://www.w3.org/1999/xlink" x="0px" y="0px"
	 viewBox="0 0 188.7 65.4" style="enable-background:new 0 0 188.7 65.4;" xml:space="preserve">
<style type="text/css">
	.st0{fill:#D12B1A;}
	.st1{font-family:'TimesNewRomanPSMT';}
	.st2{font-size:11.7431px;}
	.st3{font-size:7.2265px;}
</style>
<text transform="matrix(1 0 0 1 12.2861 32.7615)" class="st0 st1 st2">R</text>
<text transform="matrix(1 0 0 1 20.1191 32.7615)" class="st1 st2">=</text>
<text transform="matrix(1 0 0 1 49.9169 31.4221)" class="st1 st2">C</text>
<text transform="matrix(1 0 0 1 58.3974 31.4221)" class="st1 st2">H</text>
<text transform="matrix(1 0 0 1 66.8779 33.2288)" class="st1 st3">2</text>
<text transform="matrix(1 0 0 1 156.1083 31.4221)" class="st1 st2">O</text>
<text transform="matrix(1 0 0 1 165.2431 31.4221)" class="st1 st2">H</text>
<polygon points="27.5,27.6 48.9,27.6 48.9,28.2 48.9,28.7 27.5,28.7 27.5,28.2 "/>
<polygon points="71.9,27.6 80.5,27.6 80.8,28.2 80.5,28.7 71.9,28.7 71.9,28.2 "/>
<polygon points="80.5,27.6 93.8,4.6 94.1,5.1 94.4,5.6 81.4,28.2 80.8,28.2 "/>
<polygon points="93.8,4.6 121,4.6 120.7,5.1 120.4,5.6 94.4,5.6 94.1,5.1 "/>
<polygon points="95.9,7.8 118.9,7.8 118.9,8.3 118.9,8.8 95.9,8.8 95.9,8.3 "/>
<polygon points="121,4.6 134.4,27.6 134,28.2 133.4,28.2 120.4,5.6 120.7,5.1 "/>
<polygon points="134.4,28.7 121,51.8 120.7,51.2 120.4,50.7 133.4,28.2 134,28.2 "/>
<polygon points="130.8,28.4 119.3,48.3 118.9,48 118.4,47.8 129.9,27.9 130.4,28.2 "/>
<polygon points="121,51.8 93.8,51.8 94.1,51.2 94.4,50.7 120.4,50.7 120.7,51.2 "/>
<polygon points="93.8,51.8 80.5,28.7 80.8,28.2 81.4,28.2 94.4,50.7 94.1,51.2 "/>
<polygon points="95.5,48.3 84,28.4 84.5,28.2 84.9,27.9 96.4,47.8 95.9,48 "/>
<polygon points="134.4,27.6 155,27.6 155,28.2 155,28.7 134.4,28.7 134,28.2 "/>
</svg>
