<?xml version="1.0" encoding="utf-8"?>
<!-- Generator: Adobe Illustrator 27.0.0, SVG Export Plug-In . SVG Version: 6.00 Build 0)  -->
<svg version="1.1" xmlns="http://www.w3.org/2000/svg" xmlns:xlink="http://www.w3.org/1999/xlink" x="0px" y="0px"
	 viewBox="0 0 506.3 338.6" style="enable-background:new 0 0 506.3 338.6;" xml:space="preserve">
<style type="text/css">
	.st0{fill:#DFEFFF;}
	.st1{fill:#DFFFF1;}
	.st2{font-family:'ArialMT';}
	.st3{font-size:12.6903px;}
	.st4{font-size:7.8094px;}
	.st5{fill:#0000FF;}
	.st6{fill:#FF0000;}
	.st7{fill:none;stroke:#082E54;stroke-width:6;stroke-miterlimit:10;}
	.st8{fill:#082E54;}
	.st9{fill:none;stroke:#0000FF;stroke-miterlimit:10;}
	.st10{fill:none;stroke:#FF0000;stroke-miterlimit:10;}
</style>
<g id="图层_2">
	<path class="st0" d="M458.9,4.3H20.7c-10.2,0-18.5,8.3-18.5,18.5v104.7c0,10.2,8.3,18.5,18.5,18.5h438.2c10.2,0,18.5-8.3,18.5-18.5
		V22.8C477.4,12.6,469.2,4.3,458.9,4.3z"/>
	<path class="st1" d="M381.3,191.2H24.2c-10.2,0-18.5,8.3-18.5,18.5v104.7c0,10.2,8.3,18.5,18.5,18.5h357.1
		c10.2,0,18.5-8.3,18.5-18.5V209.7C399.8,199.5,391.5,191.2,381.3,191.2z"/>
	<path class="st1" d="M483.3,191.2h-60.9c-10.2,0-18.5,8.3-18.5,18.5v104.7c0,10.2,8.3,18.5,18.5,18.5h60.9
		c10.2,0,18.5-8.3,18.5-18.5V209.7C501.7,199.5,493.5,191.2,483.3,191.2z"/>
</g>
<g id="图层_1">
	<polygon points="146.4,61.6 164.4,48.7 164.8,49.1 165.1,49.6 147.1,62.5 146.4,62.3 	"/>
	<text transform="matrix(1 0 0 1 164.8708 50.661)" class="st2 st3">O</text>
	<polygon points="175.1,48.7 193,61.9 193,62.6 192.3,62.8 174.4,49.7 174.8,49.2 	"/>
	<polygon points="193.4,63 184.5,89.9 183.9,89.9 183.4,89.3 192.3,62.8 193,62.6 	"/>
	<polygon points="183.5,90.5 155.4,90.3 155.1,89.7 155.5,89.1 183.4,89.3 183.9,89.9 	"/>
	<polygon points="154.5,89.6 145.9,62.6 146.4,62.3 147.1,62.5 155.5,89.1 155.1,89.7 	"/>
	<polygon points="184.5,89.9 196,109.8 195.5,110 195,110.3 183.5,90.5 183.9,89.9 	"/>
	<text transform="matrix(1 0 0 1 193.3083 119.9774)" class="st2 st3">O</text>
	<text transform="matrix(1 0 0 1 203.1794 119.9774)" class="st2 st3">H</text>
	<polygon points="155.4,90.3 144,110.1 143.5,109.8 143,109.5 154.5,89.6 155.1,89.7 	"/>
	<text transform="matrix(1 0 0 1 126.5905 119.7563)" class="st2 st3">H</text>
	<text transform="matrix(1 0 0 1 135.7546 119.7563)" class="st2 st3">O</text>
	<polygon points="145.9,62.6 126.3,51.3 126.6,50.8 126.9,50.4 146.4,61.6 146.4,62.3 	"/>
	<text transform="matrix(1 0 0 1 116.8923 53.0077)" class="st2 st3">N</text>
	<polygon points="116.2,50.8 95.7,60 95.2,59.6 95.3,58.9 115.7,49.8 116,50.3 	"/>
	<polygon points="75.6,37.7 86.5,18.7 87,19 87.5,19.3 76.6,38.1 75.9,38.2 	"/>
	<text transform="matrix(1 0 0 1 85.7346 18.4042)" class="st2 st3">N</text>
	<polygon points="119,18.8 121.4,41.4 120.8,41.5 120.2,41.5 117.9,19.7 118.5,19.2 	"/>
	<polygon points="96.2,13.9 119,18.8 118.5,19.2 117.9,19.7 95.9,15 96,14.5 	"/>
	<polygon points="95.5,17.3 115.4,21.5 115.3,22.1 115.2,22.7 95.2,18.4 95.3,17.9 	"/>
	<polygon points="80.7,88.7 57.9,93.6 58.1,92.9 58.3,92.3 80.4,87.6 80.6,88.2 	"/>
	<text transform="matrix(1 0 0 1 34.3034 76.6796)" class="st2 st3">N</text>
	<polygon points="40.4,65 47.1,44.3 47.8,44.2 48.2,44.7 41.5,65.3 41,65.1 	"/>
	<polygon points="76.6,38.1 95.3,58.9 95.2,59.6 94.5,59.7 75.7,38.8 75.9,38.2 	"/>
	<polygon points="48,43.5 75.6,37.7 75.9,38.2 75.7,38.8 48.2,44.7 47.8,44.2 	"/>
	<polygon points="50.3,46.6 74.6,41.4 74.7,42 74.8,42.5 50.6,47.7 50.4,47.1 	"/>
	<polygon points="95.7,60 88.9,80.7 88.4,80.5 87.8,80.4 94.5,59.7 95.2,59.6 	"/>
	<polygon points="91.8,60.6 85.6,79.7 85.1,79.5 84.5,79.3 90.7,60.2 91.3,60.4 	"/>
	<text transform="matrix(1 0 0 1 81.7087 92.0824)" class="st2 st3">N</text>
	<polygon points="47.1,44.3 30.6,27.8 31,27.4 31.4,27 48,43.5 47.8,44.2 	"/>
	<text transform="matrix(1 0 0 1 9.4509 27.3261)" class="st2 st3">H</text>
	<text transform="matrix(1 0 0 1 18.6154 29.2787)" class="st2 st4">2</text>
	<text transform="matrix(1 0 0 1 22.9587 27.3261)" class="st2 st3">N</text>
	<polygon points="57.9,93.6 42.6,76.5 43,76.1 43.4,75.7 58.3,92.3 58.1,92.9 	"/>
	<polygon points="58.9,89.5 45.1,74.2 45.6,73.8 46,73.4 59.8,88.7 59.4,89.1 	"/>
	<polygon points="193,61.9 213.4,50.1 213.7,50.6 214,51.1 193.4,63 193,62.6 	"/>
	<text transform="matrix(1 0 0 1 213.2995 38.0355)" class="st2 st3">H</text>
	<text transform="matrix(1 0 0 1 222.4636 39.9882)" class="st2 st4">2</text>
	<text transform="matrix(1 0 0 1 213.2995 52.0619)" class="st2 st3">C</text>
	<polygon points="222.3,50.1 237.7,59 237.4,59.5 237.1,60 221.8,51.1 222,50.6 	"/>
	<text transform="matrix(1 0 0 1 237.8669 67.7543)" class="st2 st3">O</text>
	<polygon points="248.9,62 266.2,62 266.2,62.6 266.2,63.2 248.9,63.2 248.9,62.6 	"/>
	<text transform="matrix(1 0 0 1 267.3493 67.7543)" class="st2 st3">P</text>
	<polygon points="269.3,56.2 269.3,40.2 269.9,40.2 270.4,40.2 270.4,56.2 269.9,56.2 	"/>
	<polygon points="272.7,56.2 272.7,40.2 273.3,40.2 273.9,40.2 273.9,56.2 273.3,56.2 	"/>
	<text transform="matrix(1 0 0 1 266.6452 38.9765)" class="st2 st3">O</text>
	<polygon points="272.2,69 272.2,85 271.6,85 271,85 271,69 271.6,69 	"/>
	<text transform="matrix(1 0 0 1 266.6452 96.5321)" class="st2 st3">O</text>
	<text transform="matrix(1 0 0 1 276.5153 96.5321)" class="st2 st3">H</text>
	<polygon points="277,62 294.3,62 294.3,62.6 294.3,63.2 277,63.2 277,62.6 	"/>
	<text transform="matrix(1 0 0 1 295.4225 67.7543)" class="st2 st3">O</text>
	<polygon points="306.4,62 323.8,62 323.8,62.6 323.8,63.2 306.4,63.2 306.4,62.6 	"/>
	<text transform="matrix(1 0 0 1 324.905 67.7543)" class="st2 st3">P</text>
	<polygon points="326.8,56.2 326.8,40.2 327.4,40.2 328,40.2 328,56.2 327.4,56.2 	"/>
	<polygon points="330.3,56.2 330.3,40.2 330.9,40.2 331.4,40.2 331.4,56.2 330.9,56.2 	"/>
	<text transform="matrix(1 0 0 1 324.2009 38.9765)" class="st2 st3">O</text>
	<polygon points="329.7,69 329.7,85 329.1,85 328.6,85 328.6,69 329.1,69 	"/>
	<text transform="matrix(1 0 0 1 324.2009 96.5321)" class="st2 st3">O</text>
	<text transform="matrix(1 0 0 1 334.072 96.5321)" class="st2 st3">H</text>
	<polygon points="334.5,62 351.8,62 351.8,62.6 351.8,63.2 334.5,63.2 334.5,62.6 	"/>
	<text transform="matrix(1 0 0 1 352.9792 67.7543)" class="st2 st3">O</text>
	<polygon points="364,62 381.3,62 381.3,62.6 381.3,63.2 364,63.2 364,62.6 	"/>
	<text transform="matrix(1 0 0 1 382.4616 67.7543)" class="st2 st3">P</text>
	<polygon points="384.4,56.2 384.4,40.2 385,40.2 385.5,40.2 385.5,56.2 385,56.2 	"/>
	<polygon points="387.8,56.2 387.8,40.2 388.4,40.2 389,40.2 389,56.2 388.4,56.2 	"/>
	<text transform="matrix(1 0 0 1 381.7565 38.9765)" class="st2 st3">O</text>
	<polygon points="387.3,69 387.3,85 386.7,85 386.1,85 386.1,69 386.7,69 	"/>
	<text transform="matrix(1 0 0 1 381.7565 96.5321)" class="st2 st3">O</text>
	<text transform="matrix(1 0 0 1 391.6276 96.5321)" class="st2 st3">H</text>
	<polygon points="392.1,62 409.4,62 409.4,62.6 409.4,63.2 392.1,63.2 392.1,62.6 	"/>
	<text transform="matrix(1 0 0 1 410.5349 67.7543)" class="st2 st3">O</text>
	<text transform="matrix(1 0 0 1 420.4059 67.7543)" class="st2 st3">H</text>
	<text transform="matrix(1 0 0 1 194.9528 319.9547)" class="st2 st3">O</text>
	<text transform="matrix(1 0 0 1 204.8239 319.9547)" class="st2 st3">H</text>
	<text transform="matrix(1 0 0 1 166.5153 250.6388)" class="st2 st3">O</text>
	<text transform="matrix(1 0 0 1 35.9479 276.6569)" class="st2 st3">N</text>
	<text transform="matrix(1 0 0 1 83.3532 292.0602)" class="st2 st3">N</text>
	<text transform="matrix(1 0 0 1 128.235 319.734)" class="st2 st3">H</text>
	<text transform="matrix(1 0 0 1 137.3991 319.734)" class="st2 st3">O</text>
	<text transform="matrix(1 0 0 1 87.379 218.382)" class="st2 st3">N</text>
	<text transform="matrix(1 0 0 1 11.0954 227.3038)" class="st2 st3">H</text>
	<text transform="matrix(1 0 0 1 20.2599 229.2565)" class="st2 st4">2</text>
	<text transform="matrix(1 0 0 1 24.6032 227.3038)" class="st2 st3">N</text>
	<text transform="matrix(1 0 0 1 118.5358 252.9855)" class="st2 st3">N</text>
	<text transform="matrix(1 0 0 1 354.6227 267.7321)" class="st2 st3">O</text>
	<text transform="matrix(1 0 0 1 214.944 238.0133)" class="st2 st3">H</text>
	<text transform="matrix(1 0 0 1 224.108 239.9659)" class="st2 st4">2</text>
	<text transform="matrix(1 0 0 1 214.944 252.0397)" class="st2 st3">C</text>
	<text transform="matrix(1 0 0 1 239.5114 267.7321)" class="st2 st3">O</text>
	<text transform="matrix(1 0 0 1 268.9938 267.7321)" class="st2 st3">P</text>
	<text transform="matrix(1 0 0 1 268.2897 238.9542)" class="st2 st3">O</text>
	<text transform="matrix(1 0 0 1 268.2897 296.5104)" class="st2 st3">O</text>
	<text transform="matrix(1 0 0 1 278.1598 296.5104)" class="st2 st3">H</text>
	<text transform="matrix(1 0 0 1 297.067 267.7321)" class="st2 st3">O</text>
	<text transform="matrix(1 0 0 1 326.5494 267.7321)" class="st2 st3">P</text>
	<text transform="matrix(1 0 0 1 325.8453 238.9542)" class="st2 st3">O</text>
	<text transform="matrix(1 0 0 1 325.8453 296.5104)" class="st2 st3">O</text>
	<text transform="matrix(1 0 0 1 335.7164 296.5104)" class="st2 st3">H</text>
	<polygon points="97.8,213.9 120.6,218.7 120.1,219.2 119.6,219.7 97.6,215 97.7,214.5 	"/>
	<polygon points="97.1,217.3 117.1,221.5 116.9,222.1 116.8,222.6 96.9,218.4 97,217.8 	"/>
	<polygon points="82.3,288.7 59.6,293.5 59.8,292.9 60,292.3 82.1,287.6 82.2,288.1 	"/>
	<polygon points="42.1,264.9 48.8,244.3 49.4,244.1 49.9,244.6 43.2,265.3 42.6,265.1 	"/>
	<polygon points="49.6,243.5 77.2,237.7 77.6,238.2 77.4,238.8 49.9,244.6 49.4,244.1 	"/>
	<polygon points="52,246.5 76.2,241.4 76.3,242 76.5,242.5 52.2,247.7 52.1,247.1 	"/>
	<polygon points="97.3,260 90.6,280.7 90,280.5 89.5,280.3 96.2,259.7 96.8,259.6 	"/>
	<polygon points="93.5,260.6 87.3,279.6 86.7,279.5 86.2,279.3 92.4,260.2 92.9,260.4 	"/>
	<polygon points="48.8,244.3 32.3,227.8 32.7,227.4 33.1,227 49.6,243.5 49.4,244.1 	"/>
	<polygon points="148,261.6 166.1,248.6 166.4,249.1 166.7,249.6 148.7,262.5 148,262.2 	"/>
	<polygon points="59.6,293.5 44.2,276.5 44.6,276.1 45.1,275.7 60,292.3 59.8,292.9 	"/>
	<polygon points="60.6,289.5 46.8,274.1 47.2,273.8 47.6,273.4 61.4,288.7 61,289.1 	"/>
	<polygon points="194.6,261.9 215.1,250.1 215.4,250.6 215.6,251.1 195.1,263 194.6,262.6 	"/>
	<polygon points="176.8,248.7 194.6,261.9 194.6,262.6 193.9,262.8 176.1,249.6 176.4,249.2 	"/>
	<polygon points="224,250.1 239.3,259 239.1,259.5 238.8,260 223.4,251.1 223.7,250.6 	"/>
	<polygon points="195.1,263 186.1,289.8 185.5,289.9 185.1,289.3 193.9,262.8 194.6,262.6 	"/>
	<polygon points="250.5,262 267.8,262 267.8,262.6 267.8,263.2 250.5,263.2 250.5,262.6 	"/>
	<polygon points="185.2,290.5 157.1,290.2 156.7,289.7 157.1,289.1 185.1,289.3 185.5,289.9 	"/>
	<polygon points="270.9,256.2 270.9,240.2 271.5,240.2 272.1,240.2 272.1,256.2 271.5,256.2 	"/>
	<polygon points="274.4,256.2 274.4,240.2 275,240.2 275.5,240.2 275.5,256.2 275,256.2 	"/>
	<polygon points="156.1,289.6 147.6,262.6 148,262.2 148.7,262.5 157.1,289.1 156.7,289.7 	"/>
	<polygon points="273.8,269 273.8,285 273.2,285 272.6,285 272.6,269 273.2,269 	"/>
	<polygon points="278.6,262 295.9,262 295.9,262.6 295.9,263.2 278.6,263.2 278.6,262.6 	"/>
	<polygon points="186.1,289.8 197.6,309.7 197.1,310 196.6,310.3 185.2,290.5 185.5,289.9 	"/>
	<polygon points="308.1,262 325.4,262 325.4,262.6 325.4,263.2 308.1,263.2 308.1,262.6 	"/>
	<polygon points="328.5,256.2 328.5,240.2 329.1,240.2 329.6,240.2 329.6,256.2 329.1,256.2 	"/>
	<polygon points="331.9,256.2 331.9,240.2 332.5,240.2 333.1,240.2 333.1,256.2 332.5,256.2 	"/>
	<polygon points="157.1,290.2 145.6,310.1 145.1,309.8 144.6,309.5 156.1,289.6 156.7,289.7 	"/>
	<polygon points="331.4,269 331.4,285 330.8,285 330.2,285 330.2,269 330.8,269 	"/>
	<polygon points="336.2,262 353.5,262 353.5,262.6 353.5,263.2 336.2,263.2 336.2,262.6 	"/>
	<polygon points="78.3,238.1 97,258.9 96.8,259.6 96.2,259.7 77.4,238.8 77.6,238.2 	"/>
	<polygon points="147.6,262.6 128,251.3 128.3,250.8 128.6,250.3 148,261.6 148,262.2 	"/>
	<polygon points="117.8,250.8 97.3,260 96.8,259.6 97,258.9 117.4,249.8 117.6,250.3 	"/>
	<polygon points="77.2,237.7 88.1,218.7 88.6,219 89.1,219.3 78.3,238.1 77.6,238.2 	"/>
	<polygon points="120.6,218.7 123,241.4 122.4,241.4 121.9,241.5 119.6,219.7 120.1,219.2 	"/>
	<polygon points="365.6,262 382.6,262 382.6,262.6 382.6,263.2 365.6,263.2 365.6,262.6 	"/>
	<text transform="matrix(1 0 0 1 383.7555 267.7321)" class="st5 st2 st3">H</text>
	<text transform="matrix(1 0 0 1 410.096 267.7325)" class="st6 st2 st3">H</text>
	<text transform="matrix(1 0 0 1 419.261 267.7325)" class="st6 st2 st3">O</text>
	<text transform="matrix(1 0 0 1 448.7415 267.7325)" class="st2 st3">P</text>
	<text transform="matrix(1 0 0 1 448.0374 238.9542)" class="st2 st3">O</text>
	<text transform="matrix(1 0 0 1 448.0374 296.5099)" class="st2 st3">O</text>
	<text transform="matrix(1 0 0 1 457.9075 296.5099)" class="st2 st3">H</text>
	<text transform="matrix(1 0 0 1 476.8148 267.7325)" class="st2 st3">O</text>
	<text transform="matrix(1 0 0 1 486.6859 267.7325)" class="st2 st3">H</text>
	<polygon points="430.3,262 447.6,262 447.6,262.6 447.6,263.2 430.3,263.2 430.3,262.6 	"/>
	<polygon points="450.7,256.2 450.7,240.2 451.2,240.2 451.8,240.2 451.8,256.2 451.2,256.2 	"/>
	<polygon points="454.1,256.2 454.1,240.2 454.7,240.2 455.3,240.2 455.3,256.2 454.7,256.2 	"/>
	<polygon points="453.5,269 453.5,285 453,285 452.4,285 452.4,269 453,269 	"/>
	<polygon points="458.4,262 475.7,262 475.7,262.6 475.7,263.2 458.4,263.2 458.4,262.6 	"/>
	<text transform="matrix(1 0 0 1 382.2043 130.4765)" class="st6 st2 st3">O</text>
	<text transform="matrix(1 0 0 1 392.0754 130.4765)" class="st6 st2 st3">H</text>
	<polygon points="381.1,125.9 364.1,125.9 364.1,125.3 364.1,124.8 381.1,124.8 381.1,125.3 	"/>
	<text transform="matrix(1 0 0 1 353.7814 130.4765)" class="st5 st2 st3">H</text>
	<g>
		<g>
			<line class="st7" x1="253.2" y1="153.4" x2="253.2" y2="168.8"/>
			<g>
				<path class="st8" d="M253.2,186.9c-3.2-8.5-8.6-19.1-14.3-25.6l14.3,5.2l14.3-5.2C261.7,167.8,256.3,178.4,253.2,186.9z"/>
			</g>
		</g>
	</g>
	<g>
		<g>
			<path class="st9" d="M363.2,119.3c5.3-13.8,4.4-32.4,0.1-42.8"/>
			<g>
				<path class="st5" d="M360.3,71.2c2.3,2,5.6,4.2,8.3,5.1l-5,0.8l-3.3,3.8C360.9,78.2,360.8,74.2,360.3,71.2z"/>
			</g>
		</g>
	</g>
	<g>
		<g>
			<path class="st10" d="M380.5,118.7c-7.3-13.6-5.4-35.8-2.7-46.5"/>
			<g>
				<path class="st6" d="M379.9,66.6c0,3,0.5,7,1.6,9.7l-3.9-3.2l-5.1,0C375.1,71.6,378,68.9,379.9,66.6z"/>
			</g>
		</g>
	</g>
</g>
</svg>
