<?xml version="1.0" encoding="utf-8"?>
<!-- Generator: Adobe Illustrator 22.0.0, SVG Export Plug-In . SVG Version: 6.00 Build 0)  -->
<svg version="1.1" id="图层_1" xmlns="http://www.w3.org/2000/svg" xmlns:xlink="http://www.w3.org/1999/xlink" x="0px" y="0px"
	 viewBox="0 0 529.7 110.1" style="enable-background:new 0 0 529.7 110.1;" xml:space="preserve">
<style type="text/css">
	.st0{font-family:'ArialMT';}
	.st1{font-size:12.223px;}
	.st2{font-size:7.5219px;}
	.st3{fill:none;stroke:#000000;stroke-width:1.1792;}
	.st4{font-family:'SimSun';}
	.st5{font-size:12px;}
	.st6{font-family:'TimesNewRomanPSMT';}
</style>
<text transform="matrix(1 0 0 1 46.835 54.4514)" class="st0 st1">C</text>
<text transform="matrix(1 0 0 1 46.4937 26.7327)" class="st0 st1">O</text>
<text transform="matrix(1 0 0 1 74.8902 54.4514)" class="st0 st1">S</text>
<text transform="matrix(1 0 0 1 102.272 54.4514)" class="st0 st1">C</text>
<text transform="matrix(1 0 0 1 111.0987 54.4514)" class="st0 st1">o</text>
<text transform="matrix(1 0 0 1 117.8965 54.4514)" class="st0 st1">A</text>
<text transform="matrix(1 0 0 1 19.1168 53.8767)" class="st0 st1">C</text>
<text transform="matrix(1 0 0 1 27.9439 53.8767)" class="st0 st1">H</text>
<text transform="matrix(1 0 0 1 36.7711 55.7571)" class="st0 st2">3</text>
<polygon points="42,48.9 45.7,48.9 45.7,49.5 45.7,50.1 42,50.1 42,49.5 "/>
<polygon points="49,43.3 49,27.9 49.6,27.9 50.1,27.9 50.1,43.3 49.6,43.3 "/>
<polygon points="52.4,43.3 52.4,27.9 52.9,27.9 53.5,27.9 53.5,43.3 52.9,43.3 "/>
<polygon points="56.8,48.9 73.8,48.9 73.8,49.5 73.8,50.1 56.8,50.1 56.8,49.5 "/>
<polygon points="84.2,48.9 101.2,48.9 101.2,49.5 101.2,50.1 84.2,50.1 84.2,49.5 "/>
<text transform="matrix(1 0 0 1 144.5064 40.4114)" class="st0 st1">+</text>
<text transform="matrix(1 0 0 1 200.2681 54.1419)" class="st0 st1">C</text>
<text transform="matrix(1 0 0 1 209.0953 54.1419)" class="st0 st1">H</text>
<text transform="matrix(1 0 0 1 217.9224 56.0222)" class="st0 st2">2</text>
<text transform="matrix(1 0 0 1 227.9869 28.6385)" class="st0 st1">C</text>
<text transform="matrix(1 0 0 1 236.814 28.6385)" class="st0 st1">O</text>
<text transform="matrix(1 0 0 1 246.3209 28.6385)" class="st0 st1">O</text>
<text transform="matrix(1 0 0 1 255.8287 22.9969)" class="st0 st2">-</text>
<text transform="matrix(1 0 0 1 172.2086 27.9978)" class="st0 st1">O</text>
<text transform="matrix(1 0 0 1 227.9869 54.3567)" class="st0 st1">C</text>
<text transform="matrix(1 0 0 1 236.814 54.3567)" class="st0 st1">O</text>
<text transform="matrix(1 0 0 1 246.3209 54.3567)" class="st0 st1">O</text>
<text transform="matrix(1 0 0 1 255.8287 48.7151)" class="st0 st2">-</text>
<text transform="matrix(1 0 0 1 200.2681 27.9978)" class="st0 st1">C</text>
<polygon points="205.2,29.2 205.2,44.6 204.7,44.6 204.1,44.6 204.1,29.2 204.7,29.2 "/>
<polygon points="210.2,22.5 226.9,22.5 226.9,23 226.9,23.6 210.2,23.6 210.2,23 "/>
<polygon points="199.2,25.3 182.8,25.3 182.8,24.7 182.8,24.2 199.2,24.2 199.2,24.7 "/>
<polygon points="199.2,21.9 182.8,21.9 182.8,21.4 182.8,20.8 199.2,20.8 199.2,21.4 "/>
<polygon points="223.1,50.2 226.9,50.2 226.9,50.8 226.9,51.3 223.1,51.3 223.1,50.8 "/>
<line class="st3" x1="278" y1="36.2" x2="399.7" y2="36.2"/>
<polygon points="409.1,36.2 398,33.4 399.7,36.2 398,39 "/>
<text transform="matrix(1 0 0 1 291.7027 10.281)" class="st0 st1">H</text>
<text transform="matrix(1 0 0 1 300.5298 12.1614)" class="st0 st2">2</text>
<text transform="matrix(1 0 0 1 304.7134 10.281)" class="st0 st1">O</text>
<path class="st3" d="M377.2,20.1c-16.7,18.6-45.3,20.1-63.9,3.4c-3.5-3.2-6.6-6.9-8.9-11"/>
<polygon points="382.7,12.4 373.9,19.6 377.2,20.1 378.3,22.9 "/>
<text transform="matrix(1 0 0 1 360.1324 11.2371)" class="st0 st1">C</text>
<text transform="matrix(1 0 0 1 368.9595 11.2371)" class="st0 st1">o</text>
<text transform="matrix(1 0 0 1 375.7574 11.2371)" class="st0 st1">A</text>
<text transform="matrix(1 0 0 1 383.9107 11.2371)" class="st0 st1">-</text>
<text transform="matrix(1 0 0 1 387.981 11.2371)" class="st0 st1">S</text>
<text transform="matrix(1 0 0 1 396.1334 11.2371)" class="st0 st1">H</text>
<text transform="matrix(1 0 0 1 449.7427 48.1824)" class="st0 st1">C</text>
<text transform="matrix(1 0 0 1 449.7427 74.3264)" class="st0 st1">C</text>
<text transform="matrix(1 0 0 1 458.5699 74.3264)" class="st0 st1">H</text>
<text transform="matrix(1 0 0 1 467.397 76.2068)" class="st0 st2">2</text>
<text transform="matrix(1 0 0 1 477.4615 19.1048)" class="st0 st1">C</text>
<text transform="matrix(1 0 0 1 486.2886 19.1048)" class="st0 st1">O</text>
<text transform="matrix(1 0 0 1 495.7955 19.1048)" class="st0 st1">O</text>
<text transform="matrix(1 0 0 1 505.3033 13.4632)" class="st0 st2">-</text>
<text transform="matrix(1 0 0 1 477.4615 46.823)" class="st0 st1">C</text>
<text transform="matrix(1 0 0 1 486.2886 46.823)" class="st0 st1">O</text>
<text transform="matrix(1 0 0 1 495.7955 46.823)" class="st0 st1">O</text>
<text transform="matrix(1 0 0 1 505.3033 41.1814)" class="st0 st2">-</text>
<text transform="matrix(1 0 0 1 477.4615 74.5413)" class="st0 st1">C</text>
<text transform="matrix(1 0 0 1 486.2886 74.5413)" class="st0 st1">OO</text>
<text transform="matrix(1 0 0 1 505.3033 68.9002)" class="st0 st2">-</text>
<text transform="matrix(1 0 0 1 421.6832 48.1824)" class="st0 st1">O</text>
<text transform="matrix(1 0 0 1 431.191 48.1824)" class="st0 st1">H</text>
<text transform="matrix(1 0 0 1 449.7427 18.8899)" class="st0 st1">C</text>
<text transform="matrix(1 0 0 1 458.5699 18.8899)" class="st0 st1">H</text>
<text transform="matrix(1 0 0 1 467.397 20.7703)" class="st0 st2">2</text>
<polygon points="454.7,21.7 454.7,37.1 454.2,37.1 453.6,37.1 453.6,21.7 454.2,21.7 "/>
<polygon points="454.7,49.4 454.7,64.8 454.2,64.8 453.6,64.8 453.6,49.4 454.2,49.4 "/>
<polygon points="472.6,15 476.4,15 476.4,15.5 476.4,16.1 472.6,16.1 472.6,15.5 "/>
<polygon points="459.7,42.7 476.4,42.7 476.4,43.2 476.4,43.8 459.7,43.8 459.7,43.2 "/>
<polygon points="472.6,70.4 476.4,70.4 476.4,71 476.4,71.5 472.6,71.5 472.6,71 "/>
<polygon points="448.6,43.8 441.1,43.8 441.1,43.2 441.1,42.7 448.6,42.7 448.6,43.2 "/>
<text transform="matrix(1 0 0 1 40.6668 90.2229)"><tspan x="0" y="0" class="st4 st5">乙酰</tspan><tspan x="24" y="0" class="st6 st5">CoA</tspan></text>
<text transform="matrix(1 0 0 1 191.7934 91.2183)" class="st4 st5">草酰乙酸</text>
<text transform="matrix(1 0 0 1 311.9601 51.3203)" class="st4 st5">柠檬酸合酶</text>
<text transform="matrix(1 0 0 1 448.6347 91.2186)" class="st4 st5">柠檬酸</text>
</svg>
