<?xml version="1.0" encoding="utf-8"?>
<!-- Generator: Adobe Illustrator 27.0.0, SVG Export Plug-In . SVG Version: 6.00 Build 0)  -->
<svg version="1.1" id="图层_1" xmlns="http://www.w3.org/2000/svg" xmlns:xlink="http://www.w3.org/1999/xlink" x="0px" y="0px"
	 viewBox="0 0 668.4 175.9" style="enable-background:new 0 0 668.4 175.9;" xml:space="preserve">
<style type="text/css">
	.st0{font-family:'ArialMT';}
	.st1{font-size:12.5024px;}
	.st2{font-size:7.6938px;}
	.st3{fill:none;stroke:#000000;stroke-width:0.9449;}
	.st4{fill:none;stroke:#000000;stroke-width:1.1792;}
	.st5{font-size:5.7703px;}
	.st6{font-family:'SimSun';}
	.st7{font-size:12px;}
	.st8{font-family:'TimesNewRomanPSMT';}
</style>
<text transform="matrix(1 0 0 1 44.9917 71.9676)" class="st0 st1">C</text>
<text transform="matrix(1 0 0 1 44.9917 15.9188)" class="st0 st1">C</text>
<text transform="matrix(1 0 0 1 54.0205 15.9188)" class="st0 st1">O</text>
<text transform="matrix(1 0 0 1 63.7456 15.9188)" class="st0 st1">O</text>
<text transform="matrix(1 0 0 1 73.4702 10.1488)" class="st0 st2">-</text>
<text transform="matrix(1 0 0 1 16.6402 71.9676)" class="st0 st1">H</text>
<text transform="matrix(1 0 0 1 73.3437 71.9676)" class="st0 st1">C</text>
<text transform="matrix(1 0 0 1 44.9917 100.3192)" class="st0 st1">C</text>
<text transform="matrix(1 0 0 1 97.5478 57.7919)" class="st0 st1">O</text>
<text transform="matrix(1 0 0 1 97.5478 86.1434)" class="st0 st1">O</text>
<line class="st3" x1="106.7" y1="74.4" x2="111.4" y2="74.4"/>
<text transform="matrix(1 0 0 1 7.2632 100.3192)" class="st0 st1">H</text>
<text transform="matrix(1 0 0 1 16.292 100.3192)" class="st0 st1">O</text>
<text transform="matrix(1 0 0 1 73.3437 100.3192)" class="st0 st1">H</text>
<text transform="matrix(1 0 0 1 44.9917 128.6712)" class="st0 st1">C</text>
<text transform="matrix(1 0 0 1 20.0888 142.847)" class="st0 st1">O</text>
<text transform="matrix(1 0 0 1 69.1958 142.847)" class="st0 st1">O</text>
<line class="st3" x1="78.3" y1="131.1" x2="83.1" y2="131.1"/>
<text transform="matrix(1 0 0 1 44.9917 42.0052)" class="st0 st1">C</text>
<text transform="matrix(1 0 0 1 54.0205 42.0052)" class="st0 st1">H</text>
<text transform="matrix(1 0 0 1 63.0493 43.9291)" class="st0 st2">2</text>
<polygon points="50,44.9 50,60.6 49.5,60.6 48.9,60.6 48.9,44.9 49.5,44.9 "/>
<polygon points="48.9,32.2 48.9,16.5 49.5,16.5 50,16.5 50,32.2 49.5,32.2 "/>
<polygon points="43.8,67.5 26.8,67.5 26.8,66.9 26.8,66.3 43.8,66.3 43.8,66.9 "/>
<polygon points="55.1,66.3 72.2,66.3 72.2,66.9 72.2,67.5 55.1,67.5 55.1,66.9 "/>
<polygon points="50,73.2 50,88.9 49.5,88.9 48.9,88.9 48.9,73.2 49.5,73.2 "/>
<polygon points="82.3,61.7 95.2,54.2 95.5,54.7 95.8,55.2 82.9,62.7 82.6,62.2 "/>
<polygon points="84,64.6 96.9,57.2 97.2,57.7 97.5,58.2 84.6,65.6 84.3,65.1 "/>
<polygon points="83.7,69.7 96.7,77.1 96.4,77.6 96.1,78.1 83.2,70.7 83.5,70.2 "/>
<polygon points="43.8,95.8 27.1,95.8 27.1,95.3 27.1,94.7 43.8,94.7 43.8,95.3 "/>
<polygon points="55.1,94.7 72.2,94.7 72.2,95.3 72.2,95.8 55.1,95.8 55.1,95.3 "/>
<polygon points="50,101.6 50,117.3 49.5,117.3 48.9,117.3 48.9,101.6 49.5,101.6 "/>
<polygon points="44.9,128.8 32,136.3 31.8,135.8 31.5,135.3 44.4,127.9 44.7,128.3 "/>
<polygon points="43.2,125.9 30.3,133.3 30.1,132.8 29.8,132.4 42.7,124.9 43,125.4 "/>
<polygon points="55.4,126.4 68.3,133.8 68,134.3 67.7,134.8 54.8,127.4 55.1,126.9 "/>
<line class="st4" x1="118.5" y1="69.3" x2="242.9" y2="69.3"/>
<polygon points="252.5,69.3 241.2,66.5 242.9,69.3 241.2,72.1 "/>
<path class="st4" d="M219.9,52.8c-17.1,19-46.3,20.6-65.4,3.5c-3.6-3.3-6.7-7.1-9.2-11.3"/>
<polygon points="225.6,45 216.5,52.3 219.9,52.8 221,55.7 "/>
<text transform="matrix(1 0 0 1 121.4762 41.2814)" class="st0 st1">N</text>
<text transform="matrix(1 0 0 1 130.5049 41.2814)" class="st0 st1">A</text>
<text transform="matrix(1 0 0 1 138.8438 41.2814)" class="st0 st1">D</text>
<text transform="matrix(1 0 0 1 147.8725 41.2814)" class="st0 st1">(</text>
<text transform="matrix(1 0 0 1 152.0362 41.2814)" class="st0 st1">P</text>
<text transform="matrix(1 0 0 1 160.375 41.2814)" class="st0 st1">)</text>
<text transform="matrix(1 0 0 1 164.5387 41.2814)" class="st0 st1"> </text>
<text transform="matrix(1 0 0 1 168.0122 41.2814)" class="st0 st1"> </text>
<text transform="matrix(1 0 0 1 179.3775 41.2814)" class="st0 st1"> </text>
<text transform="matrix(1 0 0 1 182.8506 41.2814)" class="st0 st1">N</text>
<text transform="matrix(1 0 0 1 191.8794 41.2814)" class="st0 st1">A</text>
<text transform="matrix(1 0 0 1 200.2188 41.2814)" class="st0 st1">D</text>
<text transform="matrix(1 0 0 1 209.2475 41.2814)" class="st0 st1">(</text>
<text transform="matrix(1 0 0 1 213.4107 41.2814)" class="st0 st1">P</text>
<text transform="matrix(1 0 0 1 221.7495 41.2814)" class="st0 st1">)</text>
<text transform="matrix(1 0 0 1 225.9131 41.2814)" class="st0 st1">H</text>
<text transform="matrix(1 0 0 1 164.0884 35.5113)" class="st0 st2">+</text>
<text transform="matrix(1 0 0 1 239.4351 41.2814)" class="st0 st1">+</text>
<text transform="matrix(1 0 0 1 246.7364 41.2814)" class="st0 st1">H</text>
<text transform="matrix(1 0 0 1 255.7652 35.5113)" class="st0 st2">+</text>
<text transform="matrix(1 0 0 1 324.5796 100.3192)" class="st0 st1">O</text>
<text transform="matrix(1 0 0 1 296.5766 71.9676)" class="st0 st1">C</text>
<text transform="matrix(1 0 0 1 296.5766 15.9188)" class="st0 st1">C</text>
<text transform="matrix(1 0 0 1 305.606 15.9188)" class="st0 st1">O</text>
<text transform="matrix(1 0 0 1 315.3307 15.9188)" class="st0 st1">O</text>
<text transform="matrix(1 0 0 1 325.0552 10.1488)" class="st0 st2">-</text>
<text transform="matrix(1 0 0 1 268.2251 71.9676)" class="st0 st1">H</text>
<text transform="matrix(1 0 0 1 324.9292 71.9676)" class="st0 st1">C</text>
<text transform="matrix(1 0 0 1 296.5766 100.3192)" class="st0 st1">C</text>
<text transform="matrix(1 0 0 1 349.1333 57.7914)" class="st0 st1">O</text>
<text transform="matrix(1 0 0 1 349.1333 86.1434)" class="st0 st1">O</text>
<line class="st3" x1="358.3" y1="74.4" x2="363" y2="74.4"/>
<text transform="matrix(1 0 0 1 296.5766 128.6712)" class="st0 st1">C</text>
<text transform="matrix(1 0 0 1 271.6743 142.847)" class="st0 st1">O</text>
<text transform="matrix(1 0 0 1 320.7807 142.847)" class="st0 st1">O</text>
<line class="st3" x1="329.9" y1="131.1" x2="334.7" y2="131.1"/>
<text transform="matrix(1 0 0 1 296.5766 42.0052)" class="st0 st1">C</text>
<text transform="matrix(1 0 0 1 305.606 42.0052)" class="st0 st1">H</text>
<text transform="matrix(1 0 0 1 314.6343 43.9286)" class="st0 st2">2</text>
<polygon points="301.6,44.9 301.6,60.6 301,60.6 300.5,60.6 300.5,44.9 301,44.9 "/>
<polygon points="300.5,32.2 300.5,16.5 301,16.5 301.6,16.5 301.6,32.2 301,32.2 "/>
<polygon points="295.4,67.5 278.3,67.5 278.3,66.9 278.3,66.3 295.4,66.3 295.4,66.9 "/>
<polygon points="306.7,66.3 323.8,66.3 323.8,66.9 323.8,67.5 306.7,67.5 306.7,66.9 "/>
<polygon points="301.6,73.2 301.6,88.9 301,88.9 300.5,88.9 300.5,73.2 301,73.2 "/>
<polygon points="333.9,61.7 346.8,54.2 347.1,54.7 347.4,55.2 334.5,62.7 334.2,62.2 "/>
<polygon points="335.6,64.6 348.5,57.2 348.8,57.7 349.1,58.2 336.2,65.6 335.9,65.1 "/>
<polygon points="335.3,69.7 348.2,77.1 348,77.6 347.7,78.1 334.8,70.7 335,70.2 "/>
<polygon points="301.6,101.6 301.6,117.3 301,117.3 300.5,117.3 300.5,101.6 301,101.6 "/>
<polygon points="296.5,128.8 283.6,136.3 283.3,135.8 283.1,135.3 296,127.9 296.3,128.3 "/>
<polygon points="294.8,125.9 281.9,133.3 281.6,132.8 281.4,132.4 294.3,124.9 294.5,125.4 "/>
<polygon points="307,126.4 319.9,133.8 319.6,134.3 319.3,134.8 306.4,127.4 306.7,126.9 "/>
<polygon points="306.7,93 323.4,93 323.4,93.6 323.4,94.1 306.7,94.1 306.7,93.6 "/>
<polygon points="306.7,96.4 323.4,96.4 323.4,97 323.4,97.5 306.7,97.5 306.7,97 "/>
<line class="st4" x1="353.3" y1="116.7" x2="342" y2="105.4"/>
<polygon points="335.2,98.6 341.2,108.6 342,105.4 345.2,104.6 "/>
<line class="st4" x1="354.2" y1="116.8" x2="344" y2="127"/>
<polygon points="337.2,133.9 347.2,127.8 344,127 343.2,123.8 "/>
<line class="st3" x1="373.8" y1="106.9" x2="378.6" y2="106.9"/>
<line class="st3" x1="376.2" y1="104.5" x2="376.2" y2="109.2"/>
<text transform="matrix(1 0 0 1 369.1304 107.5648)" class="st0 st5">2</text>
<text transform="matrix(1 0 0 1 355.1363 121.9662)" class="st0 st1">Mn</text>
<path class="st4" d="M348.2,61.4c4-1.1,8.1,1.2,9.2,5.1c0.5,1.7,0.3,3.6-0.4,5.2"/>
<polygon points="342.8,68.5 352,63.1 348.2,61.4 347.9,59.1 "/>
<path class="st4" d="M317.3,69.8c2.3,3.9,0.9,8.9-3,11.2c-0.9,0.5-2,0.9-3,1"/>
<polygon points="303.1,78 311.9,84.3 311.3,82 313.9,79 "/>
<path class="st4" d="M314.1,89.7c0-3.5,2.9-6.4,6.4-6.4c0.5,0,1,0.1,1.5,0.2"/>
<polygon points="326.9,89.7 322.3,81.5 322,83.4 318.7,85 "/>
<line class="st4" x1="375.9" y1="66.4" x2="424.4" y2="66.4"/>
<polygon points="434,66.4 422.7,63.6 424.4,66.4 422.7,69.2 "/>
<path class="st4" d="M405.1,58.8c-4.1,4.8-10.1,7.6-16.4,7.6"/>
<polygon points="409.5,50.3 401.5,58.6 405.1,58.8 406.4,61.4 "/>
<text transform="matrix(1 0 0 1 397.6949 45.5092)" class="st0 st1">C</text>
<text transform="matrix(1 0 0 1 406.7242 45.5092)" class="st0 st1">O</text>
<text transform="matrix(1 0 0 1 416.4488 47.4325)" class="st0 st2">2</text>
<line class="st3" x1="505.5" y1="88.6" x2="510.3" y2="88.6"/>
<text transform="matrix(1 0 0 1 496.4009 100.3197)" class="st0 st1">O</text>
<text transform="matrix(1 0 0 1 468.399 71.9676)" class="st0 st1">C</text>
<text transform="matrix(1 0 0 1 468.399 15.9188)" class="st0 st1">C</text>
<text transform="matrix(1 0 0 1 477.4273 15.9188)" class="st0 st1">O</text>
<text transform="matrix(1 0 0 1 487.1519 15.9188)" class="st0 st1">O</text>
<text transform="matrix(1 0 0 1 496.8765 10.1488)" class="st0 st2">-</text>
<text transform="matrix(1 0 0 1 440.0464 71.9676)" class="st0 st1">H</text>
<text transform="matrix(1 0 0 1 468.399 100.3197)" class="st0 st1">C</text>
<text transform="matrix(1 0 0 1 468.399 128.6712)" class="st0 st1">C</text>
<text transform="matrix(1 0 0 1 443.4956 142.847)" class="st0 st1">O</text>
<text transform="matrix(1 0 0 1 492.6031 142.847)" class="st0 st1">O</text>
<line class="st3" x1="501.8" y1="131.1" x2="506.5" y2="131.1"/>
<text transform="matrix(1 0 0 1 468.399 42.0052)" class="st0 st1">C</text>
<text transform="matrix(1 0 0 1 477.4273 42.0052)" class="st0 st1">H</text>
<text transform="matrix(1 0 0 1 486.4566 43.9286)" class="st0 st2">2</text>
<polygon points="473.4,44.9 473.4,60.6 472.9,60.6 472.3,60.6 472.3,44.9 472.9,44.9 "/>
<polygon points="472.3,32.2 472.3,16.5 472.9,16.5 473.4,16.5 473.4,32.2 472.9,32.2 "/>
<polygon points="467.2,67.5 450.2,67.5 450.2,66.9 450.2,66.3 467.2,66.3 467.2,66.9 "/>
<polygon points="473.4,101.6 473.4,117.3 472.9,117.3 472.3,117.3 472.3,101.6 472.9,101.6 "/>
<polygon points="468.4,128.8 455.4,136.3 455.2,135.8 454.9,135.3 467.8,127.9 468.1,128.3 "/>
<polygon points="466.7,125.9 453.7,133.3 453.5,132.8 453.2,132.4 466.1,124.9 466.4,125.4 "/>
<polygon points="478.8,126.4 491.7,133.8 491.4,134.3 491.1,134.8 478.2,127.4 478.5,126.9 "/>
<polygon points="475.4,73.2 475.4,88.9 474.9,88.9 474.3,88.9 474.3,73.2 474.9,73.2 "/>
<polygon points="472,73.2 472,88.9 471.5,88.9 470.9,88.9 470.9,73.2 471.5,73.2 "/>
<polygon points="478.5,94.7 495.2,94.7 495.2,95.3 495.2,95.8 478.5,95.8 478.5,95.3 "/>
<line class="st4" x1="525.1" y1="116.7" x2="513.8" y2="105.4"/>
<polygon points="507,98.6 513,108.6 513.8,105.4 517,104.6 "/>
<line class="st4" x1="526" y1="116.8" x2="515.8" y2="127"/>
<polygon points="509,133.9 519,127.8 515.8,127 515,123.8 "/>
<line class="st3" x1="545.7" y1="106.9" x2="550.4" y2="106.9"/>
<line class="st3" x1="548" y1="104.5" x2="548" y2="109.2"/>
<text transform="matrix(1 0 0 1 540.9517 107.5648)" class="st0 st5">2</text>
<text transform="matrix(1 0 0 1 526.9575 121.9662)" class="st0 st1">Mn</text>
<path class="st4" d="M496,70.7c-5,5.5-12.2,8.7-19.6,8.7"/>
<polygon points="501.1,62.5 492.5,70.3 496,70.7 497.2,73.5 "/>
<line class="st3" x1="507.8" y1="51.1" x2="512.5" y2="51.1"/>
<line class="st3" x1="510.1" y1="48.7" x2="510.1" y2="53.5"/>
<text transform="matrix(1 0 0 1 499.149 62.6913)" class="st0 st1">H</text>
<path class="st4" d="M490.4,81.6c4.5-3.1,10.7-1.9,13.8,2.6c0.4,0.5,0.7,1.1,0.9,1.7"/>
<polygon points="486.1,89.8 494.2,82.3 490.4,81.6 489.5,79.2 "/>
<line class="st4" x1="538.1" y1="69.8" x2="574" y2="69.8"/>
<polygon points="583.6,69.8 572.3,67 574,69.8 572.3,72.6 "/>
<text transform="matrix(1 0 0 1 651.1284 69.079)" class="st0 st1">H</text>
<text transform="matrix(1 0 0 1 650.7788 97.431)" class="st0 st1">O</text>
<text transform="matrix(1 0 0 1 622.7769 69.079)" class="st0 st1">C</text>
<text transform="matrix(1 0 0 1 622.7769 13.0306)" class="st0 st1">C</text>
<text transform="matrix(1 0 0 1 631.8052 13.0306)" class="st0 st1">O</text>
<text transform="matrix(1 0 0 1 641.5298 13.0306)" class="st0 st1">O</text>
<text transform="matrix(1 0 0 1 651.2544 7.2601)" class="st0 st2">-</text>
<text transform="matrix(1 0 0 1 594.4243 69.079)" class="st0 st1">H</text>
<text transform="matrix(1 0 0 1 622.7769 97.431)" class="st0 st1">C</text>
<text transform="matrix(1 0 0 1 622.7769 125.7831)" class="st0 st1">C</text>
<text transform="matrix(1 0 0 1 597.8735 139.9588)" class="st0 st1">O</text>
<text transform="matrix(1 0 0 1 646.981 139.9588)" class="st0 st1">O</text>
<line class="st3" x1="656.1" y1="128.2" x2="660.9" y2="128.2"/>
<text transform="matrix(1 0 0 1 622.7769 39.1171)" class="st0 st1">C</text>
<text transform="matrix(1 0 0 1 631.8052 39.1171)" class="st0 st1">H</text>
<text transform="matrix(1 0 0 1 640.8345 41.0404)" class="st0 st2">2</text>
<polygon points="627.8,42 627.8,57.7 627.2,57.7 626.7,57.7 626.7,42 627.2,42 "/>
<polygon points="626.7,29.4 626.7,13.6 627.2,13.6 627.8,13.6 627.8,29.4 627.2,29.4 "/>
<polygon points="621.6,64.6 604.5,64.6 604.5,64 604.5,63.4 621.6,63.4 621.6,64 "/>
<polygon points="627.8,98.7 627.8,114.4 627.2,114.4 626.7,114.4 626.7,98.7 627.2,98.7 "/>
<polygon points="622.7,125.9 609.8,133.4 609.5,132.9 609.3,132.4 622.2,125 622.4,125.5 "/>
<polygon points="621,123 608.1,130.5 607.8,130 607.6,129.5 620.5,122 620.7,122.5 "/>
<polygon points="633.2,123.5 646.1,130.9 645.8,131.4 645.5,131.9 632.6,124.5 632.9,124 "/>
<polygon points="632.9,90.1 649.6,90.1 649.6,90.7 649.6,91.2 632.9,91.2 632.9,90.7 "/>
<polygon points="632.9,93.5 649.6,93.5 649.6,94.1 649.6,94.6 632.9,94.6 632.9,94.1 "/>
<polygon points="627.8,70.3 627.8,86.1 627.2,86.1 626.7,86.1 626.7,70.3 627.2,70.3 "/>
<polygon points="632.9,63.4 650,63.4 650,64 650,64.6 632.9,64.6 632.9,64 "/>
<text transform="matrix(1 0 0 1 27.151 159.7088)" class="st6 st7">异柠檬酸</text>
<text transform="matrix(1 0 0 1 137.2141 83.0526)" class="st6 st7">①异柠檬酸脱氢酶</text>
<text transform="matrix(1 0 0 1 278.4008 159.7085)" class="st6 st7">草酰琥珀酸</text>
<text transform="matrix(1 0 0 1 602.2671 158.7131)" class="st8 st7">α-</text>
<text transform="matrix(1 0 0 1 612.567 158.7278)" class="st6 st7">酮戊二酸</text>
<text transform="matrix(1 0 0 1 400.187 83.0524)" class="st6 st7">②</text>
<text transform="matrix(1 0 0 1 554.437 83.0526)" class="st6 st7">③</text>
</svg>
