<?xml version="1.0" encoding="utf-8"?>
<!-- Generator: Adobe Illustrator 22.0.0, SVG Export Plug-In . SVG Version: 6.00 Build 0)  -->
<svg version="1.1" id="图层_1" xmlns="http://www.w3.org/2000/svg" xmlns:xlink="http://www.w3.org/1999/xlink" x="0px" y="0px"
	 viewBox="0 0 361.4 149.7" style="enable-background:new 0 0 361.4 149.7;" xml:space="preserve">
<style type="text/css">
	.st0{font-family:'ArialMT';}
	.st1{font-size:12.4193px;}
	.st2{font-size:7.6427px;}
	.st3{fill:none;stroke:#000000;stroke-width:1.1792;}
	.st4{font-family:'SimSun';}
	.st5{font-size:12px;}
</style>
<text transform="matrix(1 0 0 1 14.6622 79.8324)" class="st0 st1">C</text>
<text transform="matrix(1 0 0 1 23.631 79.8324)" class="st0 st1">H</text>
<text transform="matrix(1 0 0 1 32.5997 81.7435)" class="st0 st2">2</text>
<text transform="matrix(1 0 0 1 14.6622 25.7562)" class="st0 st1">C</text>
<text transform="matrix(1 0 0 1 23.631 25.7562)" class="st0 st1">OO</text>
<text transform="matrix(1 0 0 1 42.9513 20.0243)" class="st0 st2">-</text>
<text transform="matrix(1 0 0 1 14.6622 110.2464)" class="st0 st1">C</text>
<text transform="matrix(1 0 0 1 23.631 110.2464)" class="st0 st1">O</text>
<text transform="matrix(1 0 0 1 33.2911 110.2464)" class="st0 st1">O</text>
<text transform="matrix(1 0 0 1 42.9513 104.515)" class="st0 st2">-</text>
<text transform="matrix(1 0 0 1 14.6622 51.6693)" class="st0 st1">C</text>
<text transform="matrix(1 0 0 1 23.631 51.6693)" class="st0 st1">H</text>
<text transform="matrix(1 0 0 1 32.5997 53.5799)" class="st0 st2">2</text>
<polygon points="19.7,54.5 19.7,70.1 19.1,70.1 18.6,70.1 18.6,54.5 19.1,54.5 "/>
<polygon points="18.6,42 18.6,26.3 19.1,26.3 19.7,26.3 19.7,42 19.1,42 "/>
<polygon points="19.7,82.7 19.7,98.3 19.1,98.3 18.6,98.3 18.6,82.7 19.1,82.7 "/>
<line class="st3" x1="67.3" y1="48.4" x2="241.8" y2="48.4"/>
<polygon points="251.4,49 240.1,45.6 241.8,49 "/>
<line class="st3" x1="251.4" y1="73.5" x2="76.9" y2="73.5"/>
<polygon points="67.3,73 78.6,76.3 76.9,73 "/>
<path class="st3" d="M189.1,26c-5.2,16.4-22.8,25.6-39.2,20.4c-13-4.1-21.8-16.2-21.8-29.8"/>
<polygon points="190.6,16.6 185.8,27.1 189.1,26 191.3,28.1 "/>
<text transform="matrix(1 0 0 1 114.4356 11.4164)" class="st0 st1">F</text>
<text transform="matrix(1 0 0 1 122.0216 11.4164)" class="st0 st1">A</text>
<text transform="matrix(1 0 0 1 130.3048 11.4164)" class="st0 st1">D</text>
<text transform="matrix(1 0 0 1 175.8946 12.1708)" class="st0 st1">F</text>
<text transform="matrix(1 0 0 1 183.4815 12.1708)" class="st0 st1">A</text>
<text transform="matrix(1 0 0 1 191.7647 12.1708)" class="st0 st1">D</text>
<text transform="matrix(1 0 0 1 200.7335 12.1708)" class="st0 st1">H</text>
<text transform="matrix(1 0 0 1 209.7022 14.0814)" class="st0 st2">2</text>
<path class="st3" d="M129.6,96.9c5.2-16.4,22.8-25.6,39.2-20.4c13,4.1,21.8,16.2,21.8,29.8"/>
<polygon points="128.1,106.3 132.9,95.8 129.6,96.9 127.3,94.8 "/>
<text transform="matrix(1 0 0 1 114.4356 120.3187)" class="st0 st1">F</text>
<text transform="matrix(1 0 0 1 122.0216 120.3187)" class="st0 st1">A</text>
<text transform="matrix(1 0 0 1 130.3048 120.3187)" class="st0 st1">D</text>
<text transform="matrix(1 0 0 1 175.8946 120.5013)" class="st0 st1">F</text>
<text transform="matrix(1 0 0 1 183.4815 120.5013)" class="st0 st1">A</text>
<text transform="matrix(1 0 0 1 191.7647 120.5013)" class="st0 st1">D</text>
<text transform="matrix(1 0 0 1 200.7335 120.5013)" class="st0 st1">H</text>
<text transform="matrix(1 0 0 1 209.7022 122.4125)" class="st0 st2">2</text>
<text transform="matrix(1 0 0 1 302.2921 48.975)" class="st0 st1">C</text>
<text transform="matrix(1 0 0 1 302.2921 77.139)" class="st0 st1">C</text>
<text transform="matrix(1 0 0 1 288.2101 24.5848)" class="st0 st1">H</text>
<text transform="matrix(1 0 0 1 316.3741 25.2357)" class="st0 st1">C</text>
<text transform="matrix(1 0 0 1 325.3429 25.2357)" class="st0 st1">O</text>
<text transform="matrix(1 0 0 1 335.003 25.2357)" class="st0 st1">O</text>
<text transform="matrix(1 0 0 1 344.6632 19.5038)" class="st0 st2">-</text>
<text transform="matrix(1 0 0 1 266.4063 94.7337)" class="st0 st2">-</text>
<text transform="matrix(1 0 0 1 268.9513 100.4662)" class="st0 st1">O</text>
<text transform="matrix(1 0 0 1 278.6114 100.4662)" class="st0 st1">O</text>
<text transform="matrix(1 0 0 1 288.2716 100.4662)" class="st0 st1">C</text>
<text transform="matrix(1 0 0 1 316.3741 101.5287)" class="st0 st1">H</text>
<polygon points="309.3,50.2 309.3,65.8 308.8,65.8 308.2,65.8 308.2,50.2 308.8,50.2 "/>
<polygon points="306,50.2 306,65.8 305.4,65.8 304.8,65.8 304.8,50.2 305.4,50.2 "/>
<polygon points="302.7,38 295.8,26.1 296.3,25.8 296.8,25.5 303.6,37.4 303.2,37.7 "/>
<polygon points="309.9,37.4 316.8,25.5 317.2,25.8 317.7,26.1 310.9,38 310.4,37.7 "/>
<polygon points="303.6,78.7 296.8,90.5 296.3,90.2 295.8,90 302.7,78.1 303.2,78.4 "/>
<polygon points="310.9,78.1 317.7,90 317.2,90.2 316.8,90.5 309.9,78.7 310.4,78.4 "/>
<text transform="matrix(1 0 0 1 8.972 130.5891)" class="st4 st5">琥珀酸</text>
<text transform="matrix(1 0 0 1 123.6387 64.5891)" class="st4 st5">琥珀酸脱氢酶</text>
<text transform="matrix(1 0 0 1 280.6118 130.5894)" class="st4 st5">延胡索酸</text>
</svg>
