<?xml version="1.0" encoding="utf-8"?>
<!-- Generator: Adobe Illustrator 22.0.0, SVG Export Plug-In . SVG Version: 6.00 Build 0)  -->
<svg version="1.1" id="图层_1" xmlns="http://www.w3.org/2000/svg" xmlns:xlink="http://www.w3.org/1999/xlink" x="0px" y="0px"
	 viewBox="0 0 677.6 112.5" style="enable-background:new 0 0 677.6 112.5;" xml:space="preserve">
<style type="text/css">
	.st0{fill:#AFBDE7;}
	.st1{font-family:'ArialMT';}
	.st2{font-size:12.2384px;}
	.st3{font-size:7.5313px;}
	.st4{fill:none;stroke:#000000;stroke-width:1.1792;}
	.st5{font-family:'AdobeSongStd-Light-GBpc-EUC-H';}
	.st6{fill:none;}
	.st7{font-size:12px;}
</style>
<rect x="475.6" y="5.3" class="st0" width="50.2" height="92.4"/>
<text transform="matrix(1 0 0 1 63.8203 20.8794)" class="st1 st2">H</text>
<text transform="matrix(1 0 0 1 23.1479 47.0562)" class="st1 st2">H</text>
<text transform="matrix(1 0 0 1 31.9858 48.939)" class="st1 st3">2</text>
<text transform="matrix(1 0 0 1 36.1743 47.0562)" class="st1 st2">N</text>
<text transform="matrix(1 0 0 1 91.5737 48.6323)" class="st1 st2">C</text>
<text transform="matrix(1 0 0 1 63.8203 74.8096)" class="st1 st2">R</text>
<text transform="matrix(1 0 0 1 72.6587 76.6924)" class="st1 st3">1</text>
<text transform="matrix(1 0 0 1 91.2314 20.8794)" class="st1 st2">O</text>
<text transform="matrix(1 0 0 1 118.9848 48.6323)" class="st1 st2">O</text>
<text transform="matrix(1 0 0 1 128.5044 48.6323)" class="st1 st2">H</text>
<text transform="matrix(1 0 0 1 63.8203 48.6323)" class="st1 st2">C</text>
<polygon points="67.7,37.5 67.7,22.1 68.2,22.1 68.8,22.1 68.8,37.5 68.2,37.5 "/>
<polygon points="62.7,44.2 46,44.2 46,43.7 46,43.1 62.7,43.1 62.7,43.7 "/>
<polygon points="73.8,43.1 90.5,43.1 90.5,43.7 90.5,44.2 73.8,44.2 73.8,43.7 "/>
<polygon points="68.8,49.8 68.8,65.3 68.2,65.3 67.7,65.3 67.7,49.8 68.2,49.8 "/>
<polygon points="93.8,37.5 93.8,22.1 94.3,22.1 94.9,22.1 94.9,37.5 94.3,37.5 "/>
<polygon points="97.1,37.5 97.1,22.1 97.7,22.1 98.2,22.1 98.2,37.5 97.7,37.5 "/>
<polygon points="101.5,43.1 117.9,43.1 117.9,43.7 117.9,44.2 101.5,44.2 101.5,43.7 "/>
<text transform="matrix(1 0 0 1 211.6914 19.3027)" class="st1 st2">N</text>
<text transform="matrix(1 0 0 1 220.5293 19.3027)" class="st1 st2">H</text>
<text transform="matrix(1 0 0 1 229.3676 21.1855)" class="st1 st3">2</text>
<text transform="matrix(1 0 0 1 239.4443 48.6323)" class="st1 st2">C</text>
<text transform="matrix(1 0 0 1 248.2827 48.6323)" class="st1 st2">O</text>
<text transform="matrix(1 0 0 1 257.8022 48.6323)" class="st1 st2">O</text>
<text transform="matrix(1 0 0 1 267.3217 48.6323)" class="st1 st2">H</text>
<text transform="matrix(1 0 0 1 183.938 48.6323)" class="st1 st2">N</text>
<text transform="matrix(1 0 0 1 211.6914 74.8096)" class="st1 st2">R</text>
<text transform="matrix(1 0 0 1 220.5293 76.6924)" class="st1 st3">2</text>
<text transform="matrix(1 0 0 1 164.3134 29.0078)" class="st1 st2">H</text>
<text transform="matrix(1 0 0 1 164.3134 68.2568)" class="st1 st2">H</text>
<text transform="matrix(1 0 0 1 211.6914 48.6323)" class="st1 st2">C</text>
<polygon points="215.6,37.5 215.6,22.1 216.1,22.1 216.7,22.1 216.7,37.5 216.1,37.5 "/>
<polygon points="221.6,43.1 238.3,43.1 238.3,43.7 238.3,44.2 221.6,44.2 221.6,43.7 "/>
<polygon points="210.6,44.2 193.9,44.2 193.9,43.7 193.9,43.1 210.6,43.1 210.6,43.7 "/>
<polygon points="216.7,49.8 216.7,65.3 216.1,65.3 215.6,65.3 215.6,49.8 216.1,49.8 "/>
<polygon points="182.4,38.5 173.9,30 174.3,29.6 174.7,29.2 183.2,37.8 182.8,38.1 "/>
<polygon points="183.2,49.6 174.7,58.2 174.3,57.8 173.9,57.4 182.4,48.8 182.8,49.2 "/>
<text transform="matrix(1 0 0 1 146.0796 48.1704)" class="st1 st2">+</text>
<line class="st4" x1="294.2" y1="41.4" x2="372.9" y2="41.4"/>
<line class="st4" x1="303.6" y1="44.7" x2="382.3" y2="44.7"/>
<polygon points="294.2,44.2 305.3,47.5 303.6,44.2 "/>
<polygon points="382.3,41.9 371.2,38.6 372.9,41.9 "/>
<text transform="matrix(1 0 0 1 452.312 72.9268)" class="st1 st2">R</text>
<text transform="matrix(1 0 0 1 461.1504 74.8096)" class="st1 st3">1</text>
<text transform="matrix(1 0 0 1 452.312 18.9966)" class="st1 st2">H</text>
<text transform="matrix(1 0 0 1 411.6396 45.1733)" class="st1 st2">H</text>
<text transform="matrix(1 0 0 1 420.4775 47.0562)" class="st1 st3">2</text>
<text transform="matrix(1 0 0 1 424.6665 45.1733)" class="st1 st2">N</text>
<text transform="matrix(1 0 0 1 480.0654 46.7495)" class="st1 st2">C</text>
<text transform="matrix(1 0 0 1 479.7231 18.9966)" class="st1 st2">O</text>
<text transform="matrix(1 0 0 1 507.8188 46.7495)" class="st1 st2">N</text>
<text transform="matrix(1 0 0 1 507.8188 18.9966)" class="st1 st2">H</text>
<text transform="matrix(1 0 0 1 535.5718 46.7495)" class="st1 st2">C</text>
<text transform="matrix(1 0 0 1 535.5718 18.9966)" class="st1 st2">H</text>
<text transform="matrix(1 0 0 1 535.5718 72.9268)" class="st1 st2">R</text>
<text transform="matrix(1 0 0 1 544.4102 74.8096)" class="st1 st3">2</text>
<text transform="matrix(1 0 0 1 563.3247 46.7495)" class="st1 st2">C</text>
<text transform="matrix(1 0 0 1 572.1636 46.7495)" class="st1 st2">O</text>
<text transform="matrix(1 0 0 1 581.6831 46.7495)" class="st1 st2">O</text>
<text transform="matrix(1 0 0 1 591.2026 46.7495)" class="st1 st2">H</text>
<text transform="matrix(1 0 0 1 452.312 46.7495)" class="st1 st2">C</text>
<polygon points="457.3,48 457.3,63.4 456.7,63.4 456.2,63.4 456.2,48 456.7,48 "/>
<polygon points="456.2,35.6 456.2,20.2 456.7,20.2 457.3,20.2 457.3,35.6 456.7,35.6 "/>
<polygon points="451.2,42.3 434.5,42.3 434.5,41.8 434.5,41.2 451.2,41.2 451.2,41.8 "/>
<polygon points="462.3,41.2 479,41.2 479,41.8 479,42.3 462.3,42.3 462.3,41.8 "/>
<polygon points="482.3,35.6 482.3,20.2 482.8,20.2 483.4,20.2 483.4,35.6 482.8,35.6 "/>
<polygon points="485.6,35.6 485.6,20.2 486.1,20.2 486.7,20.2 486.7,35.6 486.1,35.6 "/>
<polygon points="490,41.2 506.7,41.2 506.7,41.8 506.7,42.3 490,42.3 490,41.8 "/>
<polygon points="511.7,35.6 511.7,20.2 512.2,20.2 512.8,20.2 512.8,35.6 512.2,35.6 "/>
<polygon points="517.8,41.2 534.5,41.2 534.5,41.8 534.5,42.3 517.8,42.3 517.8,41.8 "/>
<polygon points="539.4,35.6 539.4,20.2 540,20.2 540.5,20.2 540.5,35.6 540,35.6 "/>
<polygon points="540.5,48 540.5,63.4 540,63.4 539.4,63.4 539.4,48 540,48 "/>
<polygon points="545.5,41.2 562.2,41.2 562.2,41.8 562.2,42.3 545.5,42.3 545.5,41.8 "/>
<text transform="matrix(1 0 0 1 618.6548 45.4707)" class="st1 st2">+</text>
<text transform="matrix(1 0 0 1 625.8013 45.4707)" class="st1 st2"> </text>
<text transform="matrix(1 0 0 1 629.2017 45.4707)" class="st1 st2">H</text>
<text transform="matrix(1 0 0 1 638.0396 47.3535)" class="st1 st3">2</text>
<text transform="matrix(1 0 0 1 642.228 45.4707)" class="st1 st2">O</text>
<text transform="matrix(1 0 0 1 325.1279 61.7646)" class="st5 st2">水解</text>
<text transform="matrix(1 0 0 1 312.8896 34.4313)" class="st5 st2">脱水缩合</text>
<rect x="475.6" y="83.7" class="st6" width="50.2" height="13.3"/>
<text transform="matrix(1 0 0 1 488.6631 94.2266)" class="st5 st7">肽键</text>
</svg>
