<?xml version="1.0" standalone='no'?><!-- IBoard SVG File --><svg xmlns="http://www.w3.org/2000/svg" xmlns:xlink="http://www.w3.org/1999/xlink" viewBox="239.74 110.64 90.85 79.72" height="72.72" width="97.85" version="1.1"><!-- SVG File --><text xml:space="preserve" x="279.331543" y="150.761612" textLength="8.670000" lengthAdjust="spacingAndGlyphs"><tspan font-family="Arial" font-weight="normal" baseline-shift="0" font-size="13" fill="#000000">P</tspan></text><polygon points="281.308136,138.939667 281.308136,122.573334 281.897736,122.573334 282.487335,122.573334 282.487335,138.939667 281.897736,138.939667 " style="fill:rgb(0,0,0);fill-opacity:1.000000"/><polygon points="284.845795,138.939667 284.845795,122.573334 285.435394,122.573334 286.024994,122.573334 286.024994,138.939667 285.435394,138.939667 " style="fill:rgb(0,0,0);fill-opacity:1.000000"/><text xml:space="preserve" x="278.609894" y="121.281296" textLength="10.113334" lengthAdjust="spacingAndGlyphs"><tspan font-family="Arial" font-weight="normal" baseline-shift="0" font-size="13" fill="#000000">O</tspan></text><polygon points="289.180756,144.907059 306.911011,144.907059 306.911011,145.496658 306.911011,146.086258 289.180756,146.086258 289.180756,145.496658 " style="fill:rgb(0,0,0);fill-opacity:1.000000"/><text xml:space="preserve" x="308.090210" y="150.761612" textLength="19.500000" lengthAdjust="spacingAndGlyphs"><tspan font-family="Arial" font-weight="normal" baseline-shift="0" font-size="13" fill="#000000">O</tspan><tspan font-family="Arial" font-weight="normal" baseline-shift="0" font-size="13" fill="#000000">H</tspan></text><polygon points="284.256165,152.053650 284.256165,168.419983 283.666565,168.419983 283.076965,168.419983 283.076965,152.053650 283.666565,152.053650 " style="fill:rgb(0,0,0);fill-opacity:1.000000"/><text xml:space="preserve" x="278.609894" y="180.241928" textLength="19.500000" lengthAdjust="spacingAndGlyphs"><tspan font-family="Arial" font-weight="normal" baseline-shift="0" font-size="13" fill="#000000">O</tspan><tspan font-family="Arial" font-weight="normal" baseline-shift="0" font-size="13" fill="#000000">H</tspan></text><polygon points="278.152344,146.086258 260.422119,146.086258 260.422119,145.496658 260.422119,144.907059 278.152344,144.907059 278.152344,145.496658 " style="fill:rgb(0,0,0);fill-opacity:1.000000"/><text xml:space="preserve" x="239.742920" y="150.761612" textLength="19.500000" lengthAdjust="spacingAndGlyphs"><tspan font-family="Arial" font-weight="normal" baseline-shift="0" font-size="13" fill="#000000">H</tspan><tspan font-family="Arial" font-weight="normal" baseline-shift="0" font-size="13" fill="#000000">O</tspan></text></svg>