<?xml version="1.0" encoding="utf-8"?>
<!-- Generator: Adobe Illustrator 22.0.0, SVG Export Plug-In . SVG Version: 6.00 Build 0)  -->
<svg version="1.1" id="图层_1" xmlns="http://www.w3.org/2000/svg" xmlns:xlink="http://www.w3.org/1999/xlink" x="0px" y="0px"
	 viewBox="0 0 105.1 45.3" style="enable-background:new 0 0 105.1 45.3;" xml:space="preserve">
<style type="text/css">
	.st0{font-family:'TimesNewRomanPSMT';}
	.st1{font-size:11.261px;}
	.st2{font-family:'ArialMT';}
	.st3{font-size:6.9299px;}
</style>
<text transform="matrix(1 0 0 1 10.0654 10.3514)" class="st0 st1">R</text>
<text transform="matrix(1 0 0 1 17.5766 10.3514)" class="st0 st1">=</text>
<text transform="matrix(1 0 0 1 46.9213 11.0359)" class="st2 st1">C</text>
<text transform="matrix(1 0 0 1 55.0536 11.0359)" class="st2 st1">H</text>
<text transform="matrix(1 0 0 1 72.4579 10.5853)" class="st2 st1">C</text>
<text transform="matrix(1 0 0 1 80.5908 10.5853)" class="st2 st1">H</text>
<text transform="matrix(1 0 0 1 88.7231 12.3177)" class="st2 st3">3</text>
<text transform="matrix(1 0 0 1 46.6069 36.5726)" class="st2 st1">O</text>
<text transform="matrix(1 0 0 1 55.3661 36.5726)" class="st2 st1">H</text>
<polygon points="25.4,6 45.9,6 45.9,6.5 45.9,7 25.4,7 25.4,6.5 "/>
<polygon points="64.2,6 71.4,6 71.4,6.5 71.4,7 64.2,7 64.2,6.5 "/>
<polygon points="51.5,12.2 51.5,26.3 51,26.3 50.5,26.3 50.5,12.2 51,12.2 "/>
</svg>
