<?xml version="1.0" encoding="utf-8"?>
<!-- Generator: Adobe Illustrator 22.0.0, SVG Export Plug-In . SVG Version: 6.00 Build 0)  -->
<svg version="1.1" id="图层_1" xmlns="http://www.w3.org/2000/svg" xmlns:xlink="http://www.w3.org/1999/xlink" x="0px" y="0px"
	 viewBox="0 0 44 44.3" style="enable-background:new 0 0 44 44.3;" xml:space="preserve">
<style type="text/css">
	.st0{font-family:'ArialMT';}
	.st1{font-size:11.4762px;}
</style>
<text transform="matrix(1 0 0 1 17.9567 26.2156)" class="st0 st1">C</text>
<ellipse cx="20.3" cy="13.1" rx="1.2" ry="1.2"/>
<ellipse cx="23.9" cy="13.1" rx="1.2" ry="1.2"/>
<ellipse cx="30.6" cy="19.8" rx="1.2" ry="1.2"/>
<ellipse cx="30.6" cy="23.3" rx="1.2" ry="1.2"/>
<ellipse cx="23.9" cy="30" rx="1.2" ry="1.2"/>
<ellipse cx="20.3" cy="30" rx="1.2" ry="1.2"/>
<ellipse cx="13.6" cy="23.3" rx="1.2" ry="1.2"/>
<ellipse cx="13.6" cy="19.8" rx="1.2" ry="1.2"/>
<text transform="matrix(1 0 0 1 17.9567 9.0189)" class="st0 st1">H</text>
<text transform="matrix(1 0 0 1 35.154 26.2156)" class="st0 st1">H</text>
<text transform="matrix(1 0 0 1 0.7599 26.2156)" class="st0 st1">H</text>
<text transform="matrix(1 0 0 1 17.9567 43.4129)" class="st0 st1">H</text>
</svg>
