<?xml version="1.0" standalone='no'?><!-- IBoard SVG File --><svg xmlns="http://www.w3.org/2000/svg" xmlns:xlink="http://www.w3.org/1999/xlink" viewBox="488.63 -238.40 202.98 106.81" height="99.81" width="209.98" version="1.1"><!-- SVG File --><text xml:space="preserve" x="488.628326" y="-199.068649" textLength="16.000000" lengthAdjust="spacingAndGlyphs"><tspan font-family="Times New Roman" font-weight="normal" baseline-shift="0" font-size="13" fill="#000000">R</tspan><tspan font-family="Times New Roman" font-weight="normal" baseline-shift="0" font-size="13" fill="#000000">=</tspan></text><text xml:space="preserve" x="532.815125" y="-200.514038" textLength="36.106667" lengthAdjust="spacingAndGlyphs"><tspan font-family="Arial" font-weight="normal" baseline-shift="0" font-size="13" fill="#000000">(</tspan><tspan font-family="Arial" font-weight="normal" baseline-shift="0" font-size="13" fill="#000000">C</tspan><tspan font-family="Arial" font-weight="normal" baseline-shift="0" font-size="13" fill="#000000">H</tspan><tspan font-family="Arial" font-weight="normal" baseline-shift="-2" font-size="8" fill="#000000">2</tspan><tspan font-family="Arial" font-weight="normal" baseline-shift="0" font-size="13" fill="#000000">)</tspan><tspan font-family="Arial" font-weight="normal" baseline-shift="-2" font-size="8" fill="#000000">4</tspan></text><polygon points="505.499817,-204.731247 531.635925,-204.731247 531.635925,-204.141647 531.635925,-203.552048 505.499817,-203.552048 505.499817,-204.141647 " style="fill:rgb(0,0,0);fill-opacity:1.000000"/><text xml:space="preserve" x="581.397888" y="-198.278687" textLength="18.773333" lengthAdjust="spacingAndGlyphs"><tspan font-family="Arial" font-weight="normal" baseline-shift="0" font-size="13" fill="#000000">N</tspan><tspan font-family="Arial" font-weight="normal" baseline-shift="0" font-size="13" fill="#000000">H</tspan></text><text xml:space="preserve" x="610.878296" y="-198.278687" textLength="9.386666" lengthAdjust="spacingAndGlyphs"><tspan font-family="Arial" font-weight="normal" baseline-shift="0" font-size="13" fill="#000000">C</tspan></text><text xml:space="preserve" x="640.358459" y="-198.278687" textLength="18.773333" lengthAdjust="spacingAndGlyphs"><tspan font-family="Arial" font-weight="normal" baseline-shift="0" font-size="13" fill="#000000">C</tspan><tspan font-family="Arial" font-weight="normal" baseline-shift="0" font-size="13" fill="#000000">H</tspan></text><text xml:space="preserve" x="610.514893" y="-227.759003" textLength="10.113334" lengthAdjust="spacingAndGlyphs"><tspan font-family="Arial" font-weight="normal" baseline-shift="0" font-size="13" fill="#000000">O</tspan></text><text xml:space="preserve" x="669.838806" y="-198.278687" textLength="9.386666" lengthAdjust="spacingAndGlyphs"><tspan font-family="Arial" font-weight="normal" baseline-shift="0" font-size="13" fill="#000000">N</tspan></text><text xml:space="preserve" x="640.358459" y="-168.798370" textLength="18.773333" lengthAdjust="spacingAndGlyphs"><tspan font-family="Arial" font-weight="normal" baseline-shift="0" font-size="13" fill="#000000">C</tspan><tspan font-family="Arial" font-weight="normal" baseline-shift="0" font-size="13" fill="#000000">H</tspan></text><text xml:space="preserve" x="669.838745" y="-168.798370" textLength="18.773333" lengthAdjust="spacingAndGlyphs"><tspan font-family="Arial" font-weight="normal" baseline-shift="0" font-size="13" fill="#000000">C</tspan><tspan font-family="Arial" font-weight="normal" baseline-shift="0" font-size="13" fill="#000000">H</tspan></text><polygon points="649.450256,-167.807251 656.330688,-156.213699 655.823669,-155.912781 655.316650,-155.611862 648.436218,-167.205414 648.943237,-167.506332 " style="fill:rgb(0,0,0);fill-opacity:1.000000"/><polygon points="671.105591,-167.203094 664.152954,-155.609543 663.647278,-155.912781 663.141602,-156.216019 670.094238,-167.809570 670.599915,-167.506332 " style="fill:rgb(0,0,0);fill-opacity:1.000000"/><text xml:space="preserve" x="610.878174" y="-170.472809" textLength="23.110001" lengthAdjust="spacingAndGlyphs"><tspan font-family="Arial" font-weight="normal" baseline-shift="0" font-size="13" fill="#000000">C</tspan><tspan font-family="Arial" font-weight="normal" baseline-shift="0" font-size="13" fill="#000000">H</tspan><tspan font-family="Arial" font-weight="normal" baseline-shift="-2" font-size="8" fill="#000000">3</tspan></text><polygon points="569.944275,-204.133240 580.218689,-204.133240 580.218689,-203.543640 580.218689,-202.954041 569.944275,-202.954041 569.944275,-203.543640 " style="fill:rgb(0,0,0);fill-opacity:1.000000"/><polygon points="601.350403,-204.133240 609.699097,-204.133240 609.699097,-203.543640 609.699097,-202.954041 601.350403,-202.954041 601.350403,-203.543640 " style="fill:rgb(0,0,0);fill-opacity:1.000000"/><polygon points="621.444153,-204.133240 639.179260,-204.133240 639.179260,-203.543640 639.179260,-202.954041 621.444153,-202.954041 621.444153,-203.543640 " style="fill:rgb(0,0,0);fill-opacity:1.000000"/><polygon points="613.213196,-210.100632 613.213196,-226.466965 613.802795,-226.466965 614.392395,-226.466965 614.392395,-210.100632 613.802795,-210.100632 " style="fill:rgb(0,0,0);fill-opacity:1.000000"/><polygon points="616.750793,-210.100632 616.750793,-226.466965 617.340393,-226.466965 617.929993,-226.466965 617.929993,-210.100632 617.340393,-210.100632 " style="fill:rgb(0,0,0);fill-opacity:1.000000"/><polygon points="660.310974,-204.133240 668.659607,-204.133240 668.659607,-203.543640 668.659607,-202.954041 660.310974,-202.954041 660.310974,-203.543640 " style="fill:rgb(0,0,0);fill-opacity:1.000000"/><polygon points="645.641418,-196.986649 645.641418,-180.620316 645.051819,-180.620316 644.462219,-180.620316 644.462219,-196.986649 645.051819,-196.986649 " style="fill:rgb(0,0,0);fill-opacity:1.000000"/><polygon points="675.121704,-196.986649 675.121704,-180.620316 674.532104,-180.620316 673.942505,-180.620316 673.942505,-196.986649 674.532104,-196.986649 " style="fill:rgb(0,0,0);fill-opacity:1.000000"/><polygon points="671.584045,-196.986649 671.584045,-180.620316 670.994446,-180.620316 670.404846,-180.620316 670.404846,-196.986649 670.994446,-196.986649 " style="fill:rgb(0,0,0);fill-opacity:1.000000"/><text xml:space="preserve" x="655.021729" y="-145.765274" textLength="23.110001" lengthAdjust="spacingAndGlyphs"><tspan font-family="Arial" font-weight="normal" baseline-shift="0" font-size="13" fill="#000000">C</tspan><tspan font-family="Arial" font-weight="normal" baseline-shift="0" font-size="13" fill="#000000">H</tspan><tspan font-family="Arial" font-weight="normal" baseline-shift="-2" font-size="8" fill="#000000">2</tspan></text><polygon points="639.179260,-173.473724 635.167358,-173.473724 635.167358,-174.063324 635.167358,-174.652924 639.179260,-174.652924 639.179260,-174.063324 " style="fill:rgb(0,0,0);fill-opacity:1.000000"/></svg>