<?xml version="1.0" encoding="utf-8"?>
<!-- Generator: Adobe Illustrator 22.0.0, SVG Export Plug-In . SVG Version: 6.00 Build 0)  -->
<svg version="1.1" id="图层_1" xmlns="http://www.w3.org/2000/svg" xmlns:xlink="http://www.w3.org/1999/xlink" x="0px" y="0px"
	 viewBox="0 0 135.9 47.7" style="enable-background:new 0 0 135.9 47.7;" xml:space="preserve">
<style type="text/css">
	.st0{font-family:'TimesNewRomanPSMT';}
	.st1{font-size:11.337px;}
	.st2{font-family:'ArialMT';}
	.st3{font-size:6.9766px;}
</style>
<text transform="matrix(1 0 0 1 11.7495 10.425)" class="st0 st1">R</text>
<text transform="matrix(1 0 0 1 19.3115 10.425)" class="st0 st1">=</text>
<text transform="matrix(1 0 0 1 50.0165 9.6536)" class="st2 st1">C</text>
<text transform="matrix(1 0 0 1 58.204 9.6536)" class="st2 st1">H</text>
<text transform="matrix(1 0 0 1 66.3911 11.3977)" class="st2 st3">2</text>
<text transform="matrix(1 0 0 1 75.726 10.114)" class="st2 st1">C</text>
<text transform="matrix(1 0 0 1 83.913 10.114)" class="st2 st1">H</text>
<text transform="matrix(1 0 0 1 101.435 9.6536)" class="st2 st1">C</text>
<text transform="matrix(1 0 0 1 109.622 9.6536)" class="st2 st1">H</text>
<text transform="matrix(1 0 0 1 117.8095 11.3977)" class="st2 st3">3</text>
<text transform="matrix(1 0 0 1 75.726 35.3625)" class="st2 st1">C</text>
<text transform="matrix(1 0 0 1 83.913 35.3625)" class="st2 st1">H</text>
<text transform="matrix(1 0 0 1 92.1005 37.1067)" class="st2 st3">3</text>
<polygon points="28.4,6 49,6 49,6.5 49,7 28.4,7 28.4,6.5 "/>
<polygon points="71.2,6 74.7,6 74.7,6.5 74.7,7 71.2,7 71.2,6.5 "/>
<polygon points="93.1,6 100.4,6 100.4,6.5 100.4,7 93.1,7 93.1,6.5 "/>
<polygon points="80.3,12.2 80.3,26.5 79.8,26.5 79.3,26.5 79.3,12.2 79.8,12.2 "/>
</svg>
