<?xml version="1.0" encoding="utf-8"?>
<!-- Generator: Adobe Illustrator 22.0.0, SVG Export Plug-In . SVG Version: 6.00 Build 0)  -->
<svg version="1.1" id="图层_1" xmlns="http://www.w3.org/2000/svg" xmlns:xlink="http://www.w3.org/1999/xlink" x="0px" y="0px"
	 viewBox="0 0 123.9 45.6" style="enable-background:new 0 0 123.9 45.6;" xml:space="preserve">
<style type="text/css">
	.st0{font-family:'TimesNewRomanPSMT';}
	.st1{font-size:11.2706px;}
	.st2{font-family:'ArialMT';}
	.st3{font-size:6.9358px;}
</style>
<text transform="matrix(1 0 0 1 11.2802 34.1019)" class="st0 st1">R</text>
<text transform="matrix(1 0 0 1 18.7978 34.1019)" class="st0 st1">=</text>
<text transform="matrix(1 0 0 1 49.3232 33.3348)" class="st2 st1">C</text>
<text transform="matrix(1 0 0 1 57.4628 33.3348)" class="st2 st1">H</text>
<text transform="matrix(1 0 0 1 65.602 35.0687)" class="st2 st3">2</text>
<text transform="matrix(1 0 0 1 74.8818 33.7865)" class="st2 st1">C</text>
<text transform="matrix(1 0 0 1 90.037 33.3348)" class="st2 st1">N</text>
<text transform="matrix(1 0 0 1 98.1762 33.3348)" class="st2 st1">H</text>
<text transform="matrix(1 0 0 1 106.3154 35.0687)" class="st2 st3">2</text>
<text transform="matrix(1 0 0 1 74.5668 9.2279)" class="st2 st1">O</text>
<polygon points="27.8,29.7 48.3,29.7 48.3,30.2 48.3,30.7 27.8,30.7 27.8,30.2 "/>
<polygon points="70.4,29.7 73.9,29.7 73.9,30.2 73.9,30.7 70.4,30.7 70.4,30.2 "/>
<polygon points="84,29.7 89,29.7 89,30.2 89,30.7 84,30.7 84,30.2 "/>
<polygon points="76.9,24.5 76.9,10.3 77.4,10.3 77.9,10.3 77.9,24.5 77.4,24.5 "/>
<polygon points="80,24.5 80,10.3 80.5,10.3 81,10.3 81,24.5 80.5,24.5 "/>
</svg>
